<?xml version="1.0" standalone="no"?>
<!DOCTYPE svg PUBLIC "-//W3C//DTD SVG 1.1//EN" "http://www.w3.org/Graphics/SVG/1.1/DTD/svg11.dtd" >
<svg xmlns="http://www.w3.org/2000/svg" xmlns:xlink="http://www.w3.org/1999/xlink" version="1.1">
<metadata>
Created by FontForge 20170731 at Sat Dec 14 20:12:01 2013
 By Aleksey,,,
Copyright (c) 2013 by Matthieu Cortat. All rights reserved.
</metadata>
<defs>
<font id="Louize" horiz-adv-x="250" >
  <font-face 
    font-family="Louize"
    font-weight="400"
    font-stretch="normal"
    units-per-em="1000"
    panose-1="2 10 5 2 5 0 0 2 0 3"
    ascent="732"
    descent="-268"
    x-height="433"
    cap-height="703"
    bbox="-156 -276 1489 1048"
    underline-thickness="50"
    underline-position="-200"
    unicode-range="U+0020-FB06"
  />
<missing-glyph horiz-adv-x="300" 
 />
    <glyph glyph-name="ff" unicode="ff" horiz-adv-x="551" 
d="M562 748q45 0 76 -22.5t31 -56.5q0 -17 -11 -29t-27 -12q-29 0 -52 39q-17 29 -48 29q-95 0 -95 -188v-75q20 0 40 1l40 2t29 1l8 -17l-8 -37h-109v-190v-27t0.5 -27t1 -22t0.5 -17v-6q0 -31 12 -46t44 -26l-3 -23q-53 3 -90 3q-27 0 -80 -3l-3 23q26 11 35 25t11 47
q2 40 2 97v107q0 58 -10 71q-9 14 -49 14h-143v-193v-27t0.5 -26t1 -21.5t0.5 -15.5v-6q0 -31 12 -46t44 -26l-3 -23q-53 3 -90 3q-27 0 -80 -3l-3 23q26 11 35 25t11 47q2 40 2 97v148q0 29 -8.5 40t-38.5 18l-4 21q29 7 40 34q7 17 8 25q2 9 6.5 36t5.5 31q19 94 67.5 149
t115.5 55q41 0 66.5 -18.5t25.5 -46.5q0 -17 -10 -27.5t-25 -10.5q-23 0 -44 27q-19 24 -44 24q-90 0 -90 -188v-75h141q30 0 47 20q8 12 11 36q1 5 3 15.5t4.5 23.5t3.5 18q18 95 66 148.5t121 53.5z" />
    <glyph glyph-name="fi" unicode="fi" horiz-adv-x="533" 
d="M94 191v148q0 29 -8.5 40t-38.5 18l-4 21q34 10 43 45q3 8 8 40q3 17 8 41q50 204 206 204q55 0 92 -25t37 -62q0 -21 -12 -33.5t-33 -12.5q-36 0 -59 42q-19 39 -57 39q-112 0 -112 -188v-75h154q63 0 106 25l21 -8q-5 -95 -5 -181v-75q0 -20 2 -100q1 -32 10 -46.5
t36 -25.5l-3 -23q-53 3 -80 3t-80 -3l-3 23q26 11 35 25t11 47q2 40 2 100v38q0 54 -2 94q-2 34 -17.5 45.5t-60.5 11.5h-126v-196q0 -39 2 -93q2 -31 13 -46t43 -26l-3 -23q-35 3 -90 3q-45 0 -80 -3l-3 23q26 11 34.5 25t10.5 47q3 32 3 97z" />
    <glyph glyph-name="fl" unicode="fl" horiz-adv-x="533" 
d="M94 191v148q0 29 -8.5 40t-38.5 18l-4 21q34 10 43 45q3 8 8 40q3 17 8 41q46 204 206 204q48 0 80 -23q26 18 36 27l21 -8q-5 -95 -5 -181v-369q0 -60 2 -100q0 -31 9.5 -46t36.5 -26l-3 -23q-53 3 -80 3t-80 -3l-3 23q26 11 35 25t11 47q2 40 2 100v316q0 53 -2 93
q-6 93 -92 93q-112 0 -112 -188v-75q20 0 40 1l40 2t29 1l8 -17l-8 -37h-109v-196q0 -39 2 -93q2 -31 13 -46t43 -26l-3 -23q-35 3 -90 3q-45 0 -80 -3l-3 23q26 11 34.5 25t10.5 47q3 32 3 97z" />
    <glyph glyph-name="ffi" unicode="ffi" horiz-adv-x="805" 
d="M375 546q46 202 205 202q55 0 92 -25t37 -62q0 -21 -12 -33.5t-33 -12.5q-36 0 -59 42q-19 39 -57 39q-112 0 -112 -188v-75q18 0 154 2q70 2 106 23l21 -8q-5 -95 -5 -181v-75q0 -60 2 -100q2 -33 11 -47t35 -25l-3 -23q-53 3 -80 3t-80 -3l-3 23q26 11 35 25t11 47
q2 40 2 100v38q0 54 -2 94q-2 34 -17.5 45.5t-60.5 11.5h-126v-192q0 -25 2 -97q2 -31 13 -46t43 -26l-3 -23q-53 3 -90 3q-27 0 -80 -3l-3 23q26 11 35 25t11 47q2 40 2 97v107q0 58 -10 71q-9 14 -49 14h-143v-192q0 -49 2 -97q2 -31 13 -46t43 -26l-3 -23q-53 3 -90 3
q-27 0 -80 -3l-3 23q26 11 35 25t11 47q2 40 2 97v148q0 29 -8.5 40t-38.5 18l-4 21q29 7 40 34q7 17 8 25q2 9 6.5 36t5.5 31q19 94 67.5 149t115.5 55q41 0 66.5 -18.5t25.5 -46.5q0 -17 -10 -27.5t-25 -10.5q-23 0 -44 27q-19 24 -44 24q-91 0 -91 -188v-75h142
q40 0 50 28q4 12 6 21q2 7 7 32.5t6 31.5z" />
    <glyph glyph-name="ffl" unicode="ffl" horiz-adv-x="805" 
d="M375 546q45 202 205 202q48 0 80 -23q26 18 36 27l21 -8q-5 -95 -5 -181v-369q0 -60 2 -100q0 -31 9.5 -46t36.5 -26l-3 -23q-53 3 -80 3t-80 -3l-3 23q26 11 35 25t11 47q2 40 2 100v316q0 53 -2 93q-6 93 -92 93q-112 0 -112 -188v-75q20 0 40 1l40 2t29 1l8 -17
l-8 -37h-109v-189v-28t0.5 -27t1 -22t0.5 -17v-6q0 -31 12 -46t44 -26l-3 -23q-53 3 -90 3q-27 0 -80 -3l-3 23q26 11 35 25t11 47q2 40 2 97v107q0 58 -10 71q-9 14 -49 14h-142v-193v-27t0.5 -26t0.5 -21.5v-15.5v-6q0 -31 12 -46t44 -26l-3 -23q-53 3 -90 3q-27 0 -80 -3
l-3 23q26 11 35 25t11 47q2 40 2 97v148q0 29 -8.5 40t-38.5 18l-4 21q29 7 40 34q7 17 8 25q2 9 6.5 36t5.5 31q19 94 67.5 149t115.5 55q41 0 66.5 -18.5t25.5 -46.5q0 -17 -10 -27.5t-25 -10.5q-23 0 -44 27q-19 24 -44 24q-90 0 -90 -188v-75h141q40 0 50 28q4 12 6 21
q2 7 7 32.5t6 31.5z" />
    <glyph glyph-name="longsl" unicode="&#x17f;i" horiz-adv-x="533" 
d="M94 191v148q0 29 -8.5 40t-38.5 18l-4 21q34 10 43 45q3 8 8 40q3 17 8 41q46 204 206 204q48 0 80 -23q26 18 36 27l21 -8q-5 -95 -5 -181v-369q0 -60 2 -100q0 -31 9.5 -46t36.5 -26l-3 -23q-53 3 -80 3t-80 -3l-3 23q26 11 35 25t11 47q2 40 2 100v316q0 53 -2 93
q-6 93 -92 93q-111 0 -111 -188v-317q0 -17 2 -97q1 -31 12 -46t43 -26l-3 -23q-53 3 -90 3q-27 0 -80 -3l-3 23q26 11 35 25t11 47q2 40 2 97z" />
    <glyph glyph-name="flslash" unicode="f&#x142;" horiz-adv-x="554" 
d="M94 191v148q0 29 -8.5 40t-38.5 18l-4 21q34 10 43 45q3 8 8 40q3 17 8 41q46 204 210 204q52 0 84 -23q26 18 36 27l21 -8q-5 -95 -5 -181v-192l93 55l23 -39l-116 -68v-125q0 -60 2 -100q0 -31 9.5 -46t36.5 -26l-3 -23q-53 3 -80 3t-80 -3l-3 23q26 11 35 25t11 47
q2 40 2 100v84l-87 -51l-22 39l109 64v180q0 53 -2 93q-6 93 -96 93q-116 0 -116 -188v-75q20 0 40 1l40 2t29 1l8 -17l-8 -37h-109v-196q0 -39 2 -93q2 -31 13 -46t43 -26l-3 -23q-35 3 -90 3q-45 0 -80 -3l-3 23q26 11 34.5 25t10.5 47q3 32 3 97z" />
    <glyph glyph-name="fthorn" unicode="f&#xfe;" horiz-adv-x="805" 
d="M563 28q58 0 92.5 43t34.5 122q0 91 -39 144t-98 53q-51 0 -82 -30.5t-31 -79.5v-118q0 -63 33.5 -98.5t89.5 -35.5zM94 191v148q0 29 -8.5 40t-38.5 18l-4 21q34 10 43 45q3 8 8 40q3 17 8 41q46 204 206 204q48 0 80 -23q26 18 36 27l21 -8q-5 -95 -5 -181l-1 -197
l1 -1q21 40 58 65.5t77 25.5q77 0 132 -64q56 -65 56 -168q0 -106 -60 -173t-143 -67q-76 0 -120 36q0 -147 2 -189q0 -31 12 -46t44 -26l-3 -23q-53 3 -90 3q-27 0 -80 -3l-3 23q26 11 35 25t11 47q2 40 2 97v582q0 53 -2 93q-6 93 -92 93q-111 0 -111 -188v-75
q25 1 64.5 2.5t43.5 1.5l8 -17l-8 -37h-109v-196q0 -39 2 -93q2 -31 13 -46t43 -26l-3 -23q-35 3 -90 3q-45 0 -80 -3l-3 23q26 11 34.5 25t10.5 47q3 32 3 97z" />
    <glyph glyph-name="fb" unicode="fb" horiz-adv-x="802" 
d="M543 30q66 0 104 50t38 132q0 81 -35 130q-34 48 -92 48q-56 0 -87 -34t-31 -91v-128q0 -107 103 -107zM273 383h-109v-196q0 -39 2 -93q2 -31 13 -46t43 -26l-3 -23q-35 3 -90 3q-45 0 -80 -3l-3 23q26 11 34.5 25t10.5 47q3 32 3 97v148q0 29 -8.5 40t-38.5 18l-4 21
q34 10 43 45q3 8 8 40q3 17 8 41q46 204 206 204q48 0 80 -23q26 18 36 27l21 -8q-5 -95 -5 -181v-201l1 -1q21 43 58 69t81 26q77 0 128 -61q52 -61 52 -156q0 -111 -66 -183q-64 -72 -158 -72q-108 0 -166 40v486q0 53 -2 93q-6 93 -92 93q-111 0 -111 -188v-75
q25 1 64.5 2.5t43.5 1.5l8 -17z" />
    <glyph glyph-name="fh" unicode="fh" horiz-adv-x="799" 
d="M94 191v148q0 29 -8.5 40t-38.5 18l-4 21q34 10 43 45q3 8 8 40q3 17 8 41q46 204 206 204q48 0 80 -23q26 18 36 27l21 -8q-5 -95 -5 -181l-1 -197l1 -1q22 41 57.5 66t76.5 25q76 0 114 -62q21 -36 21 -88v-115q0 -57 2 -97q0 -31 9.5 -46t36.5 -26l-3 -23q-52 3 -80 3
t-80 -3l-3 23q26 11 35 25t11 47q2 40 2 97v106q0 42 -23.5 68t-63.5 26q-51 0 -81.5 -31t-30.5 -80v-89q0 -57 2 -97q0 -31 9.5 -46t36.5 -26l-3 -23q-53 3 -80 3t-80 -3l-3 23q26 11 35 25t11 47q2 40 2 97v319q0 53 -2 93q-6 93 -92 93q-111 0 -111 -188v-75
q25 1 64.5 2.5t43.5 1.5l8 -17l-8 -37h-109v-196q0 -39 2 -93q2 -31 13 -46t43 -26l-3 -23q-35 3 -90 3q-45 0 -80 -3l-3 23q26 11 34.5 25t10.5 47q3 32 3 97z" />
    <glyph glyph-name="fj" unicode="fj" horiz-adv-x="525" 
d="M290 383h-126v-196q0 -39 2 -93q2 -31 13 -46t43 -26l-3 -23q-35 3 -90 3q-45 0 -80 -3l-3 23q26 11 34.5 25t10.5 47q3 32 3 97v148q0 29 -8.5 40t-38.5 18l-4 21q34 10 43 45q3 8 8 40q3 17 8 41q50 204 206 204q55 0 92 -25t37 -62q0 -21 -12 -33.5t-33 -12.5
q-36 0 -59 42q-19 39 -57 39q-112 0 -112 -188v-75h154q63 0 106 25l21 -8q-5 -95 -5 -181v-253q0 -80 1 -100q-6 -54 -37 -102t-79 -78l-17 18q35 45 49 93q13 45 13 122v263q0 54 -2 94q-2 34 -17.5 45.5t-60.5 11.5z" />
    <glyph glyph-name="fk" unicode="fk" horiz-adv-x="731" 
d="M273 383h-109v-196q0 -39 2 -93q2 -31 13 -46t43 -26l-3 -23q-35 3 -90 3q-45 0 -80 -3l-3 23q26 11 34.5 25t10.5 47q3 32 3 97v148q0 29 -8.5 40t-38.5 18l-4 21q34 10 43 45q3 8 8 40q3 17 8 41q46 204 206 204q48 0 80 -23q26 18 36 27l21 -8q-5 -95 -5 -181v-369
q0 -60 2 -100q2 -33 11 -47t35 -25l-3 -23q-53 3 -80 3t-80 -3l-3 23q26 11 35 25t11 47q2 40 2 100v316q0 53 -2 93q-6 93 -92 93q-111 0 -111 -188v-75q25 1 64.5 2.5t43.5 1.5l8 -17zM504 164l-51 78l31 28q60 55 79 76q19 22 19 35q0 16 -28 29l4 23q28 -3 69 -3
q31 0 74 3l3 -23q-13 -7 -86 -71l-93 -86q76 -111 128 -172q37 -45 80 -62v-21q-18 -7 -34 -7q-57 0 -106 57q-27 32 -51 63q-4 5 -18 24.5t-20 28.5z" />
    <glyph glyph-name="fagrave" unicode="f&#xe0;" horiz-adv-x="681" 
d="M350 350l-19 32q16 30 51.5 51t76.5 21q75 0 111 -52q30 -45 30 -108v-96q0 -49 2 -91q3 -50 50 -73l-13 -40q-90 4 -104 78h-2q-38 -86 -116 -86q-47 0 -75.5 26.5t-28.5 68.5q0 59 63 100q55 35 154 61v49q0 45 -21 72q-21 28 -63 28q-43 0 -96 -41zM530 152v55
q-12 -3 -58 -23q-88 -37 -88 -86q0 -23 13 -37t37 -14q36 0 65 28q31 28 31 77zM94 191v148q0 29 -8.5 40t-38.5 18l-4 21q35 12 45 47q6 19 7 23q2 6 5.5 28t4.5 28q41 204 165 204q34 0 59 -20t25 -50q0 -19 -11 -31t-28 -12q-28 0 -41 34q-10 27 -35 27q-34 0 -54 -46.5
t-20 -141.5v-75q25 1 64.5 2.5t43.5 1.5l8 -17l-8 -37h-109v-196q0 -39 2 -93q2 -31 13 -46t43 -26l-3 -23q-35 3 -90 3q-45 0 -80 -3l-3 23q26 11 34.5 25t10.5 47q3 32 3 97zM475 694l46 -191l-23 -10l-96 169q-15 26 -15 44t10.5 29.5t27.5 11.5q36 0 50 -53z" />
    <glyph glyph-name="facircumflex" unicode="f&#xe2;" horiz-adv-x="681" 
d="M350 350l-19 32q16 30 51.5 51t76.5 21q75 0 111 -52q30 -45 30 -108v-96q0 -49 2 -91q3 -50 50 -73l-13 -40q-90 4 -104 78h-2q-38 -86 -116 -86q-47 0 -75.5 26.5t-28.5 68.5q0 59 63 100q55 35 154 61v49q0 45 -21 72q-21 28 -63 28q-43 0 -96 -41zM530 152v55
q-12 -3 -58 -23q-88 -37 -88 -86q0 -23 13 -37t37 -14q36 0 65 28q31 28 31 77zM94 191v148q0 29 -8.5 40t-38.5 18l-4 21q35 12 45 47q6 19 7 23q2 6 5.5 28t4.5 28q41 204 165 204q34 0 59 -20t25 -50q0 -19 -11 -31t-28 -12q-28 0 -41 34q-10 27 -35 27q-34 0 -54 -46.5
t-20 -141.5v-75q25 1 64.5 2.5t43.5 1.5l8 -17l-8 -37h-109v-196q0 -39 2 -93q2 -31 13 -46t43 -26l-3 -23q-35 3 -90 3q-45 0 -80 -3l-3 23q26 11 34.5 25t10.5 47q3 32 3 97zM369 505l-21 13l97 205q10 24 29 24t29 -24l97 -205l-21 -13l-105 134z" />
    <glyph glyph-name="fatilde" unicode="f&#xe3;" horiz-adv-x="701" 
d="M370 350l-19 32q16 30 51.5 51t76.5 21q75 0 111 -52q30 -45 30 -108v-96q0 -49 2 -91q3 -50 50 -73l-13 -40q-90 4 -104 78h-2q-38 -86 -116 -86q-47 0 -75.5 26.5t-28.5 68.5q0 59 63 100q55 35 154 61v49q0 45 -21 72q-21 28 -63 28q-43 0 -96 -41zM550 152v55
q-12 -3 -58 -23q-88 -37 -88 -86q0 -23 13 -37t37 -14q36 0 65 28q31 28 31 77zM94 191v148q0 29 -8.5 40t-38.5 18l-4 21q35 12 45 47q6 19 7 23q2 6 5.5 28t4.5 28q41 204 165 204q34 0 59 -20t25 -50q0 -19 -11 -31t-28 -12q-28 0 -41 34q-10 27 -35 27q-34 0 -54 -46.5
t-20 -141.5v-75q25 1 64.5 2.5t43.5 1.5l8 -17l-8 -37h-109v-196q0 -39 2 -93q2 -31 13 -46t43 -26l-3 -23q-35 3 -90 3q-45 0 -80 -3l-3 23q26 11 34.5 25t10.5 47q3 32 3 97zM512 648q42 -19 60 -19q32 0 63 25l17 -18q-44 -68 -98 -68q-27 0 -60 15q-42 19 -60 19
q-32 0 -63 -25l-18 18q44 68 99 68q27 0 60 -15z" />
    <glyph glyph-name="faring" unicode="f&#xe5;" horiz-adv-x="691" 
d="M360 350l-19 32q16 30 51.5 51t76.5 21q75 0 111 -52q30 -45 30 -108v-96q0 -49 2 -91q3 -50 50 -73l-13 -40q-90 4 -104 78h-2q-38 -86 -116 -86q-47 0 -75.5 26.5t-28.5 68.5q0 59 63 100q55 35 154 61v49q0 45 -21 72q-21 28 -63 28q-43 0 -96 -41zM540 152v55
q-12 -3 -58 -23q-88 -37 -88 -86q0 -23 13 -37t37 -14q36 0 65 28q31 28 31 77zM94 191v148q0 29 -8.5 40t-38.5 18l-4 21q35 12 45 47q6 19 7 23q2 6 5.5 28t4.5 28q41 204 165 204q34 0 59 -20t25 -50q0 -19 -11 -31t-28 -12q-28 0 -41 34q-10 27 -35 27q-34 0 -54 -46.5
t-20 -141.5v-75q25 1 64.5 2.5t43.5 1.5l8 -17l-8 -37h-109v-196q0 -39 2 -93q2 -31 13 -46t43 -26l-3 -23q-35 3 -90 3q-45 0 -80 -3l-3 23q26 11 34.5 25t10.5 47q3 32 3 97zM414 570q-30 30 -30 73t30 73q30 31 73 31t73 -31q31 -30 31 -73t-31 -73q-30 -30 -73 -30
t-73 30zM486 581q26 0 43.5 17.5t17.5 43.5t-17.5 44.5t-43.5 18.5q-25 0 -42 -18.5t-17 -44.5t17 -43.5t42 -17.5z" />
    <glyph glyph-name="fedieresis" unicode="f&#xeb;" horiz-adv-x="746" 
d="M94 191v148q0 29 -8.5 40t-38.5 18l-4 21q35 12 45 47q6 19 7 23q2 6 5.5 28t4.5 28q41 204 165 204q34 0 59 -20t25 -50q0 -19 -11 -31t-28 -12q-28 0 -41 34q-10 27 -35 27q-34 0 -54 -46.5t-20 -141.5v-75q25 1 64.5 2.5t43.5 1.5l8 -17l-8 -37h-109v-196q0 -39 2 -93
q2 -31 13 -46t43 -26l-3 -23q-35 3 -90 3q-45 0 -80 -3l-3 23q26 11 34.5 25t10.5 47q3 32 3 97zM315 212q0 104 63 174t156 70q72 0 120 -48q49 -46 49 -119q0 -13 -2 -23h-308q-2 -16 -2 -38q0 -76 40 -125q41 -48 102 -48q48 0 80.5 18.5t63.5 62.5l24 -15
q-25 -63 -71 -100t-107 -37q-92 0 -150 67t-58 161zM400 306h215q-1 48 -29.5 76.5t-73.5 28.5q-43 0 -73 -29t-39 -76zM394 651q0 21 14.5 35.5t35.5 14.5q22 0 36.5 -14.5t14.5 -35.5q0 -22 -14.5 -36.5t-36.5 -14.5q-21 0 -35.5 14.5t-14.5 36.5zM563 651q0 21 14.5 35.5
t35.5 14.5q22 0 36.5 -14.5t14.5 -35.5q0 -22 -14.5 -36.5t-36.5 -14.5q-21 0 -35.5 14.5t-14.5 36.5z" />
    <glyph glyph-name="fiacute" unicode="f&#xed;" horiz-adv-x="533" 
d="M385 493l-23 10l46 191q14 53 50 53q17 0 27.5 -11.5t10.5 -29.5t-15 -44zM94 191v148q0 29 -8.5 40t-38.5 18l-4 21q35 12 45 47q6 19 7 23q2 6 5.5 28t4.5 28q41 204 165 204q34 0 59 -20t25 -50q0 -19 -11 -31t-28 -12q-28 0 -41 34q-10 27 -35 27q-34 0 -54 -46.5
t-20 -141.5v-75l153 2q70 2 106 23l21 -8q-5 -95 -5 -181v-75q0 -60 2 -100q2 -33 11 -47t35 -25l-3 -23q-53 3 -80 3t-80 -3l-3 23q26 11 35 25t11 47q2 40 2 100v38q0 54 -2 94q-2 34 -17.5 45.5t-60.5 11.5h-126v-196q0 -39 2 -93q2 -31 13 -46t43 -26l-3 -23
q-35 3 -90 3q-45 0 -80 -3l-3 23q26 11 34.5 25t10.5 47q3 32 3 97z" />
    <glyph glyph-name="figrave" unicode="f&#xec;" horiz-adv-x="533" 
d="M290 383h-126v-196q0 -39 2 -93q2 -31 13 -46t43 -26l-3 -23q-35 3 -90 3q-45 0 -80 -3l-3 23q26 11 34.5 25t10.5 47q3 32 3 97v148q0 29 -8.5 40t-38.5 18l-4 21q34 10 43 45q2 7 7 40q3 17 8 41q47 204 189 204q89 0 112 -92l37 -153l-23 -10l-88 155q-27 48 -69 48
q-95 0 -95 -188v-75l154 2q70 2 106 23l21 -8q-5 -95 -5 -181v-75q0 -60 2 -100q0 -31 9.5 -46t36.5 -26l-3 -23q-53 3 -80 3t-80 -3l-3 23q26 11 35 25t11 47q2 40 2 100v38q0 54 -2 94q-2 34 -17.5 45.5t-60.5 11.5z" />
    <glyph glyph-name="ficircumflex" unicode="f&#xee;" horiz-adv-x="575" 
d="M94 191v148q0 29 -8.5 40t-38.5 18l-4 21q35 12 45 47q6 19 7 23q2 6 5.5 28t4.5 28q41 204 165 204q34 0 59 -20t25 -50q0 -19 -11 -31t-28 -12q-28 0 -41 34q-10 27 -35 27q-34 0 -54 -46.5t-20 -141.5v-75q25 1 64.5 2.5t43.5 1.5l8 -17l-8 -37h-109v-196q0 -39 2 -93
q2 -31 13 -46t43 -26l-3 -23q-35 3 -90 3q-45 0 -80 -3l-3 23q26 11 34.5 25t10.5 47q3 32 3 97zM481 269v-75q0 -20 2 -100q1 -32 10 -46.5t36 -25.5l-3 -23q-52 3 -80 3t-80 -3l-3 23q26 11 35 25t11 47q2 40 2 100v22q-2 105 -6 120q-6 20 -33 28q-5 1 -13 3v21
q62 28 106 70l21 -8q-5 -95 -5 -181zM344 505l-21 13l97 205q10 24 29 24t29 -24l97 -205l-21 -13l-105 134z" />
    <glyph glyph-name="fidieresis" unicode="f&#xef;" horiz-adv-x="593" 
d="M94 191v148q0 29 -8.5 40t-38.5 18l-4 21q35 12 45 47q6 19 7 23q2 6 5.5 28t4.5 28q41 204 165 204q34 0 59 -20t25 -50q0 -19 -11 -31t-28 -12q-28 0 -41 34q-10 27 -35 27q-34 0 -54 -46.5t-20 -141.5v-75q25 1 64.5 2.5t43.5 1.5l8 -17l-8 -37h-109v-196q0 -39 2 -93
q2 -31 13 -46t43 -26l-3 -23q-35 3 -90 3q-45 0 -80 -3l-3 23q26 11 34.5 25t10.5 47q3 32 3 97zM500 269v-75q0 -20 2 -100q1 -32 10 -46.5t36 -25.5l-3 -23q-53 3 -80 3t-80 -3l-3 23q26 11 35 25t11 47q2 40 2 100v22q-2 105 -6 120q-6 20 -33 28q-5 1 -13 3v21
q62 28 106 70l21 -8q-5 -95 -5 -181zM335 591q0 21 14.5 35.5t35.5 14.5q22 0 36.5 -14.5t14.5 -35.5q0 -22 -14.5 -36.5t-36.5 -14.5q-21 0 -35.5 14.5t-14.5 36.5zM504 591q0 21 14.5 35.5t35.5 14.5q22 0 36.5 -14.5t14.5 -35.5q0 -22 -14.5 -36.5t-36.5 -14.5
q-21 0 -35.5 14.5t-14.5 36.5z" />
    <glyph glyph-name="fodieresis" unicode="f&#xf6;" horiz-adv-x="799" 
d="M94 191v148q0 29 -8.5 40t-38.5 18l-4 21q35 12 45 47q6 19 7 23q2 6 5.5 28t4.5 28q41 204 165 204q34 0 59 -20t25 -50q0 -19 -11 -31t-28 -12q-28 0 -41 34q-10 27 -35 27q-34 0 -54 -46.5t-20 -141.5v-75q25 1 64.5 2.5t43.5 1.5l8 -17l-8 -37h-109v-196q0 -39 2 -93
q2 -31 13 -46t43 -26l-3 -23q-35 3 -90 3q-45 0 -80 -3l-3 23q26 11 34.5 25t10.5 47q3 32 3 97zM315 220q0 96 65 166q64 70 157 70q96 0 159 -68q64 -67 64 -168q0 -99 -64 -167q-63 -69 -154 -69q-98 0 -163 68q-64 67 -64 168zM534 410q-61 0 -99 -48t-38 -133
q0 -91 40.5 -144t107.5 -53q60 0 96.5 48.5t36.5 133.5q0 87 -41 142q-41 54 -103 54zM397 651q0 21 14.5 35.5t35.5 14.5q22 0 36.5 -14.5t14.5 -35.5q0 -22 -14.5 -36.5t-36.5 -14.5q-21 0 -35.5 14.5t-14.5 36.5zM566 651q0 21 14.5 35.5t35.5 14.5q22 0 36.5 -14.5
t14.5 -35.5q0 -22 -14.5 -36.5t-36.5 -14.5q-21 0 -35.5 14.5t-14.5 36.5z" />
    <glyph glyph-name="fotilde" unicode="f&#xf5;" horiz-adv-x="799" 
d="M94 191v148q0 29 -8.5 40t-38.5 18l-4 21q35 12 45 47q6 19 7 23q2 6 5.5 28t4.5 28q41 204 165 204q34 0 59 -20t25 -50q0 -19 -11 -31t-28 -12q-28 0 -41 34q-10 27 -35 27q-34 0 -54 -46.5t-20 -141.5v-75q25 1 64.5 2.5t43.5 1.5l8 -17l-8 -37h-109v-196q0 -39 2 -93
q2 -31 13 -46t43 -26l-3 -23q-35 3 -90 3q-45 0 -80 -3l-3 23q26 11 34.5 25t10.5 47q3 32 3 97zM315 220q0 96 65 166q64 70 157 70q96 0 159 -68q64 -67 64 -168q0 -99 -64 -167q-63 -69 -154 -69q-98 0 -163 68q-64 67 -64 168zM534 410q-61 0 -99 -48t-38 -133
q0 -91 40.5 -144t107.5 -53q60 0 96.5 48.5t36.5 133.5q0 87 -41 142q-41 54 -103 54zM555 678q42 -19 60 -19q32 0 63 25l17 -18q-44 -68 -98 -68q-27 0 -60 15q-42 19 -60 19q-32 0 -63 -25l-18 18q44 68 99 68q27 0 60 -15z" />
    <glyph glyph-name="futilde" unicode="f&#x169;" horiz-adv-x="798" 
d="M700 257v-43q0 -58 3 -90q2 -30 11.5 -41t37.5 -16v-21q-47 -21 -94 -62l-21 5l-3 92l-1 1q-19 -44 -55.5 -71t-79.5 -27q-77 0 -113 59q-20 35 -20 91v109q0 63 -3 94q-3 30 -13.5 46t-34.5 27l3 22q70 1 125 5q-7 -148 -7 -180v-114q0 -46 21 -70t58 -24
q53 0 84.5 34.5t31.5 89.5v70q0 63 -3 94q-2 30 -12.5 45.5t-35.5 27.5l3 22q70 1 125 5q-7 -148 -7 -180zM94 191v148q0 29 -8.5 40t-38.5 18l-4 21q35 12 45 47q6 19 7 23q2 6 5.5 28t4.5 28q41 204 165 204q34 0 59 -20t25 -50q0 -19 -11 -31t-28 -12q-28 0 -41 34
q-10 27 -35 27q-34 0 -54 -46.5t-20 -141.5v-75q25 1 64.5 2.5t43.5 1.5l8 -17l-8 -37h-109v-196q0 -39 2 -93q2 -31 13 -46t43 -26l-3 -23q-35 3 -90 3q-45 0 -80 -3l-3 23q26 11 34.5 25t10.5 47q3 32 3 97zM545 678q42 -19 60 -19q32 0 63 25l17 -18q-44 -68 -98 -68
q-27 0 -60 15q-42 19 -60 19q-32 0 -63 -25l-18 18q44 68 99 68q27 0 60 -15z" />
    <glyph glyph-name="fscaron" unicode="f&#x161;" horiz-adv-x="656" 
d="M347 73q0 18 10 29t27 11q32 0 43 -39q13 -48 60 -48q72 0 72 67q0 31 -19.5 53t-68.5 47q-110 56 -110 136q0 53 38 89q38 37 93 37q52 0 90 -29q26 -21 26 -49q0 -16 -9.5 -26t-25.5 -10q-27 0 -42 34q-17 38 -54 38q-25 0 -41.5 -16t-16.5 -41q0 -30 21 -53.5
t73 -49.5q58 -28 83.5 -60.5t25.5 -80.5q0 -57 -39.5 -92.5t-99.5 -35.5q-68 0 -106 32q-30 26 -30 57zM462 529l-97 205l21 13l105 -134l105 134l21 -13l-97 -205q-10 -24 -29 -24t-29 24zM94 191v148q0 29 -8.5 40t-38.5 18l-4 21q35 12 45 47q6 19 7 23q2 6 5.5 28
t4.5 28q41 204 165 204q34 0 59 -20t25 -50q0 -19 -11 -31t-28 -12q-28 0 -41 34q-10 27 -35 27q-34 0 -54 -46.5t-20 -141.5v-75q25 1 64.5 2.5t43.5 1.5l8 -17l-8 -37h-109v-196q0 -39 2 -93q2 -31 13 -46t43 -26l-3 -23q-35 3 -90 3q-45 0 -80 -3l-3 23q26 11 34.5 25
t10.5 47q3 32 3 97z" />
    <glyph glyph-name="fydieresis" unicode="f&#xff;" horiz-adv-x="722" 
d="M456 253l62 -156l66 155q31 71 31 105q0 33 -35 53l4 23q28 -3 68 -3q36 0 65 3l3 -23q-22 -20 -48 -72l-39 -87l-177 -400q-28 -64 -58 -95q-32 -32 -76 -32q-20 0 -33.5 12t-13.5 30t10.5 29.5t27.5 11.5q7 0 22.5 -2.5t21.5 -2.5q29 0 51 48l72 156l-99 245l-40 101
q-11 25 -19.5 35.5t-26.5 22.5l4 23q43 -3 81 -3q26 0 69 3l3 -23q-30 -14 -30 -40q0 -33 34 -117zM396 651q0 21 14.5 35.5t35.5 14.5q22 0 36.5 -14.5t14.5 -35.5q0 -22 -14.5 -36.5t-36.5 -14.5q-21 0 -35.5 14.5t-14.5 36.5zM565 651q0 21 14.5 35.5t35.5 14.5
q22 0 36.5 -14.5t14.5 -35.5q0 -22 -14.5 -36.5t-36.5 -14.5q-21 0 -35.5 14.5t-14.5 36.5zM94 191v148q0 29 -8.5 40t-38.5 18l-4 21q35 12 45 47q6 19 7 23q2 6 5.5 28t4.5 28q41 204 165 204q34 0 59 -20t25 -50q0 -19 -11 -31t-28 -12q-28 0 -41 34q-10 27 -35 27
q-34 0 -54 -46.5t-20 -141.5v-75q25 1 64.5 2.5t43.5 1.5l8 -17l-8 -37h-109v-196q0 -39 2 -93q2 -31 13 -46t43 -26l-3 -23q-35 3 -90 3q-45 0 -80 -3l-3 23q26 11 34.5 25t10.5 47q3 32 3 97z" />
    <glyph glyph-name="flcaron" unicode="f&#x13e;" horiz-adv-x="583" 
d="M94 191v148q0 29 -8.5 40t-38.5 18l-4 21q34 10 43 45q3 8 8 40q3 17 8 41q46 204 206 204q48 0 80 -23q26 18 36 27l21 -8q-5 -95 -5 -181v-369q0 -60 2 -100q0 -31 9.5 -46t36.5 -26l-3 -23q-53 3 -80 3t-80 -3l-3 23q26 11 35 25t11 47q2 40 2 100v316q0 53 -2 93
q-6 93 -92 93q-112 0 -112 -188v-75q20 0 40 1l40 2t29 1l8 -17l-8 -37h-109v-196q0 -39 2 -93q2 -31 13 -46t43 -26l-3 -23q-35 3 -90 3q-45 0 -80 -3l-3 23q26 11 34.5 25t10.5 47q3 32 3 97zM631 660q0 -49 -27.5 -78.5t-86.5 -45.5l-8 25q75 29 75 67q0 26 -28 41
q-35 20 -35 46q0 15 11 25.5t28 10.5q28 0 49.5 -26.5t21.5 -64.5z" />
    <glyph glyph-name="fzdotaccent" unicode="f&#x17c;" horiz-adv-x="683" 
d="M455 430h86q4 0 100 3l6 -26l-75 -105l-182 -259h77q40 0 78 5q33 5 46 30q11 15 27 60l27 -5q-6 -90 -14 -138q-35 1 -65.5 2.5t-43.5 2t-14 0.5h-65q-21 0 -127 -2l-12 40l70 95l178 254h-62q-48 0 -72 -4q-26 -4 -40.5 -18t-28.5 -50l-26 5q6 75 15 115q75 -5 117 -5z
M94 191v148q0 29 -8.5 40t-38.5 18l-4 21q35 12 45 47q6 19 7 23q2 6 5.5 28t4.5 28q41 204 165 204q34 0 59 -20t25 -50q0 -19 -11 -31t-28 -12q-28 0 -41 34q-10 27 -35 27q-34 0 -54 -46.5t-20 -141.5v-75q25 1 64.5 2.5t43.5 1.5l8 -17l-8 -37h-109v-196q0 -39 2 -93
q2 -31 13 -46t43 -26l-3 -23q-35 3 -90 3q-45 0 -80 -3l-3 23q26 11 34.5 25t10.5 47q3 32 3 97zM441 638q-16 16 -16 40t16 40t40 16t40 -16t16 -40t-16 -40t-40 -16t-40 16z" />
    <glyph glyph-name="fabreve" unicode="f&#x103;" horiz-adv-x="710" 
d="M379 350l-19 32q16 30 51.5 51t76.5 21q75 0 111 -52q30 -45 30 -108v-96q0 -49 2 -91q3 -50 50 -73l-13 -40q-90 4 -104 78h-2q-38 -86 -116 -86q-47 0 -75.5 26.5t-28.5 68.5q0 59 63 100q55 35 154 61v49q0 45 -21 72q-21 28 -63 28q-43 0 -96 -41zM559 152v55
q-12 -3 -58 -23q-88 -37 -88 -86q0 -23 13 -37t37 -14q36 0 65 28q31 28 31 77zM94 191v148q0 29 -8.5 40t-38.5 18l-4 21q35 12 45 47q6 19 7 23q2 6 5.5 28t4.5 28q41 204 165 204q34 0 59 -20t25 -50q0 -19 -11 -31t-28 -12q-28 0 -41 34q-10 27 -35 27q-34 0 -54 -46.5
t-20 -141.5v-75q25 1 64.5 2.5t43.5 1.5l8 -17l-8 -37h-109v-196q0 -39 2 -93q2 -31 13 -46t43 -26l-3 -23q-35 3 -90 3q-45 0 -80 -3l-3 23q26 11 34.5 25t10.5 47q3 32 3 97zM377 740l24 2q17 -78 41 -112.5t61 -34.5t61 34.5t41 112.5l24 -2q-3 -106 -36.5 -160.5
t-89.5 -54.5t-89.5 54.5t-36.5 160.5z" />
    <glyph glyph-name="flacute" unicode="f&#x13a;" horiz-adv-x="533" 
d="M94 191v148q0 29 -8.5 40t-38.5 18l-4 21q34 10 43 45q3 8 8 40q3 17 8 41q46 204 206 204q48 0 80 -23q26 18 36 27l21 -8q-5 -95 -5 -181v-369q0 -60 2 -100q0 -31 9.5 -46t36.5 -26l-3 -23q-53 3 -80 3t-80 -3l-3 23q26 11 35 25t11 47q2 40 2 100v316q0 53 -2 93
q-6 93 -92 93q-112 0 -112 -188v-75q20 0 40 1l40 2t29 1l8 -17l-8 -37h-109v-196q0 -39 2 -93q2 -31 13 -46t43 -26l-3 -23q-35 3 -90 3q-45 0 -80 -3l-3 23q26 11 34.5 25t10.5 47q3 32 3 97zM288 767l-9 24l167 102q24 15 43 15q18 0 29 -11.5t11 -29.5t-12.5 -29
t-42.5 -19z" />
    <glyph glyph-name="fccaron" unicode="f&#x10d;" horiz-adv-x="725" 
d="M601 339q-13 72 -79 72q-59 0 -94.5 -49.5t-35.5 -133.5q0 -77 39 -125t98 -48q48 0 79.5 18t62.5 63l24 -15q-25 -64 -70 -100.5t-106 -36.5q-90 0 -147 67t-57 161q0 104 64 174t159 70q66 0 113 -41q36 -31 36 -74q0 -19 -11 -31.5t-31 -12.5q-37 0 -44 42zM500 529
l-97 205l21 13l105 -134l105 134l21 -13l-97 -205q-10 -24 -29 -24t-29 24zM94 191v148q0 29 -8.5 40t-38.5 18l-4 21q35 12 45 47q6 19 7 23q2 6 5.5 28t4.5 28q41 204 165 204q34 0 59 -20t25 -50q0 -19 -11 -31t-28 -12q-28 0 -41 34q-10 27 -35 27q-34 0 -54 -46.5
t-20 -141.5v-75q25 1 64.5 2.5t43.5 1.5l8 -17l-8 -37h-109v-196q0 -39 2 -93q2 -31 13 -46t43 -26l-3 -23q-35 3 -90 3q-45 0 -80 -3l-3 23q26 11 34.5 25t10.5 47q3 32 3 97z" />
    <glyph glyph-name="fecaron" unicode="f&#x11b;" horiz-adv-x="746" 
d="M315 212q0 104 63 174t156 70q72 0 120 -48q49 -46 49 -119q0 -13 -2 -23h-308q-2 -16 -2 -38q0 -76 40 -125q41 -48 102 -48q48 0 80.5 18.5t63.5 62.5l24 -15q-25 -63 -71 -100t-107 -37q-92 0 -150 67t-58 161zM400 306h215q-1 48 -29.5 76.5t-73.5 28.5
q-43 0 -73 -29t-39 -76zM494 529l-97 205l21 13l105 -134l105 134l21 -13l-97 -205q-10 -24 -29 -24t-29 24zM94 191v148q0 29 -8.5 40t-38.5 18l-4 21q35 12 45 47q6 19 7 23q2 6 5.5 28t4.5 28q41 204 165 204q34 0 59 -20t25 -50q0 -19 -11 -31t-28 -12q-28 0 -41 34
q-10 27 -35 27q-34 0 -54 -46.5t-20 -141.5v-75q25 1 64.5 2.5t43.5 1.5l8 -17l-8 -37h-109v-196q0 -39 2 -93q2 -31 13 -46t43 -26l-3 -23q-35 3 -90 3q-45 0 -80 -3l-3 23q26 11 34.5 25t10.5 47q3 32 3 97z" />
    <glyph glyph-name="frcaron" unicode="f&#x159;" horiz-adv-x="626" 
d="M94 191v148q0 29 -8.5 40t-38.5 18l-4 21q35 12 45 47q6 19 7 23q2 6 5.5 28t4.5 28q41 204 165 204q34 0 59 -20t25 -50q0 -19 -11 -31t-28 -12q-28 0 -41 34q-10 27 -35 27q-34 0 -54 -46.5t-20 -141.5v-75q25 1 64.5 2.5t43.5 1.5l8 -17l-8 -37h-109v-196q0 -39 2 -93
q2 -31 13 -46t43 -26l-3 -23q-35 3 -90 3q-45 0 -80 -3l-3 23q26 11 34.5 25t10.5 47q3 32 3 97zM596 371q-9 0 -31.5 9t-30.5 9q-37 0 -61.5 -41t-24.5 -110v-47q0 -55 2 -97q2 -33 13.5 -48t42.5 -24l-3 -23q-35 3 -90 3q-45 0 -80 -3l-3 23q26 11 34.5 25t10.5 47
q3 32 3 97v25q0 62 -3 94q-2 30 -11.5 41t-37.5 16v21q65 32 106 70l21 -8q-5 -39 -6 -97l1 -1q20 49 52 76.5t68 27.5q29 0 46.5 -14t17.5 -36q0 -35 -36 -35zM467 529l-97 205l21 13l105 -134l105 134l21 -13l-97 -205q-10 -24 -29 -24t-29 24z" />
    <glyph glyph-name="famacron" unicode="f&#x101;" horiz-adv-x="711" 
d="M380 350l-19 32q16 30 51.5 51t76.5 21q75 0 111 -52q30 -45 30 -108v-96q0 -49 2 -91q3 -50 50 -73l-13 -40q-90 4 -104 78h-2q-38 -86 -116 -86q-47 0 -75.5 26.5t-28.5 68.5q0 59 63 100q55 35 154 61v49q0 45 -21 72q-21 28 -63 28q-43 0 -96 -41zM560 152v55
q-12 -3 -58 -23q-88 -37 -88 -86q0 -23 13 -37t37 -14q36 0 65 28q31 28 31 77zM94 191v148q0 29 -8.5 40t-38.5 18l-4 21q35 12 45 47q6 19 7 23q2 6 5.5 28t4.5 28q41 204 165 204q34 0 59 -20t25 -50q0 -19 -11 -31t-28 -12q-28 0 -41 34q-10 27 -35 27q-34 0 -54 -46.5
t-20 -141.5v-75q25 1 64.5 2.5t43.5 1.5l8 -17l-8 -37h-109v-196q0 -39 2 -93q2 -31 13 -46t43 -26l-3 -23q-35 3 -90 3q-45 0 -80 -3l-3 23q26 11 34.5 25t10.5 47q3 32 3 97zM638 587h-270v54h270v-54z" />
    <glyph glyph-name="femacron" unicode="f&#x113;" horiz-adv-x="746" 
d="M94 191v148q0 29 -8.5 40t-38.5 18l-4 21q35 12 45 47q6 19 7 23q2 6 5.5 28t4.5 28q41 204 165 204q34 0 59 -20t25 -50q0 -19 -11 -31t-28 -12q-28 0 -41 34q-10 27 -35 27q-34 0 -54 -46.5t-20 -141.5v-75q25 1 64.5 2.5t43.5 1.5l8 -17l-8 -37h-109v-196q0 -39 2 -93
q2 -31 13 -46t43 -26l-3 -23q-35 3 -90 3q-45 0 -80 -3l-3 23q26 11 34.5 25t10.5 47q3 32 3 97zM315 212q0 104 63 174t156 70q72 0 120 -48q49 -46 49 -119q0 -13 -2 -23h-308q-2 -16 -2 -38q0 -76 40 -125q41 -48 102 -48q48 0 80.5 18.5t63.5 62.5l24 -15
q-25 -63 -71 -100t-107 -37q-92 0 -150 67t-58 161zM400 306h215q-1 48 -29.5 76.5t-73.5 28.5q-43 0 -73 -29t-39 -76zM665 617h-270v54h270v-54z" />
    <glyph glyph-name="fiogonek" unicode="f&#x12f;" horiz-adv-x="533" 
d="M462 -113l23 -7q-13 -84 -80 -84q-35 0 -58.5 23t-23.5 60q0 67 72 123q-6 0 -33.5 -1.5t-36.5 -1.5l-3 23q26 11 35 25t11 47q2 40 2 100v38q0 54 -2 94q-2 34 -17.5 45.5t-60.5 11.5h-126v-196q0 -39 2 -93q2 -31 13 -46t43 -26l-3 -23q-35 3 -90 3q-45 0 -80 -3l-3 23
q26 11 34.5 25t10.5 47q3 32 3 97v148q0 29 -8.5 40t-38.5 18l-4 21q34 10 43 45q3 8 8 40q3 17 8 41q50 204 206 204q55 0 92 -25t37 -62q0 -21 -12 -33.5t-33 -12.5q-36 0 -59 42q-19 39 -57 39q-112 0 -112 -188v-75h154q63 0 106 25l21 -8q-5 -95 -5 -181v-75
q0 -20 2 -100q1 -32 10 -46.5t36 -25.5l-3 -23q-12 0 -24.5 0.5t-19 1t-9.5 0.5q-59 -53 -59 -102q0 -22 12 -34.5t31 -12.5q32 0 46 35z" />
    <glyph glyph-name="fimacron" unicode="f&#x12b;" horiz-adv-x="583" 
d="M94 191v148q0 29 -8.5 40t-38.5 18l-4 21q35 12 45 47q6 19 7 23q2 6 5.5 28t4.5 28q41 204 165 204q34 0 59 -20t25 -50q0 -19 -11 -31t-28 -12q-28 0 -41 34q-10 27 -35 27q-34 0 -54 -46.5t-20 -141.5v-75q25 1 64.5 2.5t43.5 1.5l8 -17l-8 -37h-109v-196q0 -39 2 -93
q2 -31 13 -46t43 -26l-3 -23q-35 3 -90 3q-45 0 -80 -3l-3 23q26 11 34.5 25t10.5 47q3 32 3 97zM490 269v-75q0 -20 2 -100q1 -32 10 -46.5t36 -25.5l-3 -23q-53 3 -80 3t-80 -3l-3 23q26 11 35 25t11 47q2 40 2 100v22q-2 105 -6 120q-6 20 -33 28q-5 1 -13 3v21
q62 28 106 70l21 -8q-5 -95 -5 -181zM595 557h-270v54h270v-54z" />
    <glyph glyph-name="fomacron" unicode="f&#x14d;" horiz-adv-x="799" 
d="M315 220q0 96 65 166q64 70 157 70q96 0 159 -68q64 -67 64 -168q0 -99 -64 -167q-63 -69 -154 -69q-98 0 -163 68q-64 67 -64 168zM534 410q-61 0 -99 -48t-38 -133q0 -91 40.5 -144t107.5 -53q60 0 96.5 48.5t36.5 133.5q0 87 -41 142q-41 54 -103 54zM671 617h-270v54
h270v-54zM94 191v148q0 29 -8.5 40t-38.5 18l-4 21q35 12 45 47q6 19 7 23q2 6 5.5 28t4.5 28q41 204 165 204q34 0 59 -20t25 -50q0 -19 -11 -31t-28 -12q-28 0 -41 34q-10 27 -35 27q-34 0 -54 -46.5t-20 -141.5v-75q25 1 64.5 2.5t43.5 1.5l8 -17l-8 -37h-109v-196
q0 -39 2 -93q2 -31 13 -46t43 -26l-3 -23q-35 3 -90 3q-45 0 -80 -3l-3 23q26 11 34.5 25t10.5 47q3 32 3 97z" />
    <glyph glyph-name="flcommaaccent" unicode="f&#x13c;" horiz-adv-x="533" 
d="M94 191v148q0 29 -8.5 40t-38.5 18l-4 21q34 10 43 45q3 8 8 40q3 17 8 41q46 204 206 204q48 0 80 -23q26 18 36 27l21 -8q-5 -95 -5 -181v-369q0 -60 2 -100q0 -31 9.5 -46t36.5 -26l-3 -23q-53 3 -80 3t-80 -3l-3 23q26 11 35 25t11 47q2 40 2 100v316q0 53 -2 93
q-6 93 -92 93q-112 0 -112 -188v-75q20 0 40 1l40 2t29 1l8 -17l-8 -37h-109v-196q0 -39 2 -93q2 -31 13 -46t43 -26l-3 -23q-35 3 -90 3q-45 0 -80 -3l-3 23q26 11 34.5 25t10.5 47q3 32 3 97zM465 -151q0 -49 -27.5 -78.5t-86.5 -45.5l-8 25q75 28 75 67q0 26 -28 41
q-35 20 -35 46q0 15 11 25.5t28 10.5q28 0 49.5 -26.5t21.5 -64.5z" />
    <glyph glyph-name="fumacron" unicode="f&#x16b;" horiz-adv-x="798" 
d="M700 257v-43q0 -58 3 -90q2 -30 11.5 -41t37.5 -16v-21q-47 -21 -94 -62l-21 5l-3 92l-1 1q-19 -44 -55.5 -71t-79.5 -27q-77 0 -113 59q-20 35 -20 91v109q0 63 -3 94q-3 30 -13.5 46t-34.5 27l3 22q70 1 125 5q-7 -148 -7 -180v-114q0 -46 21 -70t58 -24
q53 0 84.5 34.5t31.5 89.5v70q0 63 -3 94q-2 30 -12.5 45.5t-35.5 27.5l3 22q70 1 125 5q-7 -148 -7 -180zM94 191v148q0 29 -8.5 40t-38.5 18l-4 21q35 12 45 47q6 19 7 23q2 6 5.5 28t4.5 28q41 204 165 204q34 0 59 -20t25 -50q0 -19 -11 -31t-28 -12q-28 0 -41 34
q-10 27 -35 27q-34 0 -54 -46.5t-20 -141.5v-75q25 1 64.5 2.5t43.5 1.5l8 -17l-8 -37h-109v-196q0 -39 2 -93q2 -31 13 -46t43 -26l-3 -23q-35 3 -90 3q-45 0 -80 -3l-3 23q26 11 34.5 25t10.5 47q3 32 3 97zM671 617h-270v54h270v-54z" />
    <glyph glyph-name="fgbreve" unicode="f&#x11f;" horiz-adv-x="736" 
d="M742 420l-8 -37h-94q33 -37 33 -98q0 -72 -47 -121q-47 -47 -113 -47q-63 0 -107 37q-38 -29 -38 -70q0 -47 68 -50l121 -4q69 -2 106.5 -39t37.5 -97q0 -70 -64 -119q-64 -50 -164 -50q-81 0 -125.5 32t-44.5 86q0 67 80 123q-72 26 -72 95q0 65 69 118q-34 46 -34 106
q0 69 48 119q48 49 115 49q31 0 65 -10q36 -10 65 -10q54 0 95 4zM646 -123q0 77 -107 77q-81 0 -122 3q-49 -46 -49 -97q0 -36 31 -57.5t90 -21.5q77 0 117 27t40 69zM507 413q-39 0 -61.5 -31t-22.5 -91q0 -65 23.5 -99.5t66.5 -34.5q84 0 84 123q0 62 -24.5 97.5
t-65.5 35.5zM94 191v148q0 29 -8.5 40t-38.5 18l-4 21q35 12 45 47q6 19 7 23q2 6 5.5 28t4.5 28q41 204 165 204q34 0 59 -20t25 -50q0 -19 -11 -31t-28 -12q-28 0 -41 34q-10 27 -35 27q-34 0 -54 -46.5t-20 -141.5v-75q25 1 64.5 2.5t43.5 1.5l8 -17l-8 -37h-109v-196
q0 -39 2 -93q2 -31 13 -46t43 -26l-3 -23q-35 3 -90 3q-45 0 -80 -3l-3 23q26 11 34.5 25t10.5 47q3 32 3 97zM389 740l24 2q17 -78 41 -112.5t61 -34.5t61 34.5t41 112.5l24 -2q-3 -106 -36.5 -160.5t-89.5 -54.5t-89.5 54.5t-36.5 160.5z" />
    <glyph glyph-name="febreve" unicode="f&#x115;" horiz-adv-x="746" 
d="M315 212q0 104 63 174t156 70q72 0 120 -48q49 -46 49 -119q0 -13 -2 -23h-308q-2 -16 -2 -38q0 -76 40 -125q41 -48 102 -48q48 0 80.5 18.5t63.5 62.5l24 -15q-25 -63 -71 -100t-107 -37q-92 0 -150 67t-58 161zM400 306h215q-1 48 -29.5 76.5t-73.5 28.5
q-43 0 -73 -29t-39 -76zM397 740l24 2q17 -78 41 -112.5t61 -34.5t61 34.5t41 112.5l24 -2q-3 -106 -36.5 -160.5t-89.5 -54.5t-89.5 54.5t-36.5 160.5zM94 191v148q0 29 -8.5 40t-38.5 18l-4 21q35 12 45 47q6 19 7 23q2 6 5.5 28t4.5 28q41 204 165 204q34 0 59 -20
t25 -50q0 -19 -11 -31t-28 -12q-28 0 -41 34q-10 27 -35 27q-34 0 -54 -46.5t-20 -141.5v-75q25 1 64.5 2.5t43.5 1.5l8 -17l-8 -37h-109v-196q0 -39 2 -93q2 -31 13 -46t43 -26l-3 -23q-35 3 -90 3q-45 0 -80 -3l-3 23q26 11 34.5 25t10.5 47q3 32 3 97z" />
    <glyph glyph-name="fhcircumflex" unicode="f&#x125;" horiz-adv-x="799" 
d="M94 191v148q0 29 -8.5 40t-38.5 18l-4 21q34 10 43 45q3 8 8 40q3 17 8 41q46 204 206 204q48 0 80 -23q26 18 36 27l21 -8q-5 -95 -5 -181l-1 -197l1 -1q22 41 57.5 66t76.5 25q76 0 114 -62q21 -36 21 -88v-115q0 -57 2 -97q0 -31 9.5 -46t36.5 -26l-3 -23q-52 3 -80 3
t-80 -3l-3 23q26 11 35 25t11 47q2 40 2 97v106q0 42 -23.5 68t-63.5 26q-51 0 -81.5 -31t-30.5 -80v-89q0 -57 2 -97q0 -31 9.5 -46t36.5 -26l-3 -23q-53 3 -80 3t-80 -3l-3 23q26 11 35 25t11 47q2 40 2 97v319q0 53 -2 93q-6 93 -92 93q-111 0 -111 -188v-75
q25 1 64.5 2.5t43.5 1.5l8 -17l-8 -37h-109v-196q0 -39 2 -93q2 -31 13 -46t43 -26l-3 -23q-35 3 -90 3q-45 0 -80 -3l-3 23q26 11 34.5 25t10.5 47q3 32 3 97zM259 770l-14 21l121 101q22 18 39 18t39 -19l121 -100l-14 -21l-146 59z" />
    <glyph glyph-name="fhbar" unicode="f&#x127;" horiz-adv-x="799" 
d="M273 383h-109v-196q0 -39 2 -93q2 -31 13 -46t43 -26l-3 -23q-35 3 -90 3q-45 0 -80 -3l-3 23q26 11 34.5 25t10.5 47q3 32 3 97v148q0 29 -8.5 40t-38.5 18l-4 21q34 10 43 45q3 8 8 40q3 17 8 41q46 204 206 204q48 0 80 -23q26 18 36 27l21 -8q-5 -88 -5 -166h168v-48
h-169v-164l1 -1q22 41 57.5 66t76.5 25q76 0 114 -62q21 -36 21 -88v-115q0 -57 2 -97q2 -33 11 -47t35 -25l-3 -23q-52 3 -80 3t-80 -3l-3 23q26 11 35 25t11 47q2 40 2 97v106q0 42 -23.5 68t-63.5 26q-51 0 -81.5 -31t-30.5 -80v-89q0 -57 2 -97q2 -33 11 -47t35 -25
l-3 -23q-53 3 -80 3t-80 -3l-3 23q26 11 35 25t11 47q2 40 2 97v339h-52v48h51q0 20 -1 25q-9 93 -92 93q-111 0 -111 -188v-75q25 1 64.5 2.5t43.5 1.5l8 -17z" />
    <glyph glyph-name="fitilde" unicode="f&#x129;" horiz-adv-x="587" 
d="M94 191v148q0 29 -8.5 40t-38.5 18l-4 21q35 12 45 47q6 19 7 23q2 6 5.5 28t4.5 28q41 204 165 204q34 0 59 -20t25 -50q0 -19 -11 -31t-28 -12q-28 0 -41 34q-10 27 -35 27q-34 0 -54 -46.5t-20 -141.5v-75q25 1 64.5 2.5t43.5 1.5l8 -17l-8 -37h-109v-196q0 -39 2 -93
q2 -31 13 -46t43 -26l-3 -23q-35 3 -90 3q-45 0 -80 -3l-3 23q26 11 34.5 25t10.5 47q3 32 3 97zM494 269v-75q0 -20 2 -100q1 -32 10 -46.5t36 -25.5l-3 -23q-53 3 -80 3t-80 -3l-3 23q26 11 35 25t11 47q2 40 2 100v22q-2 105 -6 120q-6 20 -33 28q-5 1 -13 3v21
q62 28 106 70l21 -8q-5 -95 -5 -181zM473 618q42 -19 60 -19q32 0 63 25l17 -18q-44 -68 -98 -68q-27 0 -60 15q-42 19 -60 19q-32 0 -63 -25l-18 18q44 68 99 68q27 0 60 -15z" />
    <glyph glyph-name="fibreve" unicode="f&#x12d;" horiz-adv-x="533" 
d="M290 383h-126v-196q0 -39 2 -93q2 -31 13 -46t43 -26l-3 -23q-35 3 -90 3q-45 0 -80 -3l-3 23q26 11 34.5 25t10.5 47q3 32 3 97v148q0 29 -8.5 40t-38.5 18l-4 21q35 12 45 47q6 19 7 23q2 6 5.5 28t4.5 28q20 99 65 151.5t107 52.5q36 0 63 -20.5t27 -49.5
q0 -31 -25 -41q26 -42 67 -42q37 0 61 34.5t41 112.5l24 -2q-3 -106 -36.5 -160.5t-89.5 -54.5q-87 0 -119 131q-10 40 -44 40q-37 0 -59 -46t-22 -142v-75l153 2q70 2 106 23l21 -8q-5 -95 -5 -181v-75q0 -60 2 -100q2 -33 11 -47t35 -25l-3 -23q-53 3 -80 3t-80 -3l-3 23
q26 11 35 25t11 47q2 40 2 100v38q0 54 -2 94q-2 34 -17.5 45.5t-60.5 11.5z" />
    <glyph glyph-name="fij" unicode="f&#x133;" horiz-adv-x="781" 
d="M94 191v148q0 29 -8.5 40t-38.5 18l-4 21q34 10 43 45q3 8 8 40q3 17 8 41q50 204 206 204q55 0 92 -25t37 -62q0 -21 -12 -33.5t-33 -12.5q-36 0 -59 42q-19 39 -57 39q-112 0 -112 -188v-75h154q63 0 106 25l21 -8q-5 -95 -5 -181v-75q0 -20 2 -100q1 -32 10 -46.5
t36 -25.5l-3 -23q-53 3 -80 3t-80 -3l-3 23q26 11 35 25t11 47q2 40 2 100v38q0 54 -2 94q-2 34 -17.5 45.5t-60.5 11.5h-126v-196q0 -39 2 -93q2 -31 13 -46t43 -26l-3 -23q-35 3 -90 3q-45 0 -80 -3l-3 23q26 11 34.5 25t10.5 47q3 32 3 97zM696 269v-253q0 -79 1 -100
q-6 -54 -37 -102t-79 -78l-17 18q35 45 49 93q13 45 13 122v247q0 62 -3 94q-2 30 -11.5 41t-37.5 16v21q65 32 106 70l21 -8q-5 -95 -5 -181zM621 638q-16 16 -16 40t16 40t40 16t40 -16t16 -40t-16 -40t-40 -16t-40 16z" />
    <glyph glyph-name="fjcircumflex" unicode="f&#x135;" horiz-adv-x="556" 
d="M94 191v148q0 29 -8.5 40t-38.5 18l-4 21q35 12 45 47q6 19 7 23q2 6 5.5 28t4.5 28q41 204 165 204q34 0 59 -20t25 -50q0 -19 -11 -31t-28 -12q-28 0 -41 34q-10 27 -35 27q-34 0 -54 -46.5t-20 -141.5v-75q25 1 64.5 2.5t43.5 1.5l8 -17l-8 -37h-109v-196q0 -39 2 -93
q2 -31 13 -46t43 -26l-3 -23q-35 3 -90 3q-45 0 -80 -3l-3 23q26 11 34.5 25t10.5 47q3 32 3 97zM471 269v-253q0 -80 1 -100q-6 -54 -37 -102t-79 -78l-17 18q35 45 49 93q13 45 13 122v247q-2 105 -6 120q-6 20 -33 28q-5 1 -13 3v21q62 28 106 70l21 -8q-5 -95 -5 -181z
M332 505l-21 13l97 205q10 24 29 24t29 -24l97 -205l-21 -13l-105 134z" />
    <glyph glyph-name="fldot" unicode="f&#x140;" horiz-adv-x="646" 
d="M94 191v148q0 29 -8.5 40t-38.5 18l-4 21q34 10 43 45q3 8 8 40q3 17 8 41q46 204 206 204q48 0 80 -23q26 18 36 27l21 -8q-5 -95 -5 -181v-369q0 -60 2 -100q0 -31 9.5 -46t36.5 -26l-3 -23q-53 3 -80 3t-80 -3l-3 23q26 11 35 25t11 47q2 40 2 100v316q0 53 -2 93
q-6 93 -92 93q-112 0 -112 -188v-75q20 0 40 1l40 2t29 1l8 -17l-8 -37h-109v-196q0 -39 2 -93q2 -31 13 -46t43 -26l-3 -23q-35 3 -90 3q-45 0 -80 -3l-3 23q26 11 34.5 25t10.5 47q3 32 3 97zM550 194q-16 16 -16 40t16 40t40 16t40 -16t16 -40t-16 -40t-40 -16t-40 16z
" />
    <glyph glyph-name="fnapostrophe" unicode="f&#x149;" horiz-adv-x="807" 
d="M717 306v-115q0 -55 2 -97q2 -33 11 -47t35 -25l-3 -23q-80 7 -160 0l-3 23q26 11 34.5 25t10.5 47q3 32 3 97v106q0 42 -23.5 68t-63.5 26q-51 0 -81.5 -31t-30.5 -80v-89q0 -55 2 -97q2 -33 11 -47t35 -25l-3 -23q-80 7 -160 0l-3 23q26 11 34.5 25t10.5 47q3 32 3 97
v25q0 62 -3 94q-2 30 -11.5 41t-37.5 16v21q65 32 106 70l21 -8q-5 -50 -6 -84l1 -1q48 91 134 91q76 0 114 -62q21 -38 21 -88zM94 191v148q0 29 -8.5 40t-38.5 18l-4 21q35 12 45 47q6 19 7 23q2 6 5.5 28t4.5 28q41 204 165 204q34 0 59 -20t25 -50q0 -19 -11 -31
t-28 -12q-28 0 -41 34q-10 27 -35 27q-34 0 -54 -46.5t-20 -141.5v-75q25 1 64.5 2.5t43.5 1.5l8 -17l-8 -37h-109v-196q0 -39 2 -93q2 -31 13 -46t43 -26l-3 -23q-35 3 -90 3q-45 0 -80 -3l-3 23q26 11 34.5 25t10.5 47q3 32 3 97zM502 661q0 -49 -27.5 -78.5t-86.5 -45.5
l-8 25q75 28 75 67q0 26 -28 41q-35 20 -35 46q0 15 11 25.5t28 10.5q28 0 49.5 -26.5t21.5 -64.5z" />
    <glyph glyph-name="fobreve" unicode="f&#x14f;" horiz-adv-x="799" 
d="M315 220q0 96 65 166q64 70 157 70q96 0 159 -68q64 -67 64 -168q0 -99 -64 -167q-63 -69 -154 -69q-98 0 -163 68q-64 67 -64 168zM534 410q-61 0 -99 -48t-38 -133q0 -91 40.5 -144t107.5 -53q60 0 96.5 48.5t36.5 133.5q0 87 -41 142q-41 54 -103 54zM410 740l24 2
q17 -78 41 -112.5t61 -34.5t61 34.5t41 112.5l24 -2q-3 -106 -36.5 -160.5t-89.5 -54.5t-89.5 54.5t-36.5 160.5zM94 191v148q0 29 -8.5 40t-38.5 18l-4 21q35 12 45 47q6 19 7 23q2 6 5.5 28t4.5 28q41 204 165 204q34 0 59 -20t25 -50q0 -19 -11 -31t-28 -12q-28 0 -41 34
q-10 27 -35 27q-34 0 -54 -46.5t-20 -141.5v-75q25 1 64.5 2.5t43.5 1.5l8 -17l-8 -37h-109v-196q0 -39 2 -93q2 -31 13 -46t43 -26l-3 -23q-35 3 -90 3q-45 0 -80 -3l-3 23q26 11 34.5 25t10.5 47q3 32 3 97z" />
    <glyph glyph-name="fscircumflex" unicode="f&#x15d;" horiz-adv-x="614" 
d="M305 73q0 18 10 29t27 11q32 0 43 -39q13 -48 60 -48q72 0 72 67q0 31 -19.5 53t-68.5 47q-110 56 -110 136q0 53 38 89q38 37 93 37q52 0 90 -29q26 -21 26 -49q0 -16 -9.5 -26t-25.5 -10q-27 0 -42 34q-17 38 -54 38q-25 0 -41.5 -16t-16.5 -41q0 -30 21 -53.5
t73 -49.5q58 -28 83.5 -60.5t25.5 -80.5q0 -57 -39.5 -92.5t-99.5 -35.5q-68 0 -106 32q-30 26 -30 57zM349 505l-21 13l97 205q10 24 29 24t29 -24l97 -205l-21 -13l-105 134zM94 191v148q0 29 -8.5 40t-38.5 18l-4 21q35 12 45 47q6 19 7 23q2 6 5.5 28t4.5 28
q41 204 165 204q34 0 59 -20t25 -50q0 -19 -11 -31t-28 -12q-28 0 -41 34q-10 27 -35 27q-34 0 -54 -46.5t-20 -141.5v-75q25 1 64.5 2.5t43.5 1.5l8 -17l-8 -37h-109v-196q0 -39 2 -93q2 -31 13 -46t43 -26l-3 -23q-35 3 -90 3q-45 0 -80 -3l-3 23q26 11 34.5 25t10.5 47
q3 32 3 97z" />
    <glyph glyph-name="fubreve" unicode="f&#x16d;" horiz-adv-x="798" 
d="M700 257v-43q0 -58 3 -90q2 -30 11.5 -41t37.5 -16v-21q-47 -21 -94 -62l-21 5l-3 92l-1 1q-19 -44 -55.5 -71t-79.5 -27q-77 0 -113 59q-20 35 -20 91v109q0 63 -3 94q-3 30 -13.5 46t-34.5 27l3 22q70 1 125 5q-7 -148 -7 -180v-114q0 -46 21 -70t58 -24
q53 0 84.5 34.5t31.5 89.5v70q0 63 -3 94q-2 30 -12.5 45.5t-35.5 27.5l3 22q70 1 125 5q-7 -148 -7 -180zM405 740l24 2q17 -78 41 -112.5t61 -34.5t61 34.5t41 112.5l24 -2q-3 -106 -36.5 -160.5t-89.5 -54.5t-89.5 54.5t-36.5 160.5zM94 191v148q0 29 -8.5 40t-38.5 18
l-4 21q35 12 45 47q6 19 7 23q2 6 5.5 28t4.5 28q41 204 165 204q34 0 59 -20t25 -50q0 -19 -11 -31t-28 -12q-28 0 -41 34q-10 27 -35 27q-34 0 -54 -46.5t-20 -141.5v-75q25 1 64.5 2.5t43.5 1.5l8 -17l-8 -37h-109v-196q0 -39 2 -93q2 -31 13 -46t43 -26l-3 -23
q-35 3 -90 3q-45 0 -80 -3l-3 23q26 11 34.5 25t10.5 47q3 32 3 97z" />
    <glyph glyph-name="fflslash" unicode="ff&#x142;" horiz-adv-x="826" 
d="M94 191v148q0 29 -8.5 40t-38.5 18l-4 21q29 7 40 34q7 17 8 25q2 9 6.5 36t5.5 31q19 94 67.5 149t115.5 55q41 0 66.5 -18.5t25.5 -46.5q0 -17 -10 -27.5t-25 -10.5q-23 0 -44 27q-19 24 -44 24q-91 0 -91 -188v-75h142q35 0 44 18q8 12 9 19q2 4 7 34l8 40
q21 96 75.5 150t134.5 54q52 0 84 -23q26 18 36 27l21 -8q-5 -95 -5 -181v-192l93 55l23 -39l-116 -68v-125q0 -60 2 -100q2 -33 11 -47t35 -25l-3 -23q-53 3 -80 3t-80 -3l-3 23q26 11 35 25t11 47q2 40 2 100v84l-87 -51l-22 39l109 64v180q0 53 -2 93q-6 93 -96 93
q-116 0 -116 -188v-75q20 0 40 1l40 2t29 1l8 -17l-8 -37h-109v-196q0 -39 2 -93q2 -31 13 -46t43 -26l-3 -23q-35 3 -90 3q-45 0 -80 -3l-3 23q26 11 34.5 25t10.5 47q3 32 3 97v107q0 58 -10 71q-9 14 -49 14h-143v-196q0 -39 2 -93q2 -31 13 -46t43 -26l-3 -23
q-35 3 -90 3q-45 0 -80 -3l-3 23q26 11 34.5 25t10.5 47q3 32 3 97z" />
    <glyph glyph-name="ffthorn" unicode="ff&#xfe;" horiz-adv-x="1077" 
d="M835 28q58 0 92.5 43t34.5 122q0 91 -39 144t-98 53q-51 0 -82 -30.5t-31 -79.5v-118q0 -63 33.5 -98.5t89.5 -35.5zM366 191v107q0 58 -10 71q-9 14 -49 14h-143v-196q0 -39 2 -93q2 -31 13 -46t43 -26l-3 -23q-35 3 -90 3q-45 0 -80 -3l-3 23q26 11 34.5 25t10.5 47
q3 32 3 97v148q0 29 -8.5 40t-38.5 18l-4 21q29 7 40 34q7 17 8 25q2 9 6.5 36t5.5 31q19 94 67.5 149t115.5 55q41 0 66.5 -18.5t25.5 -46.5q0 -17 -10 -27.5t-25 -10.5q-23 0 -44 27q-19 24 -44 24q-90 0 -90 -188v-75h141q40 0 50 28q1 3 2 6.5t2 5.5t2 4.5t1 4.5
q2 6 6 31t6 33q43 202 205 202q48 0 80 -23q26 18 36 27l21 -8q-5 -95 -5 -181l-1 -197l1 -1q21 40 58 65.5t77 25.5q77 0 132 -64q56 -65 56 -168q0 -106 -60 -173t-143 -67q-76 0 -120 36q0 -151 2 -189q2 -31 13 -46t43 -26l-3 -23q-53 3 -90 3q-27 0 -80 -3l-3 23
q26 11 35 25t11 47q2 40 2 97v582q0 53 -2 93q-6 93 -92 93q-111 0 -111 -188v-75q25 1 64.5 2.5t43.5 1.5l8 -17l-8 -37h-109v-196q0 -39 2 -93q2 -31 13 -46t43 -26l-3 -23q-35 3 -90 3q-45 0 -80 -3l-3 23q26 11 34.5 25t10.5 47q3 32 3 97z" />
    <glyph glyph-name="ffb" unicode="ffb" horiz-adv-x="1074" 
d="M815 30q66 0 104 50t38 132q0 81 -35 130q-34 48 -92 48q-56 0 -87 -34t-31 -91v-128q0 -107 103 -107zM366 191v107q0 58 -10 71q-9 14 -49 14h-143v-196q0 -39 2 -93q2 -31 13 -46t43 -26l-3 -23q-35 3 -90 3q-45 0 -80 -3l-3 23q26 11 34.5 25t10.5 47q3 32 3 97v148
q0 29 -8.5 40t-38.5 18l-4 21q29 7 40 34q7 17 8 25q2 9 6.5 36t5.5 31q19 94 67.5 149t115.5 55q41 0 66.5 -18.5t25.5 -46.5q0 -17 -10 -27.5t-25 -10.5q-23 0 -44 27q-19 24 -44 24q-90 0 -90 -188v-75h141q34 5 42 13q5 5 9 14l6 20l6 30l7 34q44 204 204 204
q48 0 80 -23q26 18 36 27l21 -8q-5 -95 -5 -181v-201l1 -1q21 43 58 69t81 26q77 0 128 -61q52 -61 52 -156q0 -111 -66 -183q-64 -72 -158 -72q-108 0 -166 40v486q0 53 -2 93q-6 93 -92 93q-111 0 -111 -188v-75q25 1 64.5 2.5t43.5 1.5l8 -17l-8 -37h-109v-196
q0 -39 2 -93q2 -31 13 -46t43 -26l-3 -23q-35 3 -90 3q-45 0 -80 -3l-3 23q26 11 34.5 25t10.5 47q3 32 3 97z" />
    <glyph glyph-name="ffh" unicode="ffh" horiz-adv-x="1071" 
d="M545 383h-109v-196q0 -39 2 -93q2 -31 13 -46t43 -26l-3 -23q-35 3 -90 3q-45 0 -80 -3l-3 23q26 11 34.5 25t10.5 47q3 32 3 97v107q0 58 -10 71q-9 14 -49 14h-143v-196q0 -39 2 -93q2 -31 13 -46t43 -26l-3 -23q-35 3 -90 3q-45 0 -80 -3l-3 23q26 11 34.5 25t10.5 47
q3 32 3 97v148q0 29 -8.5 40t-38.5 18l-4 21q29 7 40 34q7 17 8 25q2 9 6.5 36t5.5 31q19 94 67.5 149t115.5 55q41 0 66.5 -18.5t25.5 -46.5q0 -17 -10 -27.5t-25 -10.5q-23 0 -44 27q-19 24 -44 24q-91 0 -91 -188v-75h142q17 2 24.5 3.5t14.5 7t11 16.5q1 3 3.5 10
t3.5 10q1 5 5.5 30.5t6.5 33.5q43 204 205 204q48 0 80 -23q26 18 36 27l21 -8q-5 -95 -5 -181l-1 -197l1 -1q22 41 57.5 66t76.5 25q76 0 114 -62q21 -36 21 -88v-115q0 -57 2 -97q2 -33 11 -47t35 -25l-3 -23q-52 3 -80 3t-80 -3l-3 23q26 11 35 25t11 47q2 40 2 97v106
q0 42 -23.5 68t-63.5 26q-51 0 -81.5 -31t-30.5 -80v-89q0 -57 2 -97q2 -33 11 -47t35 -25l-3 -23q-53 3 -80 3t-80 -3l-3 23q26 11 35 25t11 47q2 40 2 97v319q0 53 -2 93q-6 93 -92 93q-112 0 -112 -188v-75q20 0 40 1l40 2t29 1l8 -17z" />
    <glyph glyph-name="ffj" unicode="ffj" horiz-adv-x="797" 
d="M366 191v107q0 58 -10 71q-9 14 -49 14h-143v-196q0 -39 2 -93q2 -31 13 -46t43 -26l-3 -23q-35 3 -90 3q-45 0 -80 -3l-3 23q26 11 34.5 25t10.5 47q3 32 3 97v148q0 29 -8.5 40t-38.5 18l-4 21q29 7 40 34q7 17 8 25q2 9 6.5 36t5.5 31q19 94 67.5 149t115.5 55
q41 0 66.5 -18.5t25.5 -46.5q0 -17 -10 -27.5t-25 -10.5q-23 0 -44 27q-19 24 -44 24q-91 0 -91 -188v-75h142q17 2 24.5 3.5t14.5 7t11 16.5t6 20q2 6 6.5 30.5t6.5 32.5q43 205 205 205q55 0 92 -25t37 -62q0 -21 -12 -33.5t-33 -12.5q-36 0 -59 42q-19 39 -57 39
q-112 0 -112 -188v-75h154q63 0 106 25l21 -8q-5 -95 -5 -181v-253q0 -80 1 -100q-6 -54 -37 -102t-79 -78l-17 18q35 45 49 93q13 45 13 122v263q0 54 -2 94q-2 34 -17.5 45.5t-60.5 11.5h-126v-196q0 -39 2 -93q2 -31 13 -46t43 -26l-3 -23q-35 3 -90 3q-45 0 -80 -3
l-3 23q26 11 34.5 25t10.5 47q3 32 3 97z" />
    <glyph glyph-name="ffk" unicode="ffk" horiz-adv-x="1003" 
d="M776 164l-51 78l31 28q60 55 79 76q19 22 19 35q0 16 -28 29l4 23q28 -3 69 -3q31 0 74 3l3 -23q-36 -21 -86 -70l-93 -87q76 -111 128 -172q37 -45 80 -62v-21q-18 -7 -34 -7q-57 0 -106 57q-27 32 -51 63q-4 5 -18 24.5t-20 28.5zM366 191v107q0 58 -10 71
q-9 14 -49 14h-143v-196q0 -39 2 -93q2 -31 13 -46t43 -26l-3 -23q-35 3 -90 3q-45 0 -80 -3l-3 23q26 11 34.5 25t10.5 47q3 32 3 97v148q0 29 -8.5 40t-38.5 18l-4 21q29 7 40 34q7 17 8 25q2 9 6.5 36t5.5 31q19 94 67.5 149t115.5 55q41 0 66.5 -18.5t25.5 -46.5
q0 -17 -10 -27.5t-25 -10.5q-23 0 -44 27q-19 24 -44 24q-91 0 -91 -188v-75h142q17 2 24.5 3.5t14.5 7t11 16.5q1 3 3.5 10t3.5 10q1 5 5.5 30.5t6.5 33.5q43 204 205 204q48 0 80 -23q26 18 36 27l21 -8q-5 -95 -5 -181v-369q0 -60 2 -100q2 -33 11 -47t35 -25l-3 -23
q-53 3 -80 3t-80 -3l-3 23q26 11 35 25t11 47q2 40 2 100v316q0 53 -2 93q-6 93 -92 93q-112 0 -112 -188v-75q20 0 40 1l40 2t29 1l8 -17l-8 -37h-109v-196q0 -39 2 -93q2 -31 13 -46t43 -26l-3 -23q-35 3 -90 3q-45 0 -80 -3l-3 23q26 11 34.5 25t10.5 47q3 32 3 97z" />
    <glyph glyph-name="ffagrave" unicode="ff&#xe0;" horiz-adv-x="953" 
d="M366 191v107q0 58 -10 71q-9 14 -49 14h-143v-196q0 -39 2 -93q2 -31 13 -46t43 -26l-3 -23q-35 3 -90 3q-45 0 -80 -3l-3 23q26 11 34.5 25t10.5 47q3 32 3 97v148q0 29 -8.5 40t-38.5 18l-4 21q29 7 40 34q7 17 8 25q2 9 6.5 36t5.5 31q19 94 67.5 149t115.5 55
q41 0 66.5 -18.5t25.5 -46.5q0 -17 -10 -27.5t-25 -10.5q-23 0 -44 27q-19 24 -44 24q-91 0 -91 -188v-75h142q37 0 51 26q7 13 10 34q2 5 5.5 25.5t4.5 25.5q41 204 165 204q34 0 59 -20t25 -50q0 -19 -11 -31t-28 -12q-28 0 -41 34q-10 27 -35 27q-34 0 -54.5 -46.5
t-20.5 -141.5v-75q20 0 40 1l40 2t29 1l8 -17l-8 -37h-109v-196q0 -39 2 -93q2 -31 13 -46t43 -26l-3 -23q-35 3 -90 3q-45 0 -80 -3l-3 23q26 11 34.5 25t10.5 47q3 32 3 97zM622 350l-19 32q16 30 51.5 51t76.5 21q75 0 111 -52q30 -45 30 -108v-96q0 -49 2 -91
q3 -50 50 -73l-13 -40q-90 4 -104 78h-2q-38 -86 -116 -86q-47 0 -75.5 26.5t-28.5 68.5q0 59 63 100q55 35 154 61v49q0 45 -21 72q-21 28 -63 28q-43 0 -96 -41zM802 152v55q-12 -3 -58 -23q-88 -37 -88 -86q0 -23 13 -37t37 -14q36 0 65 28q31 28 31 77zM747 694l46 -191
l-23 -10l-96 169q-15 26 -15 44t10.5 29.5t27.5 11.5q36 0 50 -53z" />
    <glyph glyph-name="ffacircumflex" unicode="ff&#xe2;" horiz-adv-x="953" 
d="M366 191v107q0 58 -10 71q-9 14 -49 14h-143v-196q0 -39 2 -93q2 -31 13 -46t43 -26l-3 -23q-35 3 -90 3q-45 0 -80 -3l-3 23q26 11 34.5 25t10.5 47q3 32 3 97v148q0 29 -8.5 40t-38.5 18l-4 21q29 7 40 34q7 17 8 25q2 9 6.5 36t5.5 31q19 94 67.5 149t115.5 55
q41 0 66.5 -18.5t25.5 -46.5q0 -17 -10 -27.5t-25 -10.5q-23 0 -44 27q-19 24 -44 24q-91 0 -91 -188v-75h142q37 0 51 26q7 13 10 34q2 5 5.5 25.5t4.5 25.5q41 204 165 204q34 0 59 -20t25 -50q0 -19 -11 -31t-28 -12q-28 0 -41 34q-10 27 -35 27q-34 0 -54.5 -46.5
t-20.5 -141.5v-75q20 0 40 1l40 2t29 1l8 -17l-8 -37h-109v-196q0 -39 2 -93q2 -31 13 -46t43 -26l-3 -23q-35 3 -90 3q-45 0 -80 -3l-3 23q26 11 34.5 25t10.5 47q3 32 3 97zM622 350l-19 32q16 30 51.5 51t76.5 21q75 0 111 -52q30 -45 30 -108v-96q0 -49 2 -91
q3 -50 50 -73l-13 -40q-90 4 -104 78h-2q-38 -86 -116 -86q-47 0 -75.5 26.5t-28.5 68.5q0 59 63 100q55 35 154 61v49q0 45 -21 72q-21 28 -63 28q-43 0 -96 -41zM802 152v55q-12 -3 -58 -23q-88 -37 -88 -86q0 -23 13 -37t37 -14q36 0 65 28q31 28 31 77zM641 505l-21 13
l97 205q10 24 29 24t29 -24l97 -205l-21 -13l-105 134z" />
    <glyph glyph-name="ffatilde" unicode="ff&#xe3;" horiz-adv-x="973" 
d="M366 191v107q0 58 -10 71q-9 14 -49 14h-143v-196q0 -39 2 -93q2 -31 13 -46t43 -26l-3 -23q-35 3 -90 3q-45 0 -80 -3l-3 23q26 11 34.5 25t10.5 47q3 32 3 97v148q0 29 -8.5 40t-38.5 18l-4 21q29 7 40 34q7 17 8 25q2 9 6.5 36t5.5 31q19 94 67.5 149t115.5 55
q41 0 66.5 -18.5t25.5 -46.5q0 -17 -10 -27.5t-25 -10.5q-23 0 -44 27q-19 24 -44 24q-91 0 -91 -188v-75h142q37 0 51 26q7 13 10 34q2 5 5.5 25.5t4.5 25.5q41 204 165 204q34 0 59 -20t25 -50q0 -19 -11 -31t-28 -12q-28 0 -41 34q-10 27 -35 27q-34 0 -54.5 -46.5
t-20.5 -141.5v-75q20 0 40 1l40 2t29 1l8 -17l-8 -37h-109v-196q0 -39 2 -93q2 -31 13 -46t43 -26l-3 -23q-35 3 -90 3q-45 0 -80 -3l-3 23q26 11 34.5 25t10.5 47q3 32 3 97zM642 350l-19 32q16 30 51.5 51t76.5 21q75 0 111 -52q30 -45 30 -108v-96q0 -49 2 -91
q3 -50 50 -73l-13 -40q-90 4 -104 78h-2q-38 -86 -116 -86q-47 0 -75.5 26.5t-28.5 68.5q0 59 63 100q55 35 154 61v49q0 45 -21 72q-21 28 -63 28q-43 0 -96 -41zM822 152v55q-12 -3 -58 -23q-88 -37 -88 -86q0 -23 13 -37t37 -14q36 0 65 28q31 28 31 77zM784 648
q42 -19 60 -19q32 0 63 25l17 -18q-44 -68 -98 -68q-27 0 -60 15q-42 19 -60 19q-32 0 -63 -25l-18 18q44 68 99 68q27 0 60 -15z" />
    <glyph glyph-name="ffaring" unicode="ff&#xe5;" horiz-adv-x="963" 
d="M366 191v107q0 58 -10 71q-9 14 -49 14h-143v-196q0 -39 2 -93q2 -31 13 -46t43 -26l-3 -23q-35 3 -90 3q-45 0 -80 -3l-3 23q26 11 34.5 25t10.5 47q3 32 3 97v148q0 29 -8.5 40t-38.5 18l-4 21q29 7 40 34q7 17 8 25q2 9 6.5 36t5.5 31q19 94 67.5 149t115.5 55
q41 0 66.5 -18.5t25.5 -46.5q0 -17 -10 -27.5t-25 -10.5q-23 0 -44 27q-19 24 -44 24q-91 0 -91 -188v-75h142q37 0 51 26q7 13 10 34q2 5 5.5 25.5t4.5 25.5q41 204 165 204q34 0 59 -20t25 -50q0 -19 -11 -31t-28 -12q-28 0 -41 34q-10 27 -35 27q-34 0 -54.5 -46.5
t-20.5 -141.5v-75q20 0 40 1l40 2t29 1l8 -17l-8 -37h-109v-196q0 -39 2 -93q2 -31 13 -46t43 -26l-3 -23q-35 3 -90 3q-45 0 -80 -3l-3 23q26 11 34.5 25t10.5 47q3 32 3 97zM632 350l-19 32q16 30 51.5 51t76.5 21q75 0 111 -52q30 -45 30 -108v-96q0 -49 2 -91
q3 -50 50 -73l-13 -40q-90 4 -104 78h-2q-38 -86 -116 -86q-47 0 -75.5 26.5t-28.5 68.5q0 59 63 100q55 35 154 61v49q0 45 -21 72q-21 28 -63 28q-43 0 -96 -41zM812 152v55q-12 -3 -58 -23q-88 -37 -88 -86q0 -23 13 -37t37 -14q36 0 65 28q31 28 31 77zM686 570
q-30 30 -30 73t30 73q30 31 73 31t73 -31q31 -30 31 -73t-31 -73q-30 -30 -73 -30t-73 30zM758 581q26 0 43.5 17.5t17.5 43.5t-17.5 44.5t-43.5 18.5q-25 0 -42 -18.5t-17 -44.5t17 -43.5t42 -17.5z" />
    <glyph glyph-name="ffedieresis" unicode="ff&#xeb;" horiz-adv-x="1018" 
d="M366 191v107q0 58 -10 71q-9 14 -49 14h-143v-196q0 -39 2 -93q2 -31 13 -46t43 -26l-3 -23q-35 3 -90 3q-45 0 -80 -3l-3 23q26 11 34.5 25t10.5 47q3 32 3 97v148q0 29 -8.5 40t-38.5 18l-4 21q29 7 40 34q7 17 8 25q2 9 6.5 36t5.5 31q19 94 67.5 149t115.5 55
q41 0 66.5 -18.5t25.5 -46.5q0 -17 -10 -27.5t-25 -10.5q-23 0 -44 27q-19 24 -44 24q-91 0 -91 -188v-75h142q37 0 51 26q7 13 10 34q2 5 5.5 25.5t4.5 25.5q41 204 165 204q34 0 59 -20t25 -50q0 -19 -11 -31t-28 -12q-28 0 -41 34q-10 27 -35 27q-34 0 -54.5 -46.5
t-20.5 -141.5v-75q20 0 40 1l40 2t29 1l8 -17l-8 -37h-109v-196q0 -39 2 -93q2 -31 13 -46t43 -26l-3 -23q-35 3 -90 3q-45 0 -80 -3l-3 23q26 11 34.5 25t10.5 47q3 32 3 97zM587 212q0 104 63 174t156 70q72 0 120 -48q49 -46 49 -119q0 -13 -2 -23h-308q-2 -16 -2 -38
q0 -76 40 -125q41 -48 102 -48q48 0 80.5 18.5t63.5 62.5l24 -15q-25 -63 -71 -100t-107 -37q-92 0 -150 67t-58 161zM672 306h215q-1 48 -29.5 76.5t-73.5 28.5q-43 0 -73 -29t-39 -76zM666 651q0 21 14.5 35.5t35.5 14.5q22 0 36.5 -14.5t14.5 -35.5q0 -22 -14.5 -36.5
t-36.5 -14.5q-21 0 -35.5 14.5t-14.5 36.5zM835 651q0 21 14.5 35.5t35.5 14.5q22 0 36.5 -14.5t14.5 -35.5q0 -22 -14.5 -36.5t-36.5 -14.5q-21 0 -35.5 14.5t-14.5 36.5z" />
    <glyph glyph-name="ffiacute" unicode="ff&#xed;" horiz-adv-x="805" 
d="M657 493l-23 10l46 191q14 53 50 53q17 0 27.5 -11.5t10.5 -29.5t-15 -44zM562 383h-126v-196q0 -39 2 -93q2 -31 13 -46t43 -26l-3 -23q-35 3 -90 3q-45 0 -80 -3l-3 23q26 11 34.5 25t10.5 47q3 32 3 97v107q0 58 -10 71q-9 14 -49 14h-143v-196q0 -39 2 -93
q2 -31 13 -46t43 -26l-3 -23q-35 3 -90 3q-45 0 -80 -3l-3 23q26 11 34.5 25t10.5 47q3 32 3 97v148q0 29 -8.5 40t-38.5 18l-4 21q29 7 40 34q7 17 8 25q2 9 6.5 36t5.5 31q19 94 67.5 149t115.5 55q41 0 66.5 -18.5t25.5 -46.5q0 -17 -10 -27.5t-25 -10.5q-23 0 -44 27
q-19 24 -44 24q-90 0 -90 -188v-75h141q28 0 47 19q1 2 13 36q1 4 3 14t4.5 23.5t3.5 18.5q43 204 165 204q34 0 59 -20t25 -50q0 -19 -11 -31t-28 -12q-28 0 -41 34q-10 27 -35 27q-34 0 -54 -46.5t-20 -141.5v-75l153 2q70 2 106 23l21 -8q-5 -95 -5 -181v-75
q0 -60 2 -100q2 -33 11 -47t35 -25l-3 -23q-53 3 -80 3t-80 -3l-3 23q26 11 35 25t11 47q2 40 2 100v38q0 54 -2 94q-2 34 -17.5 45.5t-60.5 11.5z" />
    <glyph glyph-name="ffigrave" unicode="ff&#xec;" horiz-adv-x="805" 
d="M562 383h-126v-196q0 -39 2 -93q2 -31 13 -46t43 -26l-3 -23q-35 3 -90 3q-45 0 -80 -3l-3 23q26 11 34.5 25t10.5 47q3 32 3 97v107q0 58 -10 71q-9 14 -49 14h-143v-196q0 -39 2 -93q2 -31 13 -46t43 -26l-3 -23q-35 3 -90 3q-45 0 -80 -3l-3 23q26 11 34.5 25t10.5 47
q3 32 3 97v148q0 29 -8.5 40t-38.5 18l-4 21q29 7 40 34q7 17 8 25q2 9 6.5 36t5.5 31q19 94 67.5 149t115.5 55q41 0 66.5 -18.5t25.5 -46.5q0 -17 -10 -27.5t-25 -10.5q-23 0 -44 27q-19 24 -44 24q-91 0 -91 -188v-75h142q35 0 44 18q7 13 8 20q2 5 7 33l8 40
q47 204 189 204q89 0 112 -92l37 -153l-23 -10l-88 155q-27 48 -69 48q-95 0 -95 -188v-75q18 0 154 2q70 2 106 23l21 -8q-5 -95 -5 -181v-75q0 -60 2 -100q2 -33 11 -47t35 -25l-3 -23q-53 3 -80 3t-80 -3l-3 23q26 11 35 25t11 47q2 40 2 100v38q0 54 -2 94
q-2 34 -17.5 45.5t-60.5 11.5z" />
    <glyph glyph-name="fficircumflex" unicode="ff&#xee;" horiz-adv-x="847" 
d="M366 191v107q0 58 -10 71q-9 14 -49 14h-143v-196q0 -39 2 -93q2 -31 13 -46t43 -26l-3 -23q-35 3 -90 3q-45 0 -80 -3l-3 23q26 11 34.5 25t10.5 47q3 32 3 97v148q0 29 -8.5 40t-38.5 18l-4 21q29 7 40 34q7 17 8 25q2 9 6.5 36t5.5 31q19 94 67.5 149t115.5 55
q41 0 66.5 -18.5t25.5 -46.5q0 -17 -10 -27.5t-25 -10.5q-23 0 -44 27q-19 24 -44 24q-91 0 -91 -188v-75h142q37 0 51 26q7 13 10 34q2 5 5.5 25.5t4.5 25.5q41 204 165 204q34 0 59 -20t25 -50q0 -19 -11 -31t-28 -12q-28 0 -41 34q-10 27 -35 27q-34 0 -54.5 -46.5
t-20.5 -141.5v-75q20 0 40 1l40 2t29 1l8 -17l-8 -37h-109v-196q0 -39 2 -93q2 -31 13 -46t43 -26l-3 -23q-35 3 -90 3q-45 0 -80 -3l-3 23q26 11 34.5 25t10.5 47q3 32 3 97zM753 269v-75q0 -20 2 -100q1 -32 10 -46.5t36 -25.5l-3 -23q-52 3 -80 3t-80 -3l-3 23
q26 11 35 25t11 47q2 40 2 100v22q-2 105 -6 120q-6 20 -33 28q-5 1 -13 3v21q62 28 106 70l21 -8q-5 -95 -5 -181zM616 505l-21 13l97 205q10 24 29 24t29 -24l97 -205l-21 -13l-105 134z" />
    <glyph glyph-name="ffidieresis" unicode="ff&#xef;" horiz-adv-x="865" 
d="M366 191v107q0 58 -10 71q-9 14 -49 14h-143v-196q0 -39 2 -93q2 -31 13 -46t43 -26l-3 -23q-35 3 -90 3q-45 0 -80 -3l-3 23q26 11 34.5 25t10.5 47q3 32 3 97v148q0 29 -8.5 40t-38.5 18l-4 21q29 7 40 34q7 17 8 25q2 9 6.5 36t5.5 31q19 94 67.5 149t115.5 55
q41 0 66.5 -18.5t25.5 -46.5q0 -17 -10 -27.5t-25 -10.5q-23 0 -44 27q-19 24 -44 24q-91 0 -91 -188v-75h142q37 0 51 26q7 13 10 34q2 5 5.5 25.5t4.5 25.5q41 204 165 204q34 0 59 -20t25 -50q0 -19 -11 -31t-28 -12q-28 0 -41 34q-10 27 -35 27q-34 0 -54.5 -46.5
t-20.5 -141.5v-75q20 0 40 1l40 2t29 1l8 -17l-8 -37h-109v-196q0 -39 2 -93q2 -31 13 -46t43 -26l-3 -23q-35 3 -90 3q-45 0 -80 -3l-3 23q26 11 34.5 25t10.5 47q3 32 3 97zM772 269v-75q0 -20 2 -100q1 -32 10 -46.5t36 -25.5l-3 -23q-53 3 -80 3t-80 -3l-3 23
q26 11 35 25t11 47q2 40 2 100v22q-2 105 -6 120q-6 20 -33 28q-5 1 -13 3v21q62 28 106 70l21 -8q-5 -95 -5 -181zM607 591q0 21 14.5 35.5t35.5 14.5q22 0 36.5 -14.5t14.5 -35.5q0 -22 -14.5 -36.5t-36.5 -14.5q-21 0 -35.5 14.5t-14.5 36.5zM776 591q0 21 14.5 35.5
t35.5 14.5q22 0 36.5 -14.5t14.5 -35.5q0 -22 -14.5 -36.5t-36.5 -14.5q-21 0 -35.5 14.5t-14.5 36.5z" />
    <glyph glyph-name="ffodieresis" unicode="ff&#xf6;" horiz-adv-x="1071" 
d="M366 191v107q0 58 -10 71q-9 14 -49 14h-143v-196q0 -39 2 -93q2 -31 13 -46t43 -26l-3 -23q-35 3 -90 3q-45 0 -80 -3l-3 23q26 11 34.5 25t10.5 47q3 32 3 97v148q0 29 -8.5 40t-38.5 18l-4 21q29 7 40 34q7 17 8 25q2 9 6.5 36t5.5 31q19 94 67.5 149t115.5 55
q41 0 66.5 -18.5t25.5 -46.5q0 -17 -10 -27.5t-25 -10.5q-23 0 -44 27q-19 24 -44 24q-91 0 -91 -188v-75h142q37 0 51 26q7 13 10 34q2 5 5.5 25.5t4.5 25.5q41 204 165 204q34 0 59 -20t25 -50q0 -19 -11 -31t-28 -12q-28 0 -41 34q-10 27 -35 27q-34 0 -54.5 -46.5
t-20.5 -141.5v-75q20 0 40 1l40 2t29 1l8 -17l-8 -37h-109v-196q0 -39 2 -93q2 -31 13 -46t43 -26l-3 -23q-35 3 -90 3q-45 0 -80 -3l-3 23q26 11 34.5 25t10.5 47q3 32 3 97zM587 220q0 96 65 166q64 70 157 70q96 0 159 -68q64 -67 64 -168q0 -99 -64 -167
q-63 -69 -154 -69q-98 0 -163 68q-64 67 -64 168zM806 410q-61 0 -99 -48t-38 -133q0 -91 40.5 -144t107.5 -53q60 0 96.5 48.5t36.5 133.5q0 87 -41 142q-41 54 -103 54zM669 651q0 21 14.5 35.5t35.5 14.5q22 0 36.5 -14.5t14.5 -35.5q0 -22 -14.5 -36.5t-36.5 -14.5
q-21 0 -35.5 14.5t-14.5 36.5zM838 651q0 21 14.5 35.5t35.5 14.5q22 0 36.5 -14.5t14.5 -35.5q0 -22 -14.5 -36.5t-36.5 -14.5q-21 0 -35.5 14.5t-14.5 36.5z" />
    <glyph glyph-name="ffotilde" unicode="ff&#xf5;" horiz-adv-x="1070" 
d="M366 191v107q0 58 -10 71q-9 14 -49 14h-143v-196q0 -39 2 -93q2 -31 13 -46t43 -26l-3 -23q-35 3 -90 3q-45 0 -80 -3l-3 23q26 11 34.5 25t10.5 47q3 32 3 97v148q0 29 -8.5 40t-38.5 18l-4 21q29 7 40 34q7 17 8 25q2 9 6.5 36t5.5 31q19 94 67.5 149t115.5 55
q41 0 66.5 -18.5t25.5 -46.5q0 -17 -10 -27.5t-25 -10.5q-23 0 -44 27q-19 24 -44 24q-91 0 -91 -188v-75h142q37 0 51 26q7 13 10 34q2 5 5.5 25.5t4.5 25.5q41 204 165 204q34 0 59 -20t25 -50q0 -19 -11 -31t-28 -12q-28 0 -41 34q-10 27 -35 27q-34 0 -54.5 -46.5
t-20.5 -141.5v-75q20 0 40 1l40 2t29 1l8 -17l-8 -37h-109v-196q0 -39 2 -93q2 -31 13 -46t43 -26l-3 -23q-35 3 -90 3q-45 0 -80 -3l-3 23q26 11 34.5 25t10.5 47q3 32 3 97zM586 220q0 96 65 166q64 70 157 70q96 0 159 -68q64 -67 64 -168q0 -99 -64 -167
q-63 -69 -154 -69q-98 0 -163 68q-64 67 -64 168zM805 410q-61 0 -99 -48t-38 -133q0 -91 40.5 -144t107.5 -53q60 0 96.5 48.5t36.5 133.5q0 87 -41 142q-40 54 -103 54zM828 678q42 -19 60 -19q32 0 63 25l17 -18q-44 -68 -98 -68q-27 0 -60 15q-42 19 -60 19
q-32 0 -63 -25l-18 18q44 68 99 68q27 0 60 -15z" />
    <glyph glyph-name="ffutilde" unicode="ff&#x169;" horiz-adv-x="1070" 
d="M366 191v107q0 58 -10 71q-9 14 -49 14h-143v-196q0 -39 2 -93q2 -31 13 -46t43 -26l-3 -23q-35 3 -90 3q-45 0 -80 -3l-3 23q26 11 34.5 25t10.5 47q3 32 3 97v148q0 29 -8.5 40t-38.5 18l-4 21q29 7 40 34q7 17 8 25q2 9 6.5 36t5.5 31q19 94 67.5 149t115.5 55
q41 0 66.5 -18.5t25.5 -46.5q0 -17 -10 -27.5t-25 -10.5q-23 0 -44 27q-19 24 -44 24q-91 0 -91 -188v-75h142q37 0 51 26q7 13 10 34q2 5 5.5 25.5t4.5 25.5q41 204 165 204q34 0 59 -20t25 -50q0 -19 -11 -31t-28 -12q-28 0 -41 34q-10 27 -35 27q-34 0 -54.5 -46.5
t-20.5 -141.5v-75q20 0 40 1l40 2t29 1l8 -17l-8 -37h-109v-196q0 -39 2 -93q2 -31 13 -46t43 -26l-3 -23q-35 3 -90 3q-45 0 -80 -3l-3 23q26 11 34.5 25t10.5 47q3 32 3 97zM972 257v-43q0 -58 3 -90q2 -30 11.5 -41t37.5 -16v-21q-47 -21 -94 -62l-21 5l-3 92l-1 1
q-19 -44 -55.5 -71t-79.5 -27q-77 0 -113 59q-20 35 -20 91v109q0 63 -3 94q-3 30 -13.5 46t-34.5 27l3 22q70 1 125 5q-7 -148 -7 -180v-114q0 -46 21 -70t58 -24q53 0 84.5 34.5t31.5 89.5v70q0 63 -3 94q-2 30 -12.5 45.5t-35.5 27.5l3 22q70 1 125 5q-7 -148 -7 -180z
M817 678q42 -19 60 -19q32 0 63 25l17 -18q-44 -68 -98 -68q-27 0 -60 15q-42 19 -60 19q-32 0 -63 -25l-18 18q44 68 99 68q27 0 60 -15z" />
    <glyph glyph-name="ffscaron" unicode="ff&#x161;" horiz-adv-x="928" 
d="M366 191v107q0 58 -10 71q-9 14 -49 14h-143v-196q0 -39 2 -93q2 -31 13 -46t43 -26l-3 -23q-35 3 -90 3q-45 0 -80 -3l-3 23q26 11 34.5 25t10.5 47q3 32 3 97v148q0 29 -8.5 40t-38.5 18l-4 21q29 7 40 34q7 17 8 25q2 9 6.5 36t5.5 31q19 94 67.5 149t115.5 55
q41 0 66.5 -18.5t25.5 -46.5q0 -17 -10 -27.5t-25 -10.5q-23 0 -44 27q-19 24 -44 24q-91 0 -91 -188v-75h142q37 0 51 26q7 13 10 34q2 5 5.5 25.5t4.5 25.5q41 204 165 204q34 0 59 -20t25 -50q0 -19 -11 -31t-28 -12q-28 0 -41 34q-10 27 -35 27q-34 0 -54.5 -46.5
t-20.5 -141.5v-75q20 0 40 1l40 2t29 1l8 -17l-8 -37h-109v-196q0 -39 2 -93q2 -31 13 -46t43 -26l-3 -23q-35 3 -90 3q-45 0 -80 -3l-3 23q26 11 34.5 25t10.5 47q3 32 3 97zM619 73q0 18 10 29t27 11q32 0 43 -39q13 -48 60 -48q72 0 72 67q0 31 -19.5 53t-68.5 47
q-110 56 -110 136q0 53 38 89q38 37 93 37q52 0 90 -29q26 -21 26 -49q0 -16 -9.5 -26t-25.5 -10q-27 0 -42 34q-17 38 -54 38q-25 0 -41.5 -16t-16.5 -41q0 -30 21 -53.5t73 -49.5q58 -28 83.5 -60.5t25.5 -80.5q0 -57 -39.5 -92.5t-99.5 -35.5q-68 0 -106 32
q-30 26 -30 57zM734 529l-97 205l21 13l105 -134l105 134l21 -13l-97 -205q-10 -24 -29 -24t-29 24z" />
    <glyph glyph-name="ffydieresis" unicode="ff&#xff;" horiz-adv-x="994" 
d="M366 191v107q0 58 -10 71q-9 14 -49 14h-143v-196q0 -39 2 -93q2 -31 13 -46t43 -26l-3 -23q-35 3 -90 3q-45 0 -80 -3l-3 23q26 11 34.5 25t10.5 47q3 32 3 97v148q0 29 -8.5 40t-38.5 18l-4 21q29 7 40 34q7 17 8 25q2 9 6.5 36t5.5 31q19 94 67.5 149t115.5 55
q41 0 66.5 -18.5t25.5 -46.5q0 -17 -10 -27.5t-25 -10.5q-23 0 -44 27q-19 24 -44 24q-91 0 -91 -188v-75h142q37 0 51 26q7 13 10 34q2 5 5.5 25.5t4.5 25.5q41 204 165 204q34 0 59 -20t25 -50q0 -19 -11 -31t-28 -12q-28 0 -41 34q-10 27 -35 27q-34 0 -54.5 -46.5
t-20.5 -141.5v-75q20 0 40 1l40 2t29 1l8 -17l-8 -37h-109v-196q0 -39 2 -93q2 -31 13 -46t43 -26l-3 -23q-35 3 -90 3q-45 0 -80 -3l-3 23q26 11 34.5 25t10.5 47q3 32 3 97zM728 253l62 -156l66 155q31 71 31 105q0 33 -35 53l4 23q28 -3 68 -3q36 0 65 3l3 -23
q-22 -20 -48 -72l-39 -87l-177 -400q-28 -64 -58 -95q-32 -32 -76 -32q-20 0 -33.5 12t-13.5 30t10.5 29.5t27.5 11.5q7 0 22.5 -2.5t21.5 -2.5q29 0 51 48l72 156l-99 245l-40 101q-11 25 -19.5 35.5t-26.5 22.5l4 23q43 -3 81 -3q26 0 69 3l3 -23q-30 -14 -30 -40
q0 -33 34 -117zM668 651q0 21 14.5 35.5t35.5 14.5q22 0 36.5 -14.5t14.5 -35.5q0 -22 -14.5 -36.5t-36.5 -14.5q-21 0 -35.5 14.5t-14.5 36.5zM837 651q0 21 14.5 35.5t35.5 14.5q22 0 36.5 -14.5t14.5 -35.5q0 -22 -14.5 -36.5t-36.5 -14.5q-21 0 -35.5 14.5t-14.5 36.5z
" />
    <glyph glyph-name="fflcaron" unicode="ff&#x13e;" horiz-adv-x="855" 
d="M375 546q45 202 205 202q48 0 80 -23q26 18 36 27l21 -8q-5 -95 -5 -181v-369q0 -60 2 -100q0 -31 9.5 -46t36.5 -26l-3 -23q-53 3 -80 3t-80 -3l-3 23q26 11 35 25t11 47q2 40 2 100v316q0 53 -2 93q-6 93 -92 93q-112 0 -112 -188v-75q20 0 40 1l40 2t29 1l8 -17
l-8 -37h-109v-189v-28t0.5 -27t1 -22t0.5 -17v-6q0 -31 12 -46t44 -26l-3 -23q-53 3 -90 3q-27 0 -80 -3l-3 23q26 11 35 25t11 47q2 40 2 97v107q0 58 -10 71q-9 14 -49 14h-142v-193v-27t0.5 -26t0.5 -21.5v-15.5v-6q0 -31 12 -46t44 -26l-3 -23q-53 3 -90 3q-27 0 -80 -3
l-3 23q26 11 35 25t11 47q2 40 2 97v148q0 29 -8.5 40t-38.5 18l-4 21q29 7 40 34q7 17 8 25q2 9 6.5 36t5.5 31q19 94 67.5 149t115.5 55q41 0 66.5 -18.5t25.5 -46.5q0 -17 -10 -27.5t-25 -10.5q-23 0 -44 27q-19 24 -44 24q-90 0 -90 -188v-75h141q40 0 50 28q4 12 6 21
q2 7 7 32.5t6 31.5zM903 660q0 -49 -27.5 -78.5t-86.5 -45.5l-8 25q75 29 75 67q0 26 -28 41q-35 20 -35 46q0 15 11 25.5t28 10.5q28 0 49.5 -26.5t21.5 -64.5z" />
    <glyph glyph-name="ffzdotaccent" unicode="ff&#x17c;" horiz-adv-x="955" 
d="M366 191v107q0 58 -10 71q-9 14 -49 14h-143v-196q0 -39 2 -93q2 -31 13 -46t43 -26l-3 -23q-35 3 -90 3q-45 0 -80 -3l-3 23q26 11 34.5 25t10.5 47q3 32 3 97v148q0 29 -8.5 40t-38.5 18l-4 21q29 7 40 34q7 17 8 25q2 9 6.5 36t5.5 31q19 94 67.5 149t115.5 55
q41 0 66.5 -18.5t25.5 -46.5q0 -17 -10 -27.5t-25 -10.5q-23 0 -44 27q-19 24 -44 24q-91 0 -91 -188v-75h142q37 0 51 26q7 13 10 34q2 5 5.5 25.5t4.5 25.5q41 204 165 204q34 0 59 -20t25 -50q0 -19 -11 -31t-28 -12q-28 0 -41 34q-10 27 -35 27q-34 0 -54.5 -46.5
t-20.5 -141.5v-75q20 0 40 1l40 2t29 1l8 -17l-8 -37h-109v-196q0 -39 2 -93q2 -31 13 -46t43 -26l-3 -23q-35 3 -90 3q-45 0 -80 -3l-3 23q26 11 34.5 25t10.5 47q3 32 3 97zM727 430h86q4 0 100 3l6 -26l-75 -105l-182 -259h77q40 0 78 5q33 5 46 30q11 15 27 60l27 -5
q-6 -90 -14 -138q-35 1 -65.5 2.5t-43.5 2t-14 0.5h-65q-21 0 -127 -2l-12 40l70 95l178 254h-62q-48 0 -72 -4q-26 -4 -40.5 -18t-28.5 -50l-26 5q6 75 15 115q75 -5 117 -5zM712 638q-16 16 -16 40t16 40t40 16t40 -16t16 -40t-16 -40t-40 -16t-40 16z" />
    <glyph glyph-name="ffabreve" unicode="ff&#x103;" horiz-adv-x="982" 
d="M366 191v107q0 58 -10 71q-9 14 -49 14h-143v-196q0 -39 2 -93q2 -31 13 -46t43 -26l-3 -23q-35 3 -90 3q-45 0 -80 -3l-3 23q26 11 34.5 25t10.5 47q3 32 3 97v148q0 29 -8.5 40t-38.5 18l-4 21q29 7 40 34q7 17 8 25q2 9 6.5 36t5.5 31q19 94 67.5 149t115.5 55
q41 0 66.5 -18.5t25.5 -46.5q0 -17 -10 -27.5t-25 -10.5q-23 0 -44 27q-19 24 -44 24q-91 0 -91 -188v-75h142q37 0 51 26q7 13 10 34q2 5 5.5 25.5t4.5 25.5q41 204 165 204q34 0 59 -20t25 -50q0 -19 -11 -31t-28 -12q-28 0 -41 34q-10 27 -35 27q-34 0 -54.5 -46.5
t-20.5 -141.5v-75q20 0 40 1l40 2t29 1l8 -17l-8 -37h-109v-196q0 -39 2 -93q2 -31 13 -46t43 -26l-3 -23q-35 3 -90 3q-45 0 -80 -3l-3 23q26 11 34.5 25t10.5 47q3 32 3 97zM651 350l-19 32q16 30 51.5 51t76.5 21q75 0 111 -52q30 -45 30 -108v-96q0 -49 2 -91
q3 -50 50 -73l-13 -40q-90 4 -104 78h-2q-38 -86 -116 -86q-47 0 -75.5 26.5t-28.5 68.5q0 59 63 100q55 35 154 61v49q0 45 -21 72q-21 28 -63 28q-43 0 -96 -41zM831 152v55q-12 -3 -58 -23q-88 -37 -88 -86q0 -23 13 -37t37 -14q36 0 65 28q31 28 31 77zM649 740l24 2
q17 -78 41 -112.5t61 -34.5t61 34.5t41 112.5l24 -2q-3 -106 -36.5 -160.5t-89.5 -54.5t-89.5 54.5t-36.5 160.5z" />
    <glyph glyph-name="fflacute" unicode="ff&#x13a;" horiz-adv-x="805" 
d="M375 546q45 202 205 202q48 0 80 -23q26 18 36 27l21 -8q-5 -95 -5 -181v-369q0 -60 2 -100q0 -31 9.5 -46t36.5 -26l-3 -23q-53 3 -80 3t-80 -3l-3 23q26 11 35 25t11 47q2 40 2 100v316q0 53 -2 93q-6 93 -92 93q-112 0 -112 -188v-75q20 0 40 1l40 2t29 1l8 -17
l-8 -37h-109v-189v-28t0.5 -27t1 -22t0.5 -17v-6q0 -31 12 -46t44 -26l-3 -23q-53 3 -90 3q-27 0 -80 -3l-3 23q26 11 35 25t11 47q2 40 2 97v107q0 58 -10 71q-9 14 -49 14h-142v-193v-27t0.5 -26t0.5 -21.5v-15.5v-6q0 -31 12 -46t44 -26l-3 -23q-53 3 -90 3q-27 0 -80 -3
l-3 23q26 11 35 25t11 47q2 40 2 97v148q0 29 -8.5 40t-38.5 18l-4 21q29 7 40 34q7 17 8 25q2 9 6.5 36t5.5 31q19 94 67.5 149t115.5 55q41 0 66.5 -18.5t25.5 -46.5q0 -17 -10 -27.5t-25 -10.5q-23 0 -44 27q-19 24 -44 24q-90 0 -90 -188v-75h141q40 0 50 28q4 12 6 21
q2 7 7 32.5t6 31.5zM560 767l-9 24l167 102q24 15 43 15q18 0 29 -11.5t11 -29.5t-12.5 -29t-42.5 -19z" />
    <glyph glyph-name="ffccaron" unicode="ff&#x10d;" horiz-adv-x="997" 
d="M366 191v107q0 58 -10 71q-9 14 -49 14h-143v-196q0 -39 2 -93q2 -31 13 -46t43 -26l-3 -23q-35 3 -90 3q-45 0 -80 -3l-3 23q26 11 34.5 25t10.5 47q3 32 3 97v148q0 29 -8.5 40t-38.5 18l-4 21q29 7 40 34q7 17 8 25q2 9 6.5 36t5.5 31q19 94 67.5 149t115.5 55
q41 0 66.5 -18.5t25.5 -46.5q0 -17 -10 -27.5t-25 -10.5q-23 0 -44 27q-19 24 -44 24q-91 0 -91 -188v-75h142q37 0 51 26q7 13 10 34q2 5 5.5 25.5t4.5 25.5q41 204 165 204q34 0 59 -20t25 -50q0 -19 -11 -31t-28 -12q-28 0 -41 34q-10 27 -35 27q-34 0 -54.5 -46.5
t-20.5 -141.5v-75q20 0 40 1l40 2t29 1l8 -17l-8 -37h-109v-196q0 -39 2 -93q2 -31 13 -46t43 -26l-3 -23q-35 3 -90 3q-45 0 -80 -3l-3 23q26 11 34.5 25t10.5 47q3 32 3 97zM873 339q-13 72 -79 72q-59 0 -94.5 -49.5t-35.5 -133.5q0 -77 39 -125t98 -48q48 0 79.5 18
t62.5 63l24 -15q-25 -64 -70 -100.5t-106 -36.5q-90 0 -147 67t-57 161q0 104 64 174t159 70q66 0 113 -41q36 -31 36 -74q0 -19 -11 -31.5t-31 -12.5q-37 0 -44 42zM772 529l-97 205l21 13l105 -134l105 134l21 -13l-97 -205q-10 -24 -29 -24t-29 24z" />
    <glyph glyph-name="ffecaron" unicode="ff&#x11b;" horiz-adv-x="1018" 
d="M366 191v107q0 58 -10 71q-9 14 -49 14h-143v-196q0 -39 2 -93q2 -31 13 -46t43 -26l-3 -23q-35 3 -90 3q-45 0 -80 -3l-3 23q26 11 34.5 25t10.5 47q3 32 3 97v148q0 29 -8.5 40t-38.5 18l-4 21q29 7 40 34q7 17 8 25q2 9 6.5 36t5.5 31q19 94 67.5 149t115.5 55
q41 0 66.5 -18.5t25.5 -46.5q0 -17 -10 -27.5t-25 -10.5q-23 0 -44 27q-19 24 -44 24q-91 0 -91 -188v-75h142q37 0 51 26q7 13 10 34q2 5 5.5 25.5t4.5 25.5q41 204 165 204q34 0 59 -20t25 -50q0 -19 -11 -31t-28 -12q-28 0 -41 34q-10 27 -35 27q-34 0 -54.5 -46.5
t-20.5 -141.5v-75q20 0 40 1l40 2t29 1l8 -17l-8 -37h-109v-196q0 -39 2 -93q2 -31 13 -46t43 -26l-3 -23q-35 3 -90 3q-45 0 -80 -3l-3 23q26 11 34.5 25t10.5 47q3 32 3 97zM587 212q0 104 63 174t156 70q72 0 120 -48q49 -46 49 -119q0 -13 -2 -23h-308q-2 -16 -2 -38
q0 -76 40 -125q41 -48 102 -48q48 0 80.5 18.5t63.5 62.5l24 -15q-25 -63 -71 -100t-107 -37q-92 0 -150 67t-58 161zM672 306h215q-1 48 -29.5 76.5t-73.5 28.5q-43 0 -73 -29t-39 -76zM766 529l-97 205l21 13l105 -134l105 134l21 -13l-97 -205q-10 -24 -29 -24t-29 24z
" />
    <glyph glyph-name="ffrcaron" unicode="ff&#x159;" horiz-adv-x="898" 
d="M366 191v107q0 58 -10 71q-9 14 -49 14h-143v-196q0 -39 2 -93q2 -31 13 -46t43 -26l-3 -23q-35 3 -90 3q-45 0 -80 -3l-3 23q26 11 34.5 25t10.5 47q3 32 3 97v148q0 29 -8.5 40t-38.5 18l-4 21q29 7 40 34q7 17 8 25q2 9 6.5 36t5.5 31q19 94 67.5 149t115.5 55
q41 0 66.5 -18.5t25.5 -46.5q0 -17 -10 -27.5t-25 -10.5q-23 0 -44 27q-19 24 -44 24q-91 0 -91 -188v-75h142q37 0 51 26q7 13 10 34q2 5 5.5 25.5t4.5 25.5q41 204 165 204q34 0 59 -20t25 -50q0 -19 -11 -31t-28 -12q-28 0 -41 34q-10 27 -35 27q-34 0 -54.5 -46.5
t-20.5 -141.5v-75q20 0 40 1l40 2t29 1l8 -17l-8 -37h-109v-196q0 -39 2 -93q2 -31 13 -46t43 -26l-3 -23q-35 3 -90 3q-45 0 -80 -3l-3 23q26 11 34.5 25t10.5 47q3 32 3 97zM868 371q-9 0 -31.5 9t-30.5 9q-37 0 -61.5 -41t-24.5 -110v-47q0 -55 2 -97q2 -33 13.5 -48
t42.5 -24l-3 -23q-35 3 -90 3q-45 0 -80 -3l-3 23q26 11 34.5 25t10.5 47q3 32 3 97v25q0 62 -3 94q-2 30 -11.5 41t-37.5 16v21q65 32 106 70l21 -8q-5 -39 -6 -97l1 -1q20 49 52 76.5t68 27.5q29 0 46.5 -14t17.5 -36q0 -35 -36 -35zM739 529l-97 205l21 13l105 -134
l105 134l21 -13l-97 -205q-10 -24 -29 -24t-29 24z" />
    <glyph glyph-name="ffamacron" unicode="ff&#x101;" horiz-adv-x="983" 
d="M366 191v107q0 58 -10 71q-9 14 -49 14h-143v-196q0 -39 2 -93q2 -31 13 -46t43 -26l-3 -23q-35 3 -90 3q-45 0 -80 -3l-3 23q26 11 34.5 25t10.5 47q3 32 3 97v148q0 29 -8.5 40t-38.5 18l-4 21q29 7 40 34q7 17 8 25q2 9 6.5 36t5.5 31q19 94 67.5 149t115.5 55
q41 0 66.5 -18.5t25.5 -46.5q0 -17 -10 -27.5t-25 -10.5q-23 0 -44 27q-19 24 -44 24q-91 0 -91 -188v-75h142q37 0 51 26q7 13 10 34q2 5 5.5 25.5t4.5 25.5q41 204 165 204q34 0 59 -20t25 -50q0 -19 -11 -31t-28 -12q-28 0 -41 34q-10 27 -35 27q-34 0 -54.5 -46.5
t-20.5 -141.5v-75q20 0 40 1l40 2t29 1l8 -17l-8 -37h-109v-196q0 -39 2 -93q2 -31 13 -46t43 -26l-3 -23q-35 3 -90 3q-45 0 -80 -3l-3 23q26 11 34.5 25t10.5 47q3 32 3 97zM652 350l-19 32q16 30 51.5 51t76.5 21q75 0 111 -52q30 -45 30 -108v-96q0 -49 2 -91
q3 -50 50 -73l-13 -40q-90 4 -104 78h-2q-38 -86 -116 -86q-47 0 -75.5 26.5t-28.5 68.5q0 59 63 100q55 35 154 61v49q0 45 -21 72q-21 28 -63 28q-43 0 -96 -41zM832 152v55q-12 -3 -58 -23q-88 -37 -88 -86q0 -23 13 -37t37 -14q36 0 65 28q31 28 31 77zM910 587h-270v54
h270v-54z" />
    <glyph glyph-name="ffemacron" unicode="ff&#x113;" horiz-adv-x="1018" 
d="M366 191v107q0 58 -10 71q-9 14 -49 14h-143v-196q0 -39 2 -93q2 -31 13 -46t43 -26l-3 -23q-35 3 -90 3q-45 0 -80 -3l-3 23q26 11 34.5 25t10.5 47q3 32 3 97v148q0 29 -8.5 40t-38.5 18l-4 21q29 7 40 34q7 17 8 25q2 9 6.5 36t5.5 31q19 94 67.5 149t115.5 55
q41 0 66.5 -18.5t25.5 -46.5q0 -17 -10 -27.5t-25 -10.5q-23 0 -44 27q-19 24 -44 24q-91 0 -91 -188v-75h142q37 0 51 26q7 13 10 34q2 5 5.5 25.5t4.5 25.5q41 204 165 204q34 0 59 -20t25 -50q0 -19 -11 -31t-28 -12q-28 0 -41 34q-10 27 -35 27q-34 0 -54.5 -46.5
t-20.5 -141.5v-75q20 0 40 1l40 2t29 1l8 -17l-8 -37h-109v-196q0 -39 2 -93q2 -31 13 -46t43 -26l-3 -23q-35 3 -90 3q-45 0 -80 -3l-3 23q26 11 34.5 25t10.5 47q3 32 3 97zM587 212q0 104 63 174t156 70q72 0 120 -48q49 -46 49 -119q0 -13 -2 -23h-308q-2 -16 -2 -38
q0 -76 40 -125q41 -48 102 -48q48 0 80.5 18.5t63.5 62.5l24 -15q-25 -63 -71 -100t-107 -37q-92 0 -150 67t-58 161zM672 306h215q-1 48 -29.5 76.5t-73.5 28.5q-43 0 -73 -29t-39 -76zM937 617h-270v54h270v-54z" />
    <glyph glyph-name="ffiogonek" unicode="ff&#x12f;" horiz-adv-x="805" 
d="M734 -113l23 -7q-13 -84 -80 -84q-35 0 -58.5 23t-23.5 60q0 67 72 123q-6 0 -33.5 -1.5t-36.5 -1.5l-3 23q26 11 35 25t11 47q2 40 2 100v38q0 54 -2 94q-2 34 -17.5 45.5t-60.5 11.5h-126v-192q0 -25 2 -97q2 -31 13 -46t43 -26l-3 -23q-53 3 -90 3q-27 0 -80 -3l-3 23
q26 11 35 25t11 47q2 40 2 97v107q0 58 -10 71q-9 14 -49 14h-143v-192q0 -49 2 -97q2 -31 13 -46t43 -26l-3 -23q-53 3 -90 3q-27 0 -80 -3l-3 23q26 11 35 25t11 47q2 40 2 97v148q0 29 -8.5 40t-38.5 18l-4 21q29 7 40 34q7 17 8 25q2 9 6.5 36t5.5 31q19 94 67.5 149
t115.5 55q41 0 66.5 -18.5t25.5 -46.5q0 -17 -10 -27.5t-25 -10.5q-23 0 -44 27q-19 24 -44 24q-91 0 -91 -188v-75h142q40 0 50 28q4 12 6 21q2 7 7 32.5t6 31.5q46 202 205 202q55 0 92 -25t37 -62q0 -21 -12 -33.5t-33 -12.5q-36 0 -59 42q-19 39 -57 39
q-112 0 -112 -188v-75q18 0 154 2q70 2 106 23l21 -8q-5 -95 -5 -181v-75q0 -60 2 -100q2 -33 11 -47t35 -25l-3 -23q-12 0 -24.5 0.5t-19 1t-9.5 0.5q-59 -53 -59 -102q0 -22 12 -34.5t31 -12.5q32 0 46 35z" />
    <glyph glyph-name="ffimacron" unicode="ff&#x12b;" horiz-adv-x="855" 
d="M366 191v107q0 58 -10 71q-9 14 -49 14h-143v-196q0 -39 2 -93q2 -31 13 -46t43 -26l-3 -23q-35 3 -90 3q-45 0 -80 -3l-3 23q26 11 34.5 25t10.5 47q3 32 3 97v148q0 29 -8.5 40t-38.5 18l-4 21q29 7 40 34q7 17 8 25q2 9 6.5 36t5.5 31q19 94 67.5 149t115.5 55
q41 0 66.5 -18.5t25.5 -46.5q0 -17 -10 -27.5t-25 -10.5q-23 0 -44 27q-19 24 -44 24q-91 0 -91 -188v-75h142q37 0 51 26q7 13 10 34q2 5 5.5 25.5t4.5 25.5q41 204 165 204q34 0 59 -20t25 -50q0 -19 -11 -31t-28 -12q-28 0 -41 34q-10 27 -35 27q-34 0 -54.5 -46.5
t-20.5 -141.5v-75q20 0 40 1l40 2t29 1l8 -17l-8 -37h-109v-196q0 -39 2 -93q2 -31 13 -46t43 -26l-3 -23q-35 3 -90 3q-45 0 -80 -3l-3 23q26 11 34.5 25t10.5 47q3 32 3 97zM762 269v-75q0 -20 2 -100q1 -32 10 -46.5t36 -25.5l-3 -23q-53 3 -80 3t-80 -3l-3 23
q26 11 35 25t11 47q2 40 2 100v22q-2 105 -6 120q-6 20 -33 28q-5 1 -13 3v21q62 28 106 70l21 -8q-5 -95 -5 -181zM867 557h-270v54h270v-54z" />
    <glyph glyph-name="ffomacron" unicode="ff&#x14d;" horiz-adv-x="1071" 
d="M366 191v107q0 58 -10 71q-9 14 -49 14h-143v-196q0 -39 2 -93q2 -31 13 -46t43 -26l-3 -23q-35 3 -90 3q-45 0 -80 -3l-3 23q26 11 34.5 25t10.5 47q3 32 3 97v148q0 29 -8.5 40t-38.5 18l-4 21q29 7 40 34q7 17 8 25q2 9 6.5 36t5.5 31q19 94 67.5 149t115.5 55
q41 0 66.5 -18.5t25.5 -46.5q0 -17 -10 -27.5t-25 -10.5q-23 0 -44 27q-19 24 -44 24q-91 0 -91 -188v-75h142q37 0 51 26q7 13 10 34q2 5 5.5 25.5t4.5 25.5q41 204 165 204q34 0 59 -20t25 -50q0 -19 -11 -31t-28 -12q-28 0 -41 34q-10 27 -35 27q-34 0 -54.5 -46.5
t-20.5 -141.5v-75q20 0 40 1l40 2t29 1l8 -17l-8 -37h-109v-196q0 -39 2 -93q2 -31 13 -46t43 -26l-3 -23q-35 3 -90 3q-45 0 -80 -3l-3 23q26 11 34.5 25t10.5 47q3 32 3 97zM587 220q0 96 65 166q64 70 157 70q96 0 159 -68q64 -67 64 -168q0 -99 -64 -167
q-63 -69 -154 -69q-98 0 -163 68q-64 67 -64 168zM806 410q-61 0 -99 -48t-38 -133q0 -91 40.5 -144t107.5 -53q60 0 96.5 48.5t36.5 133.5q0 87 -41 142q-41 54 -103 54zM943 617h-270v54h270v-54z" />
    <glyph glyph-name="fflcommaaccent" unicode="ff&#x13c;" horiz-adv-x="805" 
d="M375 546q45 202 205 202q48 0 80 -23q26 18 36 27l21 -8q-5 -95 -5 -181v-369q0 -60 2 -100q0 -31 9.5 -46t36.5 -26l-3 -23q-53 3 -80 3t-80 -3l-3 23q26 11 35 25t11 47q2 40 2 100v316q0 53 -2 93q-6 93 -92 93q-112 0 -112 -188v-75q20 0 40 1l40 2t29 1l8 -17
l-8 -37h-109v-189v-28t0.5 -27t1 -22t0.5 -17v-6q0 -31 12 -46t44 -26l-3 -23q-53 3 -90 3q-27 0 -80 -3l-3 23q26 11 35 25t11 47q2 40 2 97v107q0 58 -10 71q-9 14 -49 14h-142v-193v-27t0.5 -26t0.5 -21.5v-15.5v-6q0 -31 12 -46t44 -26l-3 -23q-53 3 -90 3q-27 0 -80 -3
l-3 23q26 11 35 25t11 47q2 40 2 97v148q0 29 -8.5 40t-38.5 18l-4 21q29 7 40 34q7 17 8 25q2 9 6.5 36t5.5 31q19 94 67.5 149t115.5 55q41 0 66.5 -18.5t25.5 -46.5q0 -17 -10 -27.5t-25 -10.5q-23 0 -44 27q-19 24 -44 24q-90 0 -90 -188v-75h141q40 0 50 28q4 12 6 21
q2 7 7 32.5t6 31.5zM737 -151q0 -49 -27.5 -78.5t-86.5 -45.5l-8 25q75 28 75 67q0 26 -28 41q-35 20 -35 46q0 15 11 25.5t28 10.5q28 0 49.5 -26.5t21.5 -64.5z" />
    <glyph glyph-name="ffumacron" unicode="ff&#x16b;" horiz-adv-x="1070" 
d="M366 191v107q0 58 -10 71q-9 14 -49 14h-143v-196q0 -39 2 -93q2 -31 13 -46t43 -26l-3 -23q-35 3 -90 3q-45 0 -80 -3l-3 23q26 11 34.5 25t10.5 47q3 32 3 97v148q0 29 -8.5 40t-38.5 18l-4 21q29 7 40 34q7 17 8 25q2 9 6.5 36t5.5 31q19 94 67.5 149t115.5 55
q41 0 66.5 -18.5t25.5 -46.5q0 -17 -10 -27.5t-25 -10.5q-23 0 -44 27q-19 24 -44 24q-91 0 -91 -188v-75h142q37 0 51 26q7 13 10 34q2 5 5.5 25.5t4.5 25.5q41 204 165 204q34 0 59 -20t25 -50q0 -19 -11 -31t-28 -12q-28 0 -41 34q-10 27 -35 27q-34 0 -54.5 -46.5
t-20.5 -141.5v-75q20 0 40 1l40 2t29 1l8 -17l-8 -37h-109v-196q0 -39 2 -93q2 -31 13 -46t43 -26l-3 -23q-35 3 -90 3q-45 0 -80 -3l-3 23q26 11 34.5 25t10.5 47q3 32 3 97zM972 257v-43q0 -58 3 -90q2 -30 11.5 -41t37.5 -16v-21q-47 -21 -94 -62l-21 5l-3 92l-1 1
q-19 -44 -55.5 -71t-79.5 -27q-77 0 -113 59q-20 35 -20 91v109q0 63 -3 94q-3 30 -13.5 46t-34.5 27l3 22q70 1 125 5q-7 -148 -7 -180v-114q0 -46 21 -70t58 -24q53 0 84.5 34.5t31.5 89.5v70q0 63 -3 94q-2 30 -12.5 45.5t-35.5 27.5l3 22q70 1 125 5q-7 -148 -7 -180z
M943 617h-270v54h270v-54z" />
    <glyph glyph-name="ffgbreve" unicode="ff&#x11f;" horiz-adv-x="1008" 
d="M366 191v107q0 58 -10 71q-9 14 -49 14h-143v-196q0 -39 2 -93q2 -31 13 -46t43 -26l-3 -23q-35 3 -90 3q-45 0 -80 -3l-3 23q26 11 34.5 25t10.5 47q3 32 3 97v148q0 29 -8.5 40t-38.5 18l-4 21q29 7 40 34q7 17 8 25q2 9 6.5 36t5.5 31q19 94 67.5 149t115.5 55
q41 0 66.5 -18.5t25.5 -46.5q0 -17 -10 -27.5t-25 -10.5q-23 0 -44 27q-19 24 -44 24q-91 0 -91 -188v-75h142q37 0 51 26q7 13 10 34q2 5 5.5 25.5t4.5 25.5q41 204 165 204q34 0 59 -20t25 -50q0 -19 -11 -31t-28 -12q-28 0 -41 34q-10 27 -35 27q-34 0 -54.5 -46.5
t-20.5 -141.5v-75q20 0 40 1l40 2t29 1l8 -17l-8 -37h-109v-196q0 -39 2 -93q2 -31 13 -46t43 -26l-3 -23q-35 3 -90 3q-45 0 -80 -3l-3 23q26 11 34.5 25t10.5 47q3 32 3 97zM1014 420l-8 -37h-94q33 -37 33 -98q0 -72 -47 -121q-47 -47 -113 -47q-63 0 -107 37
q-38 -29 -38 -70q0 -47 68 -50l121 -4q69 -2 106.5 -39t37.5 -97q0 -70 -64 -119q-64 -50 -164 -50q-81 0 -125.5 32t-44.5 86q0 67 80 123q-72 26 -72 95q0 65 69 118q-34 46 -34 106q0 69 48 119q48 49 115 49q31 0 65 -10q36 -10 65 -10q54 0 95 4zM918 -123
q0 77 -107 77q-81 0 -122 3q-49 -46 -49 -97q0 -36 31 -57.5t90 -21.5q77 0 117 27t40 69zM779 413q-39 0 -61.5 -31t-22.5 -91q0 -65 23.5 -99.5t66.5 -34.5q84 0 84 123q0 62 -24.5 97.5t-65.5 35.5zM661 740l24 2q17 -78 41 -112.5t61 -34.5t61 34.5t41 112.5l24 -2
q-3 -106 -36.5 -160.5t-89.5 -54.5t-89.5 54.5t-36.5 160.5z" />
    <glyph glyph-name="ffebreve" unicode="ff&#x115;" horiz-adv-x="1018" 
d="M366 191v107q0 58 -10 71q-9 14 -49 14h-143v-196q0 -39 2 -93q2 -31 13 -46t43 -26l-3 -23q-35 3 -90 3q-45 0 -80 -3l-3 23q26 11 34.5 25t10.5 47q3 32 3 97v148q0 29 -8.5 40t-38.5 18l-4 21q29 7 40 34q7 17 8 25q2 9 6.5 36t5.5 31q19 94 67.5 149t115.5 55
q41 0 66.5 -18.5t25.5 -46.5q0 -17 -10 -27.5t-25 -10.5q-23 0 -44 27q-19 24 -44 24q-91 0 -91 -188v-75h142q37 0 51 26q7 13 10 34q2 5 5.5 25.5t4.5 25.5q41 204 165 204q34 0 59 -20t25 -50q0 -19 -11 -31t-28 -12q-28 0 -41 34q-10 27 -35 27q-34 0 -54.5 -46.5
t-20.5 -141.5v-75q20 0 40 1l40 2t29 1l8 -17l-8 -37h-109v-196q0 -39 2 -93q2 -31 13 -46t43 -26l-3 -23q-35 3 -90 3q-45 0 -80 -3l-3 23q26 11 34.5 25t10.5 47q3 32 3 97zM587 212q0 104 63 174t156 70q72 0 120 -48q49 -46 49 -119q0 -13 -2 -23h-308q-2 -16 -2 -38
q0 -76 40 -125q41 -48 102 -48q48 0 80.5 18.5t63.5 62.5l24 -15q-25 -63 -71 -100t-107 -37q-92 0 -150 67t-58 161zM672 306h215q-1 48 -29.5 76.5t-73.5 28.5q-43 0 -73 -29t-39 -76zM669 740l24 2q17 -78 41 -112.5t61 -34.5t61 34.5t41 112.5l24 -2
q-3 -106 -36.5 -160.5t-89.5 -54.5t-89.5 54.5t-36.5 160.5z" />
    <glyph glyph-name="ffhcircumflex" unicode="ff&#x125;" horiz-adv-x="1071" 
d="M545 383h-109v-196q0 -39 2 -93q2 -31 13 -46t43 -26l-3 -23q-35 3 -90 3q-45 0 -80 -3l-3 23q26 11 34.5 25t10.5 47q3 32 3 97v107q0 58 -10 71q-9 14 -49 14h-143v-196q0 -39 2 -93q2 -31 13 -46t43 -26l-3 -23q-35 3 -90 3q-45 0 -80 -3l-3 23q26 11 34.5 25t10.5 47
q3 32 3 97v148q0 29 -8.5 40t-38.5 18l-4 21q29 7 40 34q7 17 8 25q2 9 6.5 36t5.5 31q19 94 67.5 149t115.5 55q41 0 66.5 -18.5t25.5 -46.5q0 -17 -10 -27.5t-25 -10.5q-23 0 -44 27q-19 24 -44 24q-91 0 -91 -188v-75h142q17 2 24.5 3.5t14.5 7t11 16.5q1 3 3.5 10
t3.5 10q1 5 5.5 30.5t6.5 33.5q43 204 205 204q48 0 80 -23q26 18 36 27l21 -8q-5 -95 -5 -181l-1 -197l1 -1q22 41 57.5 66t76.5 25q76 0 114 -62q21 -36 21 -88v-115q0 -57 2 -97q2 -33 11 -47t35 -25l-3 -23q-52 3 -80 3t-80 -3l-3 23q26 11 35 25t11 47q2 40 2 97v106
q0 42 -23.5 68t-63.5 26q-51 0 -81.5 -31t-30.5 -80v-89q0 -57 2 -97q2 -33 11 -47t35 -25l-3 -23q-53 3 -80 3t-80 -3l-3 23q26 11 35 25t11 47q2 40 2 97v319q0 53 -2 93q-6 93 -92 93q-112 0 -112 -188v-75q20 0 40 1l40 2t29 1l8 -17zM529 770l-14 21l121 101
q22 18 39 18t39 -19l121 -100l-14 -21l-146 59z" />
    <glyph glyph-name="ffhbar" unicode="ff&#x127;" horiz-adv-x="1071" 
d="M366 191v107q0 58 -10 71q-9 14 -49 14h-143v-196q0 -39 2 -93q2 -31 13 -46t43 -26l-3 -23q-35 3 -90 3q-45 0 -80 -3l-3 23q26 11 34.5 25t10.5 47q3 32 3 97v148q0 29 -8.5 40t-38.5 18l-4 21q29 7 40 34q7 17 8 25q2 9 6.5 36t5.5 31q19 94 67.5 149t115.5 55
q41 0 66.5 -18.5t25.5 -46.5q0 -17 -10 -27.5t-25 -10.5q-23 0 -44 27q-19 24 -44 24q-91 0 -91 -188v-75h142q17 2 24.5 3.5t14.5 7t11 16.5q1 3 3.5 10t3.5 10q1 5 5.5 30.5t6.5 33.5q43 204 205 204q48 0 80 -23q26 18 36 27l21 -8q-5 -88 -5 -166h168v-48h-168v-164
l1 -1q22 41 57 66t76 25q76 0 114 -62q21 -36 21 -88v-115q0 -57 2 -97q2 -33 11 -47t35 -25l-3 -23q-52 3 -80 3t-80 -3l-3 23q26 11 35 25t11 47q2 40 2 97v106q0 42 -23.5 68t-63.5 26q-51 0 -81.5 -31t-30.5 -80v-89q0 -57 2 -97q2 -33 11 -47t35 -25l-3 -23
q-53 3 -80 3t-80 -3l-3 23q26 11 35 25t11 47q2 40 2 97v339h-52v48h51q0 20 -1 25q-6 93 -92 93q-112 0 -112 -188v-75q20 0 40 1l40 2t29 1l8 -17l-8 -37h-109v-196q0 -39 2 -93q2 -31 13 -46t43 -26l-3 -23q-35 3 -90 3q-45 0 -80 -3l-3 23q26 11 34.5 25t10.5 47
q3 32 3 97z" />
    <glyph glyph-name="ffitilde" unicode="ff&#x129;" horiz-adv-x="859" 
d="M366 191v107q0 58 -10 71q-9 14 -49 14h-143v-196q0 -39 2 -93q2 -31 13 -46t43 -26l-3 -23q-35 3 -90 3q-45 0 -80 -3l-3 23q26 11 34.5 25t10.5 47q3 32 3 97v148q0 29 -8.5 40t-38.5 18l-4 21q29 7 40 34q7 17 8 25q2 9 6.5 36t5.5 31q19 94 67.5 149t115.5 55
q41 0 66.5 -18.5t25.5 -46.5q0 -17 -10 -27.5t-25 -10.5q-23 0 -44 27q-19 24 -44 24q-91 0 -91 -188v-75h142q37 0 51 26q7 13 10 34q2 5 5.5 25.5t4.5 25.5q41 204 165 204q34 0 59 -20t25 -50q0 -19 -11 -31t-28 -12q-28 0 -41 34q-10 27 -35 27q-34 0 -54.5 -46.5
t-20.5 -141.5v-75q20 0 40 1l40 2t29 1l8 -17l-8 -37h-109v-196q0 -39 2 -93q2 -31 13 -46t43 -26l-3 -23q-35 3 -90 3q-45 0 -80 -3l-3 23q26 11 34.5 25t10.5 47q3 32 3 97zM766 269v-75q0 -20 2 -100q1 -32 10 -46.5t36 -25.5l-3 -23q-53 3 -80 3t-80 -3l-3 23
q26 11 35 25t11 47q2 40 2 100v22q-2 105 -6 120q-6 20 -33 28q-5 1 -13 3v21q62 28 106 70l21 -8q-5 -95 -5 -181zM745 618q42 -19 60 -19q32 0 63 25l17 -18q-44 -68 -98 -68q-27 0 -60 15q-42 19 -60 19q-32 0 -63 -25l-18 18q44 68 99 68q27 0 60 -15z" />
    <glyph glyph-name="ffibreve" unicode="ff&#x12d;" horiz-adv-x="805" 
d="M366 191v107q0 58 -10 71q-9 14 -49 14h-143v-196q0 -39 2 -93q2 -31 13 -46t43 -26l-3 -23q-35 3 -90 3q-45 0 -80 -3l-3 23q26 11 34.5 25t10.5 47q3 32 3 97v148q0 29 -8.5 40t-38.5 18l-4 21q29 7 40 34q7 17 8 25q2 9 6.5 36t5.5 31q19 94 67.5 149t115.5 55
q41 0 66.5 -18.5t25.5 -46.5q0 -17 -10 -27.5t-25 -10.5q-23 0 -44 27q-19 24 -44 24q-91 0 -91 -188v-75h142q28 0 47 19q1 2 13 36q1 4 3 14t4.5 23.5t3.5 18.5q21 99 65.5 151.5t106.5 52.5q36 0 63 -20.5t27 -49.5q0 -31 -25 -41q26 -42 67 -42q37 0 61 34.5t41 112.5
l24 -2q-3 -106 -36.5 -160.5t-89.5 -54.5q-87 0 -119 131q-10 40 -44 40q-38 0 -60 -46.5t-22 -141.5v-75q18 0 154 2q70 2 106 23l21 -8q-5 -95 -5 -181v-75q0 -60 2 -100q2 -33 11 -47t35 -25l-3 -23q-53 3 -80 3t-80 -3l-3 23q26 11 35 25t11 47q2 40 2 100v38
q0 54 -2 94q-2 34 -17.5 45.5t-60.5 11.5h-126v-196q0 -39 2 -93q2 -31 13 -46t43 -26l-3 -23q-35 3 -90 3q-45 0 -80 -3l-3 23q26 11 34.5 25t10.5 47q3 32 3 97z" />
    <glyph glyph-name="ffij" unicode="ff&#x133;" horiz-adv-x="1053" 
d="M375 546q46 202 205 202q55 0 92 -25t37 -62q0 -21 -12 -33.5t-33 -12.5q-36 0 -59 42q-19 39 -57 39q-112 0 -112 -188v-75q18 0 154 2q70 2 106 23l21 -8q-5 -95 -5 -181v-75q0 -60 2 -100q2 -33 11 -47t35 -25l-3 -23q-53 3 -80 3t-80 -3l-3 23q26 11 35 25t11 47
q2 40 2 100v38q0 54 -2 94q-2 34 -17.5 45.5t-60.5 11.5h-126v-192q0 -25 2 -97q2 -31 13 -46t43 -26l-3 -23q-53 3 -90 3q-27 0 -80 -3l-3 23q26 11 35 25t11 47q2 40 2 97v107q0 58 -10 71q-9 14 -49 14h-143v-192q0 -49 2 -97q2 -31 13 -46t43 -26l-3 -23q-53 3 -90 3
q-27 0 -80 -3l-3 23q26 11 35 25t11 47q2 40 2 97v148q0 29 -8.5 40t-38.5 18l-4 21q29 7 40 34q7 17 8 25q2 9 6.5 36t5.5 31q19 94 67.5 149t115.5 55q41 0 66.5 -18.5t25.5 -46.5q0 -17 -10 -27.5t-25 -10.5q-23 0 -44 27q-19 24 -44 24q-91 0 -91 -188v-75h142
q40 0 50 28q4 12 6 21q2 7 7 32.5t6 31.5zM968 269v-253q0 -79 1 -100q-6 -54 -37 -102t-79 -78l-17 18q35 45 49 93q13 45 13 122v247q0 62 -3 94q-2 30 -11.5 41t-37.5 16v21q65 32 106 70l21 -8q-5 -95 -5 -181zM893 638q-16 16 -16 40t16 40t40 16t40 -16t16 -40
t-16 -40t-40 -16t-40 16z" />
    <glyph glyph-name="ffjcircumflex" unicode="ff&#x135;" horiz-adv-x="828" 
d="M366 191v107q0 58 -10 71q-9 14 -49 14h-143v-196q0 -39 2 -93q2 -31 13 -46t43 -26l-3 -23q-35 3 -90 3q-45 0 -80 -3l-3 23q26 11 34.5 25t10.5 47q3 32 3 97v148q0 29 -8.5 40t-38.5 18l-4 21q29 7 40 34q7 17 8 25q2 9 6.5 36t5.5 31q19 94 67.5 149t115.5 55
q41 0 66.5 -18.5t25.5 -46.5q0 -17 -10 -27.5t-25 -10.5q-23 0 -44 27q-19 24 -44 24q-91 0 -91 -188v-75h142q37 0 51 26q7 13 10 34q2 5 5.5 25.5t4.5 25.5q41 204 165 204q34 0 59 -20t25 -50q0 -19 -11 -31t-28 -12q-28 0 -41 34q-10 27 -35 27q-34 0 -54.5 -46.5
t-20.5 -141.5v-75q20 0 40 1l40 2t29 1l8 -17l-8 -37h-109v-196q0 -39 2 -93q2 -31 13 -46t43 -26l-3 -23q-35 3 -90 3q-45 0 -80 -3l-3 23q26 11 34.5 25t10.5 47q3 32 3 97zM743 269v-253q0 -80 1 -100q-6 -54 -37 -102t-79 -78l-17 18q35 45 49 93q13 45 13 122v247
q-2 105 -6 120q-6 20 -33 28q-5 1 -13 3v21q62 28 106 70l21 -8q-5 -95 -5 -181zM604 505l-21 13l97 205q10 24 29 24t29 -24l97 -205l-21 -13l-105 134z" />
    <glyph glyph-name="ffldot" unicode="ff&#x140;" horiz-adv-x="918" 
d="M375 546q45 202 205 202q48 0 80 -23q26 18 36 27l21 -8q-5 -95 -5 -181v-369q0 -60 2 -100q0 -31 9.5 -46t36.5 -26l-3 -23q-53 3 -80 3t-80 -3l-3 23q26 11 35 25t11 47q2 40 2 100v316q0 53 -2 93q-6 93 -92 93q-112 0 -112 -188v-75q20 0 40 1l40 2t29 1l8 -17
l-8 -37h-109v-189v-28t0.5 -27t1 -22t0.5 -17v-6q0 -31 12 -46t44 -26l-3 -23q-53 3 -90 3q-27 0 -80 -3l-3 23q26 11 35 25t11 47q2 40 2 97v107q0 58 -10 71q-9 14 -49 14h-142v-193v-27t0.5 -26t0.5 -21.5v-15.5v-6q0 -31 12 -46t44 -26l-3 -23q-53 3 -90 3q-27 0 -80 -3
l-3 23q26 11 35 25t11 47q2 40 2 97v148q0 29 -8.5 40t-38.5 18l-4 21q29 7 40 34q7 17 8 25q2 9 6.5 36t5.5 31q19 94 67.5 149t115.5 55q41 0 66.5 -18.5t25.5 -46.5q0 -17 -10 -27.5t-25 -10.5q-23 0 -44 27q-19 24 -44 24q-90 0 -90 -188v-75h141q40 0 50 28q4 12 6 21
q2 7 7 32.5t6 31.5zM822 194q-16 16 -16 40t16 40t40 16t40 -16t16 -40t-16 -40t-40 -16t-40 16z" />
    <glyph glyph-name="ffnapostrophe" unicode="ff&#x149;" horiz-adv-x="1079" 
d="M366 191v107q0 58 -10 71q-9 14 -49 14h-143v-196q0 -39 2 -93q2 -31 13 -46t43 -26l-3 -23q-35 3 -90 3q-45 0 -80 -3l-3 23q26 11 34.5 25t10.5 47q3 32 3 97v148q0 29 -8.5 40t-38.5 18l-4 21q29 7 40 34q7 17 8 25q2 9 6.5 36t5.5 31q19 94 67.5 149t115.5 55
q41 0 66.5 -18.5t25.5 -46.5q0 -17 -10 -27.5t-25 -10.5q-23 0 -44 27q-19 24 -44 24q-91 0 -91 -188v-75h142q37 0 51 26q7 13 10 34q2 5 5.5 25.5t4.5 25.5q41 204 165 204q34 0 59 -20t25 -50q0 -19 -11 -31t-28 -12q-28 0 -41 34q-10 27 -35 27q-34 0 -54.5 -46.5
t-20.5 -141.5v-75q20 0 40 1l40 2t29 1l8 -17l-8 -37h-109v-196q0 -39 2 -93q2 -31 13 -46t43 -26l-3 -23q-35 3 -90 3q-45 0 -80 -3l-3 23q26 11 34.5 25t10.5 47q3 32 3 97zM989 306v-115q0 -55 2 -97q2 -33 11 -47t35 -25l-3 -23q-80 7 -160 0l-3 23q26 11 34.5 25
t10.5 47q3 32 3 97v106q0 42 -23.5 68t-63.5 26q-51 0 -81.5 -31t-30.5 -80v-89q0 -55 2 -97q2 -33 11 -47t35 -25l-3 -23q-80 7 -160 0l-3 23q26 11 34.5 25t10.5 47q3 32 3 97v25q0 62 -3 94q-2 30 -11.5 41t-37.5 16v21q65 32 106 70l21 -8q-5 -50 -6 -84l1 -1
q48 91 134 91q76 0 114 -62q21 -38 21 -88zM774 661q0 -49 -27.5 -78.5t-86.5 -45.5l-8 25q75 28 75 67q0 26 -28 41q-35 20 -35 46q0 15 11 25.5t28 10.5q28 0 49.5 -26.5t21.5 -64.5z" />
    <glyph glyph-name="ffobreve" unicode="ff&#x14f;" horiz-adv-x="1071" 
d="M366 191v107q0 58 -10 71q-9 14 -49 14h-143v-196q0 -39 2 -93q2 -31 13 -46t43 -26l-3 -23q-35 3 -90 3q-45 0 -80 -3l-3 23q26 11 34.5 25t10.5 47q3 32 3 97v148q0 29 -8.5 40t-38.5 18l-4 21q29 7 40 34q7 17 8 25q2 9 6.5 36t5.5 31q19 94 67.5 149t115.5 55
q41 0 66.5 -18.5t25.5 -46.5q0 -17 -10 -27.5t-25 -10.5q-23 0 -44 27q-19 24 -44 24q-91 0 -91 -188v-75h142q37 0 51 26q7 13 10 34q2 5 5.5 25.5t4.5 25.5q41 204 165 204q34 0 59 -20t25 -50q0 -19 -11 -31t-28 -12q-28 0 -41 34q-10 27 -35 27q-34 0 -54.5 -46.5
t-20.5 -141.5v-75q20 0 40 1l40 2t29 1l8 -17l-8 -37h-109v-196q0 -39 2 -93q2 -31 13 -46t43 -26l-3 -23q-35 3 -90 3q-45 0 -80 -3l-3 23q26 11 34.5 25t10.5 47q3 32 3 97zM587 220q0 96 65 166q64 70 157 70q96 0 159 -68q64 -67 64 -168q0 -99 -64 -167
q-63 -69 -154 -69q-98 0 -163 68q-64 67 -64 168zM806 410q-61 0 -99 -48t-38 -133q0 -91 40.5 -144t107.5 -53q60 0 96.5 48.5t36.5 133.5q0 87 -41 142q-41 54 -103 54zM682 740l24 2q17 -78 41 -112.5t61 -34.5t61 34.5t41 112.5l24 -2q-3 -106 -36.5 -160.5t-89.5 -54.5
t-89.5 54.5t-36.5 160.5z" />
    <glyph glyph-name="ffscircumflex" unicode="ff&#x15d;" horiz-adv-x="886" 
d="M366 191v107q0 58 -10 71q-9 14 -49 14h-143v-196q0 -39 2 -93q2 -31 13 -46t43 -26l-3 -23q-35 3 -90 3q-45 0 -80 -3l-3 23q26 11 34.5 25t10.5 47q3 32 3 97v148q0 29 -8.5 40t-38.5 18l-4 21q29 7 40 34q7 17 8 25q2 9 6.5 36t5.5 31q19 94 67.5 149t115.5 55
q41 0 66.5 -18.5t25.5 -46.5q0 -17 -10 -27.5t-25 -10.5q-23 0 -44 27q-19 24 -44 24q-91 0 -91 -188v-75h142q37 0 51 26q7 13 10 34q2 5 5.5 25.5t4.5 25.5q41 204 165 204q34 0 59 -20t25 -50q0 -19 -11 -31t-28 -12q-28 0 -41 34q-10 27 -35 27q-34 0 -54.5 -46.5
t-20.5 -141.5v-75q20 0 40 1l40 2t29 1l8 -17l-8 -37h-109v-196q0 -39 2 -93q2 -31 13 -46t43 -26l-3 -23q-35 3 -90 3q-45 0 -80 -3l-3 23q26 11 34.5 25t10.5 47q3 32 3 97zM577 73q0 18 10 29t27 11q32 0 43 -39q13 -48 60 -48q72 0 72 67q0 31 -19.5 53t-68.5 47
q-110 56 -110 136q0 53 38 89q38 37 93 37q52 0 90 -29q26 -21 26 -49q0 -16 -9.5 -26t-25.5 -10q-27 0 -42 34q-17 38 -54 38q-25 0 -41.5 -16t-16.5 -41q0 -30 21 -53.5t73 -49.5q58 -28 83.5 -60.5t25.5 -80.5q0 -57 -39.5 -92.5t-99.5 -35.5q-68 0 -106 32
q-30 26 -30 57zM620 505l-21 13l97 205q10 24 29 24t29 -24l97 -205l-21 -13l-105 134z" />
    <glyph glyph-name="ffubreve" unicode="ff&#x16d;" horiz-adv-x="1070" 
d="M366 191v107q0 58 -10 71q-9 14 -49 14h-143v-196q0 -39 2 -93q2 -31 13 -46t43 -26l-3 -23q-35 3 -90 3q-45 0 -80 -3l-3 23q26 11 34.5 25t10.5 47q3 32 3 97v148q0 29 -8.5 40t-38.5 18l-4 21q29 7 40 34q7 17 8 25q2 9 6.5 36t5.5 31q19 94 67.5 149t115.5 55
q41 0 66.5 -18.5t25.5 -46.5q0 -17 -10 -27.5t-25 -10.5q-23 0 -44 27q-19 24 -44 24q-91 0 -91 -188v-75h142q37 0 51 26q7 13 10 34q2 5 5.5 25.5t4.5 25.5q41 204 165 204q34 0 59 -20t25 -50q0 -19 -11 -31t-28 -12q-28 0 -41 34q-10 27 -35 27q-34 0 -54.5 -46.5
t-20.5 -141.5v-75q20 0 40 1l40 2t29 1l8 -17l-8 -37h-109v-196q0 -39 2 -93q2 -31 13 -46t43 -26l-3 -23q-35 3 -90 3q-45 0 -80 -3l-3 23q26 11 34.5 25t10.5 47q3 32 3 97zM972 257v-43q0 -58 3 -90q2 -30 11.5 -41t37.5 -16v-21q-47 -21 -94 -62l-21 5l-3 92l-1 1
q-19 -44 -55.5 -71t-79.5 -27q-77 0 -113 59q-20 35 -20 91v109q0 63 -3 94q-3 30 -13.5 46t-34.5 27l3 22q70 1 125 5q-7 -148 -7 -180v-114q0 -46 21 -70t58 -24q53 0 84.5 34.5t31.5 89.5v70q0 63 -3 94q-2 30 -12.5 45.5t-35.5 27.5l3 22q70 1 125 5q-7 -148 -7 -180z
M677 740l24 2q17 -78 41 -112.5t61 -34.5t61 34.5t41 112.5l24 -2q-3 -106 -36.5 -160.5t-89.5 -54.5t-89.5 54.5t-36.5 160.5z" />
    <glyph glyph-name="longslslash" unicode="&#x17f;&#x142;" horiz-adv-x="554" 
d="M94 191v148q0 29 -8.5 40t-38.5 18l-4 21q34 10 43 45q3 8 8 40q3 17 8 41q46 204 210 204q52 0 84 -23q26 18 36 27l21 -8q-5 -95 -5 -181v-192l93 55l23 -39l-116 -68v-125q0 -60 2 -100q2 -33 11 -47t35 -25l-3 -23q-53 3 -80 3t-80 -3l-3 23q26 11 35 25t11 47
q2 40 2 100v84l-87 -51l-22 39l109 64v180q0 53 -2 93q-6 93 -96 93q-116 0 -116 -188v-321q0 -39 2 -93q2 -31 13 -46t43 -26l-3 -23q-35 3 -90 3q-45 0 -80 -3l-3 23q26 11 34.5 25t10.5 47q3 32 3 97z" />
    <glyph glyph-name="longsthorn" unicode="&#x17f;&#xfe;" horiz-adv-x="805" 
d="M563 28q58 0 92.5 43t34.5 122q0 91 -39 144t-98 53q-51 0 -82 -30.5t-31 -79.5v-118q0 -63 33.5 -98.5t89.5 -35.5zM164 508v-321q0 -39 2 -93q2 -31 13 -46t43 -26l-3 -23q-35 3 -90 3q-45 0 -80 -3l-3 23q26 11 34.5 25t10.5 47q3 32 3 97v148q0 29 -8.5 40t-38.5 18
l-4 21q34 10 43 45q3 8 8 40q3 17 8 41q46 204 206 204q48 0 80 -23q26 18 36 27l21 -8q-5 -95 -5 -181l-1 -197l1 -1q21 40 58 65.5t77 25.5q77 0 132 -64q56 -65 56 -168q0 -106 -60 -173t-143 -67q-76 0 -120 36q0 -147 2 -189q0 -31 12 -46t44 -26l-3 -23q-53 3 -90 3
q-27 0 -80 -3l-3 23q26 11 35 25t11 47q2 40 2 97v582q0 53 -2 93q-6 93 -92 93q-112 0 -112 -188z" />
    <glyph glyph-name="longsb" unicode="&#x17f;b" horiz-adv-x="802" 
d="M543 30q66 0 104 50t38 132q0 81 -35 130q-34 48 -92 48q-56 0 -87 -34t-31 -91v-128q0 -107 103 -107zM164 508v-321q0 -39 2 -93q2 -31 13 -46t43 -26l-3 -23q-35 3 -90 3q-45 0 -80 -3l-3 23q26 11 34.5 25t10.5 47q3 32 3 97v148q0 29 -8.5 40t-38.5 18l-4 21
q34 10 43 45q3 8 8 40q3 17 8 41q46 204 206 204q48 0 80 -23q26 18 36 27l21 -8q-5 -95 -5 -181v-201l1 -1q21 43 58 69t81 26q77 0 128 -61q52 -61 52 -156q0 -111 -66 -183q-64 -72 -158 -72q-108 0 -166 40v486q0 53 -2 93q-6 93 -92 93q-112 0 -112 -188z" />
    <glyph glyph-name="longsh" unicode="&#x17f;h" horiz-adv-x="799" 
d="M164 508v-321q0 -39 2 -93q2 -31 13 -46t43 -26l-3 -23q-35 3 -90 3q-45 0 -80 -3l-3 23q26 11 34.5 25t10.5 47q3 32 3 97v148q0 29 -8.5 40t-38.5 18l-4 21q34 10 43 45q3 8 8 40q3 17 8 41q46 204 206 204q48 0 80 -23q26 18 36 27l21 -8q-5 -95 -5 -181v-197l1 -1
q22 41 57 66t76 25q76 0 114 -62q21 -36 21 -88v-115q0 -57 2 -97q2 -33 11 -47t35 -25l-3 -23q-52 3 -80 3t-80 -3l-3 23q26 11 35 25t11 47q2 40 2 97v106q0 42 -23.5 68t-63.5 26q-51 0 -81.5 -31t-30.5 -80v-89q0 -57 2 -97q2 -33 11 -47t35 -25l-3 -23q-53 3 -80 3
t-80 -3l-3 23q26 11 35 25t11 47q2 40 2 97v319q0 53 -2 93q-6 93 -92 93q-112 0 -112 -188z" />
    <glyph glyph-name="longsj" unicode="&#x17f;j" horiz-adv-x="525" 
d="M164 508v-321q0 -39 2 -93q2 -31 13 -46t43 -26l-3 -23q-35 3 -90 3q-45 0 -80 -3l-3 23q26 11 34.5 25t10.5 47q3 32 3 97v148q0 29 -8.5 40t-38.5 18l-4 21q34 10 43 45q3 8 8 40q3 17 8 41q50 204 206 204q55 0 92 -25t37 -62q0 -21 -12 -33.5t-33 -12.5q-36 0 -59 42
q-19 39 -57 39q-112 0 -112 -188zM440 269v-253q0 -80 1 -100q-6 -54 -37 -102t-79 -78l-17 18q35 45 49 93q13 45 13 122v247q-2 105 -6 120q-6 20 -33 28q-5 1 -13 3v21q62 28 106 70l21 -8q-5 -95 -5 -181z" />
    <glyph glyph-name="longsk" unicode="&#x17f;k" horiz-adv-x="731" 
d="M164 508v-321q0 -39 2 -93q2 -31 13 -46t43 -26l-3 -23q-35 3 -90 3q-45 0 -80 -3l-3 23q26 11 34.5 25t10.5 47q3 32 3 97v148q0 29 -8.5 40t-38.5 18l-4 21q34 10 43 45q3 8 8 40q3 17 8 41q46 204 206 204q48 0 80 -23q26 18 36 27l21 -8q-5 -95 -5 -181v-369
q0 -60 2 -100q2 -33 11 -47t35 -25l-3 -23q-53 3 -80 3t-80 -3l-3 23q26 11 35 25t11 47q2 40 2 100v316q0 53 -2 93q-6 93 -92 93q-112 0 -112 -188zM504 164l-51 78l31 28q60 55 79 76q19 22 19 35q0 16 -28 29l4 23q28 -3 69 -3q31 0 74 3l3 -23q-13 -7 -86 -71l-93 -86
q76 -111 128 -172q37 -45 80 -62v-21q-18 -7 -34 -7q-57 0 -106 57q-27 32 -51 63q-4 5 -18 24.5t-20 28.5z" />
    <glyph glyph-name="longsagrave" unicode="&#x17f;&#xe0;" horiz-adv-x="681" 
d="M350 350l-19 32q16 30 51.5 51t76.5 21q75 0 111 -52q30 -45 30 -108v-96q0 -49 2 -91q3 -50 50 -73l-13 -40q-90 4 -104 78h-2q-38 -86 -116 -86q-47 0 -75.5 26.5t-28.5 68.5q0 59 63 100q55 35 154 61v49q0 45 -21 72q-21 28 -63 28q-43 0 -96 -41zM530 152v55
q-12 -3 -58 -23q-88 -37 -88 -86q0 -23 13 -37t37 -14q36 0 65 28q31 28 31 77zM164 508v-321q0 -39 2 -93q2 -31 13 -46t43 -26l-3 -23q-35 3 -90 3q-45 0 -80 -3l-3 23q26 11 34.5 25t10.5 47q3 32 3 97v148q0 29 -8.5 40t-38.5 18l-4 21q35 12 45 47q6 19 7 23
q2 6 5.5 28t4.5 28q41 204 165 204q34 0 59 -20t25 -50q0 -19 -11 -31t-28 -12q-28 0 -41 34q-10 27 -35 27q-34 0 -54.5 -46.5t-20.5 -141.5zM475 694l46 -191l-23 -10l-96 169q-15 26 -15 44t10.5 29.5t27.5 11.5q36 0 50 -53z" />
    <glyph glyph-name="longsacircumflex" unicode="&#x17f;&#xe2;" horiz-adv-x="681" 
d="M350 350l-19 32q16 30 51.5 51t76.5 21q75 0 111 -52q30 -45 30 -108v-96q0 -49 2 -91q3 -50 50 -73l-13 -40q-90 4 -104 78h-2q-38 -86 -116 -86q-47 0 -75.5 26.5t-28.5 68.5q0 59 63 100q55 35 154 61v49q0 45 -21 72q-21 28 -63 28q-43 0 -96 -41zM530 152v55
q-12 -3 -58 -23q-88 -37 -88 -86q0 -23 13 -37t37 -14q36 0 65 28q31 28 31 77zM164 508v-321q0 -39 2 -93q2 -31 13 -46t43 -26l-3 -23q-35 3 -90 3q-45 0 -80 -3l-3 23q26 11 34.5 25t10.5 47q3 32 3 97v148q0 29 -8.5 40t-38.5 18l-4 21q35 12 45 47q6 19 7 23
q2 6 5.5 28t4.5 28q41 204 165 204q34 0 59 -20t25 -50q0 -19 -11 -31t-28 -12q-28 0 -41 34q-10 27 -35 27q-34 0 -54.5 -46.5t-20.5 -141.5zM369 505l-21 13l97 205q10 24 29 24t29 -24l97 -205l-21 -13l-105 134z" />
    <glyph glyph-name="longsatilde" unicode="&#x17f;&#xe3;" horiz-adv-x="701" 
d="M370 350l-19 32q16 30 51.5 51t76.5 21q75 0 111 -52q30 -45 30 -108v-96q0 -49 2 -91q3 -50 50 -73l-13 -40q-90 4 -104 78h-2q-38 -86 -116 -86q-47 0 -75.5 26.5t-28.5 68.5q0 59 63 100q55 35 154 61v49q0 45 -21 72q-21 28 -63 28q-43 0 -96 -41zM550 152v55
q-12 -3 -58 -23q-88 -37 -88 -86q0 -23 13 -37t37 -14q36 0 65 28q31 28 31 77zM164 508v-321q0 -39 2 -93q2 -31 13 -46t43 -26l-3 -23q-35 3 -90 3q-45 0 -80 -3l-3 23q26 11 34.5 25t10.5 47q3 32 3 97v148q0 29 -8.5 40t-38.5 18l-4 21q35 12 45 47q6 19 7 23
q2 6 5.5 28t4.5 28q41 204 165 204q34 0 59 -20t25 -50q0 -19 -11 -31t-28 -12q-28 0 -41 34q-10 27 -35 27q-34 0 -54.5 -46.5t-20.5 -141.5zM512 648q42 -19 60 -19q32 0 63 25l17 -18q-44 -68 -98 -68q-27 0 -60 15q-42 19 -60 19q-32 0 -63 -25l-18 18q44 68 99 68
q27 0 60 -15z" />
    <glyph glyph-name="longsaring" unicode="&#x17f;&#xe5;" horiz-adv-x="691" 
d="M360 350l-19 32q16 30 51.5 51t76.5 21q75 0 111 -52q30 -45 30 -108v-96q0 -49 2 -91q3 -50 50 -73l-13 -40q-90 4 -104 78h-2q-38 -86 -116 -86q-47 0 -75.5 26.5t-28.5 68.5q0 59 63 100q55 35 154 61v49q0 45 -21 72q-21 28 -63 28q-43 0 -96 -41zM540 152v55
q-12 -3 -58 -23q-88 -37 -88 -86q0 -23 13 -37t37 -14q36 0 65 28q31 28 31 77zM164 508v-321q0 -39 2 -93q2 -31 13 -46t43 -26l-3 -23q-35 3 -90 3q-45 0 -80 -3l-3 23q26 11 34.5 25t10.5 47q3 32 3 97v148q0 29 -8.5 40t-38.5 18l-4 21q35 12 45 47q6 19 7 23
q2 6 5.5 28t4.5 28q41 204 165 204q34 0 59 -20t25 -50q0 -19 -11 -31t-28 -12q-28 0 -41 34q-10 27 -35 27q-34 0 -54.5 -46.5t-20.5 -141.5zM414 570q-30 30 -30 73t30 73q30 31 73 31t73 -31q31 -30 31 -73t-31 -73q-30 -30 -73 -30t-73 30zM486 581q26 0 43.5 17.5
t17.5 43.5t-17.5 44.5t-43.5 18.5q-25 0 -42 -18.5t-17 -44.5t17 -43.5t42 -17.5z" />
    <glyph glyph-name="longsedieresis" unicode="&#x17f;&#xeb;" horiz-adv-x="746" 
d="M164 508v-321q0 -39 2 -93q2 -31 13 -46t43 -26l-3 -23q-35 3 -90 3q-45 0 -80 -3l-3 23q26 11 34.5 25t10.5 47q3 32 3 97v148q0 29 -8.5 40t-38.5 18l-4 21q35 12 45 47q6 19 7 23q2 6 5.5 28t4.5 28q41 204 165 204q34 0 59 -20t25 -50q0 -19 -11 -31t-28 -12
q-28 0 -41 34q-10 27 -35 27q-34 0 -54.5 -46.5t-20.5 -141.5zM315 212q0 104 63 174t156 70q72 0 120 -48q49 -46 49 -119q0 -13 -2 -23h-308q-2 -16 -2 -38q0 -76 40 -125q41 -48 102 -48q48 0 80.5 18.5t63.5 62.5l24 -15q-25 -63 -71 -100t-107 -37q-92 0 -150 67
t-58 161zM400 306h215q-1 48 -29.5 76.5t-73.5 28.5q-43 0 -73 -29t-39 -76zM394 651q0 21 14.5 35.5t35.5 14.5q22 0 36.5 -14.5t14.5 -35.5q0 -22 -14.5 -36.5t-36.5 -14.5q-21 0 -35.5 14.5t-14.5 36.5zM563 651q0 21 14.5 35.5t35.5 14.5q22 0 36.5 -14.5t14.5 -35.5
q0 -22 -14.5 -36.5t-36.5 -14.5q-21 0 -35.5 14.5t-14.5 36.5z" />
    <glyph glyph-name="longsiacute" unicode="&#x17f;&#xed;" horiz-adv-x="533" 
d="M385 493l-23 10l46 191q14 53 50 53q17 0 27.5 -11.5t10.5 -29.5t-15 -44zM164 508v-321q0 -39 2 -93q2 -31 13 -46t43 -26l-3 -23q-35 3 -90 3q-45 0 -80 -3l-3 23q26 11 34.5 25t10.5 47q3 32 3 97v148q0 29 -8.5 40t-38.5 18l-4 21q35 12 45 47q6 19 7 23q2 6 5.5 28
t4.5 28q41 204 165 204q34 0 59 -20t25 -50q0 -19 -11 -31t-28 -12q-28 0 -41 34q-10 27 -35 27q-34 0 -54.5 -46.5t-20.5 -141.5zM440 269v-75q0 -60 2 -100q2 -33 11 -47t35 -25l-3 -23q-53 3 -80 3t-80 -3l-3 23q26 11 35 25t11 47q2 40 2 100v22q-2 105 -6 120
q-6 20 -33 28q-5 1 -13 3v21q62 28 106 70l21 -8q-5 -95 -5 -181z" />
    <glyph glyph-name="longsigrave" unicode="&#x17f;&#xec;" horiz-adv-x="533" 
d="M164 508v-321q0 -39 2 -93q2 -31 13 -46t43 -26l-3 -23q-35 3 -90 3q-45 0 -80 -3l-3 23q26 11 34.5 25t10.5 47q3 32 3 97v148q0 29 -8.5 40t-38.5 18l-4 21q34 10 43 45q2 7 7 40q3 17 8 41q47 204 189 204q89 0 112 -92l37 -153l-23 -10l-88 155q-27 48 -69 48
q-95 0 -95 -188zM440 269v-75q0 -60 2 -100q2 -33 11 -47t35 -25l-3 -23q-53 3 -80 3t-80 -3l-3 23q26 11 35 25t11 47q2 40 2 100v22q-2 105 -6 120q-6 20 -33 28q-5 1 -13 3v21q62 28 106 70l21 -8q-5 -95 -5 -181z" />
    <glyph glyph-name="longsicircumflex" unicode="&#x17f;&#xee;" horiz-adv-x="575" 
d="M164 508v-321q0 -39 2 -93q2 -31 13 -46t43 -26l-3 -23q-35 3 -90 3q-45 0 -80 -3l-3 23q26 11 34.5 25t10.5 47q3 32 3 97v148q0 29 -8.5 40t-38.5 18l-4 21q35 12 45 47q6 19 7 23q2 6 5.5 28t4.5 28q41 204 165 204q34 0 59 -20t25 -50q0 -19 -11 -31t-28 -12
q-28 0 -41 34q-10 27 -35 27q-34 0 -54.5 -46.5t-20.5 -141.5zM481 269v-75q0 -20 2 -100q1 -32 10 -46.5t36 -25.5l-3 -23q-52 3 -80 3t-80 -3l-3 23q26 11 35 25t11 47q2 40 2 100v22q-2 105 -6 120q-6 20 -33 28q-5 1 -13 3v21q62 28 106 70l21 -8q-5 -95 -5 -181z
M344 505l-21 13l97 205q10 24 29 24t29 -24l97 -205l-21 -13l-105 134z" />
    <glyph glyph-name="longsidieresis" unicode="&#x17f;&#xef;" horiz-adv-x="593" 
d="M500 269v-75q0 -20 2 -100q1 -32 10 -46.5t36 -25.5l-3 -23q-53 3 -80 3t-80 -3l-3 23q26 11 35 25t11 47q2 40 2 100v22q-2 105 -6 120q-6 20 -33 28q-5 1 -13 3v21q62 28 106 70l21 -8q-5 -95 -5 -181zM335 591q0 21 14.5 35.5t35.5 14.5q22 0 36.5 -14.5t14.5 -35.5
q0 -22 -14.5 -36.5t-36.5 -14.5q-21 0 -35.5 14.5t-14.5 36.5zM504 591q0 21 14.5 35.5t35.5 14.5q22 0 36.5 -14.5t14.5 -35.5q0 -22 -14.5 -36.5t-36.5 -14.5q-21 0 -35.5 14.5t-14.5 36.5zM164 508v-321q0 -39 2 -93q2 -31 13 -46t43 -26l-3 -23q-35 3 -90 3
q-45 0 -80 -3l-3 23q26 11 34.5 25t10.5 47q3 32 3 97v148q0 29 -8.5 40t-38.5 18l-4 21q35 12 45 47q6 19 7 23q2 6 5.5 28t4.5 28q41 204 165 204q34 0 59 -20t25 -50q0 -19 -11 -31t-28 -12q-28 0 -41 34q-10 27 -35 27q-34 0 -54.5 -46.5t-20.5 -141.5z" />
    <glyph glyph-name="longsodieresis" unicode="&#x17f;&#xf6;" horiz-adv-x="799" 
d="M164 508v-321q0 -39 2 -93q2 -31 13 -46t43 -26l-3 -23q-35 3 -90 3q-45 0 -80 -3l-3 23q26 11 34.5 25t10.5 47q3 32 3 97v148q0 29 -8.5 40t-38.5 18l-4 21q35 12 45 47q6 19 7 23q2 6 5.5 28t4.5 28q41 204 165 204q34 0 59 -20t25 -50q0 -19 -11 -31t-28 -12
q-28 0 -41 34q-10 27 -35 27q-34 0 -54.5 -46.5t-20.5 -141.5zM315 220q0 96 65 166q64 70 157 70q96 0 159 -68q64 -67 64 -168q0 -99 -64 -167q-63 -69 -154 -69q-98 0 -163 68q-64 67 -64 168zM534 410q-61 0 -99 -48t-38 -133q0 -91 40.5 -144t107.5 -53q60 0 96.5 48.5
t36.5 133.5q0 87 -41 142q-41 54 -103 54zM397 651q0 21 14.5 35.5t35.5 14.5q22 0 36.5 -14.5t14.5 -35.5q0 -22 -14.5 -36.5t-36.5 -14.5q-21 0 -35.5 14.5t-14.5 36.5zM566 651q0 21 14.5 35.5t35.5 14.5q22 0 36.5 -14.5t14.5 -35.5q0 -22 -14.5 -36.5t-36.5 -14.5
q-21 0 -35.5 14.5t-14.5 36.5z" />
    <glyph glyph-name="longsotilde" unicode="&#x17f;&#xf5;" horiz-adv-x="799" 
d="M164 508v-321q0 -39 2 -93q2 -31 13 -46t43 -26l-3 -23q-35 3 -90 3q-45 0 -80 -3l-3 23q26 11 34.5 25t10.5 47q3 32 3 97v148q0 29 -8.5 40t-38.5 18l-4 21q35 12 45 47q6 19 7 23q2 6 5.5 28t4.5 28q41 204 165 204q34 0 59 -20t25 -50q0 -19 -11 -31t-28 -12
q-28 0 -41 34q-10 27 -35 27q-34 0 -54.5 -46.5t-20.5 -141.5zM315 220q0 96 65 166q64 70 157 70q96 0 159 -68q64 -67 64 -168q0 -99 -64 -167q-63 -69 -154 -69q-98 0 -163 68q-64 67 -64 168zM534 410q-61 0 -99 -48t-38 -133q0 -91 40.5 -144t107.5 -53q60 0 96.5 48.5
t36.5 133.5q0 87 -41 142q-41 54 -103 54zM555 678q42 -19 60 -19q32 0 63 25l17 -18q-44 -68 -98 -68q-27 0 -60 15q-42 19 -60 19q-32 0 -63 -25l-18 18q44 68 99 68q27 0 60 -15z" />
    <glyph glyph-name="longsutilde" unicode="&#x17f;&#x169;" horiz-adv-x="798" 
d="M700 257v-43q0 -58 3 -90q2 -30 11.5 -41t37.5 -16v-21q-47 -21 -94 -62l-21 5l-3 92l-1 1q-19 -44 -55.5 -71t-79.5 -27q-77 0 -113 59q-20 35 -20 91v109q0 63 -3 94q-3 30 -13.5 46t-34.5 27l3 22q70 1 125 5q-7 -148 -7 -180v-114q0 -46 21 -70t58 -24
q53 0 84.5 34.5t31.5 89.5v70q0 63 -3 94q-2 30 -12.5 45.5t-35.5 27.5l3 22q70 1 125 5q-7 -148 -7 -180zM164 508v-321q0 -39 2 -93q2 -31 13 -46t43 -26l-3 -23q-35 3 -90 3q-45 0 -80 -3l-3 23q26 11 34.5 25t10.5 47q3 32 3 97v148q0 29 -8.5 40t-38.5 18l-4 21
q35 12 45 47q6 19 7 23q2 6 5.5 28t4.5 28q41 204 165 204q34 0 59 -20t25 -50q0 -19 -11 -31t-28 -12q-28 0 -41 34q-10 27 -35 27q-34 0 -54.5 -46.5t-20.5 -141.5zM545 678q42 -19 60 -19q32 0 63 25l17 -18q-44 -68 -98 -68q-27 0 -60 15q-42 19 -60 19q-32 0 -63 -25
l-18 18q44 68 99 68q27 0 60 -15z" />
    <glyph glyph-name="longsydieresis" unicode="&#x17f;&#xff;" horiz-adv-x="722" 
d="M456 253l62 -156l66 155q31 71 31 105q0 33 -35 53l4 23q28 -3 68 -3q36 0 65 3l3 -23q-22 -20 -48 -72l-39 -87l-177 -400q-28 -64 -58 -95q-32 -32 -76 -32q-20 0 -33.5 12t-13.5 30t10.5 29.5t27.5 11.5q7 0 22.5 -2.5t21.5 -2.5q29 0 51 48l72 156l-99 245l-40 101
q-11 25 -19.5 35.5t-26.5 22.5l4 23q43 -3 81 -3q26 0 69 3l3 -23q-30 -14 -30 -40q0 -33 34 -117zM396 651q0 21 14.5 35.5t35.5 14.5q22 0 36.5 -14.5t14.5 -35.5q0 -22 -14.5 -36.5t-36.5 -14.5q-21 0 -35.5 14.5t-14.5 36.5zM565 651q0 21 14.5 35.5t35.5 14.5
q22 0 36.5 -14.5t14.5 -35.5q0 -22 -14.5 -36.5t-36.5 -14.5q-21 0 -35.5 14.5t-14.5 36.5zM164 508v-321q0 -39 2 -93q2 -31 13 -46t43 -26l-3 -23q-35 3 -90 3q-45 0 -80 -3l-3 23q26 11 34.5 25t10.5 47q3 32 3 97v148q0 29 -8.5 40t-38.5 18l-4 21q35 12 45 47
q6 19 7 23q2 6 5.5 28t4.5 28q41 204 165 204q34 0 59 -20t25 -50q0 -19 -11 -31t-28 -12q-28 0 -41 34q-10 27 -35 27q-34 0 -54.5 -46.5t-20.5 -141.5z" />
    <glyph glyph-name="longslcaron" unicode="&#x17f;&#x13e;" horiz-adv-x="583" 
d="M94 191v148q0 29 -8.5 40t-38.5 18l-4 21q34 10 43 45q3 8 8 40q3 17 8 41q46 204 206 204q48 0 80 -23q26 18 36 27l21 -8q-5 -95 -5 -181v-369q0 -60 2 -100q0 -31 9.5 -46t36.5 -26l-3 -23q-53 3 -80 3t-80 -3l-3 23q26 11 35 25t11 47q2 40 2 100v316q0 53 -2 93
q-6 93 -92 93q-111 0 -111 -188v-317q0 -17 2 -97q1 -31 12 -46t43 -26l-3 -23q-53 3 -90 3q-27 0 -80 -3l-3 23q26 11 35 25t11 47q2 40 2 97zM631 660q0 -49 -27.5 -78.5t-86.5 -45.5l-8 25q75 29 75 67q0 26 -28 41q-35 20 -35 46q0 15 11 25.5t28 10.5q28 0 49.5 -26.5
t21.5 -64.5z" />
    <glyph glyph-name="longszdotaccent" unicode="&#x17f;&#x17c;" horiz-adv-x="683" 
d="M455 430h86q4 0 100 3l6 -26l-75 -105l-182 -259h77q40 0 78 5q33 5 46 30q11 15 27 60l27 -5q-6 -90 -14 -138q-35 1 -65.5 2.5t-43.5 2t-14 0.5h-65q-21 0 -127 -2l-12 40l70 95l178 254h-62q-48 0 -72 -4q-26 -4 -40.5 -18t-28.5 -50l-26 5q6 75 15 115q75 -5 117 -5z
M164 508v-321q0 -39 2 -93q2 -31 13 -46t43 -26l-3 -23q-35 3 -90 3q-45 0 -80 -3l-3 23q26 11 34.5 25t10.5 47q3 32 3 97v148q0 29 -8.5 40t-38.5 18l-4 21q35 12 45 47q6 19 7 23q2 6 5.5 28t4.5 28q41 204 165 204q34 0 59 -20t25 -50q0 -19 -11 -31t-28 -12
q-28 0 -41 34q-10 27 -35 27q-34 0 -54.5 -46.5t-20.5 -141.5zM441 638q-16 16 -16 40t16 40t40 16t40 -16t16 -40t-16 -40t-40 -16t-40 16z" />
    <glyph glyph-name="longsabreve" unicode="&#x17f;&#x103;" horiz-adv-x="710" 
d="M379 350l-19 32q16 30 51.5 51t76.5 21q75 0 111 -52q30 -45 30 -108v-96q0 -49 2 -91q3 -50 50 -73l-13 -40q-90 4 -104 78h-2q-38 -86 -116 -86q-47 0 -75.5 26.5t-28.5 68.5q0 59 63 100q55 35 154 61v49q0 45 -21 72q-21 28 -63 28q-43 0 -96 -41zM559 152v55
q-12 -3 -58 -23q-88 -37 -88 -86q0 -23 13 -37t37 -14q36 0 65 28q31 28 31 77zM164 508v-321q0 -39 2 -93q2 -31 13 -46t43 -26l-3 -23q-35 3 -90 3q-45 0 -80 -3l-3 23q26 11 34.5 25t10.5 47q3 32 3 97v148q0 29 -8.5 40t-38.5 18l-4 21q35 12 45 47q6 19 7 23
q2 6 5.5 28t4.5 28q41 204 165 204q34 0 59 -20t25 -50q0 -19 -11 -31t-28 -12q-28 0 -41 34q-10 27 -35 27q-34 0 -54.5 -46.5t-20.5 -141.5zM377 740l24 2q17 -78 41 -112.5t61 -34.5t61 34.5t41 112.5l24 -2q-3 -106 -36.5 -160.5t-89.5 -54.5t-89.5 54.5t-36.5 160.5z
" />
    <glyph glyph-name="longslacute" unicode="&#x17f;&#x13a;" horiz-adv-x="533" 
d="M94 191v148q0 29 -8.5 40t-38.5 18l-4 21q34 10 43 45q3 8 8 40q3 17 8 41q46 204 206 204q48 0 80 -23q26 18 36 27l21 -8q-5 -95 -5 -181v-369q0 -60 2 -100q0 -31 9.5 -46t36.5 -26l-3 -23q-53 3 -80 3t-80 -3l-3 23q26 11 35 25t11 47q2 40 2 100v316q0 53 -2 93
q-6 93 -92 93q-111 0 -111 -188v-317q0 -17 2 -97q1 -31 12 -46t43 -26l-3 -23q-53 3 -90 3q-27 0 -80 -3l-3 23q26 11 35 25t11 47q2 40 2 97zM288 767l-9 24l167 102q24 15 43 15q18 0 29 -11.5t11 -29.5t-12.5 -29t-42.5 -19z" />
    <glyph glyph-name="longsecaron" unicode="&#x17f;&#x11b;" horiz-adv-x="746" 
d="M315 212q0 104 63 174t156 70q72 0 120 -48q49 -46 49 -119q0 -13 -2 -23h-308q-2 -16 -2 -38q0 -76 40 -125q41 -48 102 -48q48 0 80.5 18.5t63.5 62.5l24 -15q-25 -63 -71 -100t-107 -37q-92 0 -150 67t-58 161zM400 306h215q-1 48 -29.5 76.5t-73.5 28.5
q-43 0 -73 -29t-39 -76zM494 529l-97 205l21 13l105 -134l105 134l21 -13l-97 -205q-10 -24 -29 -24t-29 24zM164 508v-321q0 -39 2 -93q2 -31 13 -46t43 -26l-3 -23q-35 3 -90 3q-45 0 -80 -3l-3 23q26 11 34.5 25t10.5 47q3 32 3 97v148q0 29 -8.5 40t-38.5 18l-4 21
q35 12 45 47q6 19 7 23q2 6 5.5 28t4.5 28q41 204 165 204q34 0 59 -20t25 -50q0 -19 -11 -31t-28 -12q-28 0 -41 34q-10 27 -35 27q-34 0 -54.5 -46.5t-20.5 -141.5z" />
    <glyph glyph-name="longsrcaron" unicode="&#x17f;&#x159;" horiz-adv-x="626" 
d="M596 371q-9 0 -31.5 9t-30.5 9q-37 0 -61.5 -41t-24.5 -110v-47q0 -55 2 -97q2 -33 13.5 -48t42.5 -24l-3 -23q-35 3 -90 3q-45 0 -80 -3l-3 23q26 11 34.5 25t10.5 47q3 32 3 97v25q0 62 -3 94q-2 30 -11.5 41t-37.5 16v21q65 32 106 70l21 -8q-5 -39 -6 -97l1 -1
q20 49 52 76.5t68 27.5q29 0 46.5 -14t17.5 -36q0 -35 -36 -35zM164 508v-321q0 -39 2 -93q2 -31 13 -46t43 -26l-3 -23q-35 3 -90 3q-45 0 -80 -3l-3 23q26 11 34.5 25t10.5 47q3 32 3 97v148q0 29 -8.5 40t-38.5 18l-4 21q35 12 45 47q6 19 7 23q2 6 5.5 28t4.5 28
q41 204 165 204q34 0 59 -20t25 -50q0 -19 -11 -31t-28 -12q-28 0 -41 34q-10 27 -35 27q-34 0 -54.5 -46.5t-20.5 -141.5zM467 529l-97 205l21 13l105 -134l105 134l21 -13l-97 -205q-10 -24 -29 -24t-29 24z" />
    <glyph glyph-name="longsamacron" unicode="&#x17f;&#x101;" horiz-adv-x="711" 
d="M380 350l-19 32q16 30 51.5 51t76.5 21q75 0 111 -52q30 -45 30 -108v-96q0 -49 2 -91q3 -50 50 -73l-13 -40q-90 4 -104 78h-2q-38 -86 -116 -86q-47 0 -75.5 26.5t-28.5 68.5q0 59 63 100q55 35 154 61v49q0 45 -21 72q-21 28 -63 28q-43 0 -96 -41zM560 152v55
q-12 -3 -58 -23q-88 -37 -88 -86q0 -23 13 -37t37 -14q36 0 65 28q31 28 31 77zM164 508v-321q0 -39 2 -93q2 -31 13 -46t43 -26l-3 -23q-35 3 -90 3q-45 0 -80 -3l-3 23q26 11 34.5 25t10.5 47q3 32 3 97v148q0 29 -8.5 40t-38.5 18l-4 21q35 12 45 47q6 19 7 23
q2 6 5.5 28t4.5 28q41 204 165 204q34 0 59 -20t25 -50q0 -19 -11 -31t-28 -12q-28 0 -41 34q-10 27 -35 27q-34 0 -54.5 -46.5t-20.5 -141.5zM638 587h-270v54h270v-54z" />
    <glyph glyph-name="longsemacron" unicode="&#x17f;&#x113;" horiz-adv-x="746" 
d="M164 508v-321q0 -39 2 -93q2 -31 13 -46t43 -26l-3 -23q-35 3 -90 3q-45 0 -80 -3l-3 23q26 11 34.5 25t10.5 47q3 32 3 97v148q0 29 -8.5 40t-38.5 18l-4 21q35 12 45 47q6 19 7 23q2 6 5.5 28t4.5 28q41 204 165 204q34 0 59 -20t25 -50q0 -19 -11 -31t-28 -12
q-28 0 -41 34q-10 27 -35 27q-34 0 -54.5 -46.5t-20.5 -141.5zM315 212q0 104 63 174t156 70q72 0 120 -48q49 -46 49 -119q0 -13 -2 -23h-308q-2 -16 -2 -38q0 -76 40 -125q41 -48 102 -48q48 0 80.5 18.5t63.5 62.5l24 -15q-25 -63 -71 -100t-107 -37q-92 0 -150 67
t-58 161zM400 306h215q-1 48 -29.5 76.5t-73.5 28.5q-43 0 -73 -29t-39 -76zM665 617h-270v54h270v-54z" />
    <glyph glyph-name="longsiogonek" unicode="&#x17f;&#x12f;" horiz-adv-x="533" 
d="M165 508v-317q0 -17 2 -97q1 -31 12 -46t43 -26l-3 -23q-53 3 -90 3q-27 0 -80 -3l-3 23q26 11 35 25t11 47q2 40 2 97v148q0 29 -8.5 40t-38.5 18l-4 21q34 10 43 45q3 8 8 40q3 17 8 41q50 204 206 204q55 0 92 -25t37 -62q0 -21 -12 -33.5t-33 -12.5q-36 0 -59 42
q-19 39 -57 39q-111 0 -111 -188zM440 269v-75q0 -60 2 -100q2 -33 11 -47t35 -25l-3 -23q-12 0 -24.5 0.5t-19 1t-9.5 0.5q-59 -53 -59 -102q0 -22 12 -34.5t31 -12.5q32 0 46 35l23 -7q-13 -84 -80 -84q-35 0 -58.5 23t-23.5 60q0 67 72 123q-6 0 -33.5 -1.5t-36.5 -1.5
l-3 23q26 11 35 25t11 47q2 40 2 100v22q-2 105 -6 120q-6 20 -33 28q-5 1 -13 3v21q62 28 106 70l21 -8q-5 -95 -5 -181z" />
    <glyph glyph-name="longsimacron" unicode="&#x17f;&#x12b;" horiz-adv-x="583" 
d="M490 269v-75q0 -20 2 -100q1 -32 10 -46.5t36 -25.5l-3 -23q-53 3 -80 3t-80 -3l-3 23q26 11 35 25t11 47q2 40 2 100v22q-2 105 -6 120q-6 20 -33 28q-5 1 -13 3v21q62 28 106 70l21 -8q-5 -95 -5 -181zM595 557h-270v54h270v-54zM164 508v-321q0 -39 2 -93
q2 -31 13 -46t43 -26l-3 -23q-35 3 -90 3q-45 0 -80 -3l-3 23q26 11 34.5 25t10.5 47q3 32 3 97v148q0 29 -8.5 40t-38.5 18l-4 21q35 12 45 47q6 19 7 23q2 6 5.5 28t4.5 28q41 204 165 204q34 0 59 -20t25 -50q0 -19 -11 -31t-28 -12q-28 0 -41 34q-10 27 -35 27
q-34 0 -54.5 -46.5t-20.5 -141.5z" />
    <glyph glyph-name="longsomacron" unicode="&#x17f;&#x14d;" horiz-adv-x="799" 
d="M315 220q0 96 65 166q64 70 157 70q96 0 159 -68q64 -67 64 -168q0 -99 -64 -167q-63 -69 -154 -69q-98 0 -163 68q-64 67 -64 168zM534 410q-61 0 -99 -48t-38 -133q0 -91 40.5 -144t107.5 -53q60 0 96.5 48.5t36.5 133.5q0 87 -41 142q-41 54 -103 54zM671 617h-270v54
h270v-54zM164 508v-321q0 -39 2 -93q2 -31 13 -46t43 -26l-3 -23q-35 3 -90 3q-45 0 -80 -3l-3 23q26 11 34.5 25t10.5 47q3 32 3 97v148q0 29 -8.5 40t-38.5 18l-4 21q35 12 45 47q6 19 7 23q2 6 5.5 28t4.5 28q41 204 165 204q34 0 59 -20t25 -50q0 -19 -11 -31t-28 -12
q-28 0 -41 34q-10 27 -35 27q-34 0 -54.5 -46.5t-20.5 -141.5z" />
    <glyph glyph-name="longslcommaaccent" unicode="&#x17f;&#x13c;" horiz-adv-x="533" 
d="M94 191v148q0 29 -8.5 40t-38.5 18l-4 21q34 10 43 45q3 8 8 40q3 17 8 41q46 204 206 204q48 0 80 -23q26 18 36 27l21 -8q-5 -95 -5 -181v-369q0 -60 2 -100q0 -31 9.5 -46t36.5 -26l-3 -23q-53 3 -80 3t-80 -3l-3 23q26 11 35 25t11 47q2 40 2 100v316q0 53 -2 93
q-6 93 -92 93q-111 0 -111 -188v-317q0 -17 2 -97q1 -31 12 -46t43 -26l-3 -23q-53 3 -90 3q-27 0 -80 -3l-3 23q26 11 35 25t11 47q2 40 2 97zM465 -151q0 -49 -27.5 -78.5t-86.5 -45.5l-8 25q75 28 75 67q0 26 -28 41q-35 20 -35 46q0 15 11 25.5t28 10.5q28 0 49.5 -26.5
t21.5 -64.5z" />
    <glyph glyph-name="longsumacron" unicode="&#x17f;&#x16b;" horiz-adv-x="798" 
d="M700 257v-43q0 -58 3 -90q2 -30 11.5 -41t37.5 -16v-21q-47 -21 -94 -62l-21 5l-3 92l-1 1q-19 -44 -55.5 -71t-79.5 -27q-77 0 -113 59q-20 35 -20 91v109q0 63 -3 94q-3 30 -13.5 46t-34.5 27l3 22q70 1 125 5q-7 -148 -7 -180v-114q0 -46 21 -70t58 -24
q53 0 84.5 34.5t31.5 89.5v70q0 63 -3 94q-2 30 -12.5 45.5t-35.5 27.5l3 22q70 1 125 5q-7 -148 -7 -180zM164 508v-321q0 -39 2 -93q2 -31 13 -46t43 -26l-3 -23q-35 3 -90 3q-45 0 -80 -3l-3 23q26 11 34.5 25t10.5 47q3 32 3 97v148q0 29 -8.5 40t-38.5 18l-4 21
q35 12 45 47q6 19 7 23q2 6 5.5 28t4.5 28q41 204 165 204q34 0 59 -20t25 -50q0 -19 -11 -31t-28 -12q-28 0 -41 34q-10 27 -35 27q-34 0 -54.5 -46.5t-20.5 -141.5zM671 617h-270v54h270v-54z" />
    <glyph glyph-name="longsgbreve" unicode="&#x17f;&#x11f;" horiz-adv-x="736" 
d="M742 420l-8 -37h-94q33 -37 33 -98q0 -72 -47 -121q-47 -47 -113 -47q-63 0 -107 37q-38 -29 -38 -70q0 -47 68 -50l121 -4q69 -2 106.5 -39t37.5 -97q0 -70 -64 -119q-64 -50 -164 -50q-81 0 -125.5 32t-44.5 86q0 67 80 123q-72 26 -72 95q0 65 69 118q-34 46 -34 106
q0 69 48 119q48 49 115 49q31 0 65 -10q36 -10 65 -10q54 0 95 4zM646 -123q0 77 -107 77q-81 0 -122 3q-49 -46 -49 -97q0 -36 31 -57.5t90 -21.5q77 0 117 27t40 69zM507 413q-39 0 -61.5 -31t-22.5 -91q0 -65 23.5 -99.5t66.5 -34.5q84 0 84 123q0 62 -24.5 97.5
t-65.5 35.5zM164 508v-321q0 -39 2 -93q2 -31 13 -46t43 -26l-3 -23q-35 3 -90 3q-45 0 -80 -3l-3 23q26 11 34.5 25t10.5 47q3 32 3 97v148q0 29 -8.5 40t-38.5 18l-4 21q35 12 45 47q6 19 7 23q2 6 5.5 28t4.5 28q41 204 165 204q34 0 59 -20t25 -50q0 -19 -11 -31
t-28 -12q-28 0 -41 34q-10 27 -35 27q-34 0 -54.5 -46.5t-20.5 -141.5zM389 740l24 2q17 -78 41 -112.5t61 -34.5t61 34.5t41 112.5l24 -2q-3 -106 -36.5 -160.5t-89.5 -54.5t-89.5 54.5t-36.5 160.5z" />
    <glyph glyph-name="longsebreve" unicode="&#x17f;&#x115;" horiz-adv-x="746" 
d="M315 212q0 104 63 174t156 70q72 0 120 -48q49 -46 49 -119q0 -13 -2 -23h-308q-2 -16 -2 -38q0 -76 40 -125q41 -48 102 -48q48 0 80.5 18.5t63.5 62.5l24 -15q-25 -63 -71 -100t-107 -37q-92 0 -150 67t-58 161zM400 306h215q-1 48 -29.5 76.5t-73.5 28.5
q-43 0 -73 -29t-39 -76zM397 740l24 2q17 -78 41 -112.5t61 -34.5t61 34.5t41 112.5l24 -2q-3 -106 -36.5 -160.5t-89.5 -54.5t-89.5 54.5t-36.5 160.5zM164 508v-321q0 -39 2 -93q2 -31 13 -46t43 -26l-3 -23q-35 3 -90 3q-45 0 -80 -3l-3 23q26 11 34.5 25t10.5 47
q3 32 3 97v148q0 29 -8.5 40t-38.5 18l-4 21q35 12 45 47q6 19 7 23q2 6 5.5 28t4.5 28q41 204 165 204q34 0 59 -20t25 -50q0 -19 -11 -31t-28 -12q-28 0 -41 34q-10 27 -35 27q-34 0 -54.5 -46.5t-20.5 -141.5z" />
    <glyph glyph-name="longshcircumflex" unicode="&#x17f;&#x125;" horiz-adv-x="799" 
d="M164 508v-321q0 -39 2 -93q2 -31 13 -46t43 -26l-3 -23q-35 3 -90 3q-45 0 -80 -3l-3 23q26 11 34.5 25t10.5 47q3 32 3 97v148q0 29 -8.5 40t-38.5 18l-4 21q34 10 43 45q3 8 8 40q3 17 8 41q46 204 206 204q48 0 80 -23q26 18 36 27l21 -8q-5 -95 -5 -181v-197l1 -1
q22 41 57 66t76 25q76 0 114 -62q21 -36 21 -88v-115q0 -57 2 -97q2 -33 11 -47t35 -25l-3 -23q-52 3 -80 3t-80 -3l-3 23q26 11 35 25t11 47q2 40 2 97v106q0 42 -23.5 68t-63.5 26q-51 0 -81.5 -31t-30.5 -80v-89q0 -57 2 -97q2 -33 11 -47t35 -25l-3 -23q-53 3 -80 3
t-80 -3l-3 23q26 11 35 25t11 47q2 40 2 97v319q0 53 -2 93q-6 93 -92 93q-112 0 -112 -188zM257 770l-14 21l121 101q22 18 39 18t39 -19l121 -100l-14 -21l-146 59z" />
    <glyph glyph-name="longshbar" unicode="&#x17f;&#x127;" horiz-adv-x="799" 
d="M164 508v-321q0 -39 2 -93q2 -31 13 -46t43 -26l-3 -23q-35 3 -90 3q-45 0 -80 -3l-3 23q26 11 34.5 25t10.5 47q3 32 3 97v148q0 29 -8.5 40t-38.5 18l-4 21q34 10 43 45q3 8 8 40q3 17 8 41q46 204 206 204q48 0 80 -23q26 18 36 27l21 -8q-5 -88 -5 -166h168v-48h-169
v-164l1 -1q22 41 57.5 66t76.5 25q76 0 114 -62q21 -36 21 -88v-115q0 -57 2 -97q2 -33 11 -47t35 -25l-3 -23q-52 3 -80 3t-80 -3l-3 23q26 11 35 25t11 47q2 40 2 97v106q0 42 -23.5 68t-63.5 26q-51 0 -81.5 -31t-30.5 -80v-89q0 -57 2 -97q2 -33 11 -47t35 -25l-3 -23
q-53 3 -80 3t-80 -3l-3 23q26 11 35 25t11 47q2 40 2 97v339h-52v48h51q0 20 -1 25q-6 93 -92 93q-112 0 -112 -188z" />
    <glyph glyph-name="longsitilde" unicode="&#x17f;&#x129;" horiz-adv-x="587" 
d="M494 269v-75q0 -20 2 -100q1 -32 10 -46.5t36 -25.5l-3 -23q-53 3 -80 3t-80 -3l-3 23q26 11 35 25t11 47q2 40 2 100v22q-2 105 -6 120q-6 20 -33 28q-5 1 -13 3v21q62 28 106 70l21 -8q-5 -95 -5 -181zM472 618q42 -19 60 -19q32 0 63 25l17 -18q-44 -68 -98 -68
q-27 0 -60 15q-42 19 -60 19q-32 0 -63 -25l-18 18q44 68 99 68q27 0 60 -15zM164 508v-321q0 -39 2 -93q2 -31 13 -46t43 -26l-3 -23q-35 3 -90 3q-45 0 -80 -3l-3 23q26 11 34.5 25t10.5 47q3 32 3 97v148q0 29 -8.5 40t-38.5 18l-4 21q35 12 45 47q6 19 7 23q2 6 5.5 28
t4.5 28q41 204 165 204q34 0 59 -20t25 -50q0 -19 -11 -31t-28 -12q-28 0 -41 34q-10 27 -35 27q-34 0 -54.5 -46.5t-20.5 -141.5z" />
    <glyph glyph-name="longsibreve" unicode="&#x17f;&#x12d;" horiz-adv-x="533" 
d="M164 508v-321q0 -39 2 -93q2 -31 13 -46t43 -26l-3 -23q-35 3 -90 3q-45 0 -80 -3l-3 23q26 11 34.5 25t10.5 47q3 32 3 97v148q0 29 -8.5 40t-38.5 18l-4 21q35 12 45 47q6 19 7 23q2 6 5.5 28t4.5 28q20 99 65 151.5t107 52.5q36 0 63 -20.5t27 -49.5q0 -31 -25 -41
q26 -42 67 -42q37 0 61 34.5t41 112.5l24 -2q-3 -106 -36.5 -160.5t-89.5 -54.5q-87 0 -119 131q-10 40 -44 40q-38 0 -60 -46.5t-22 -141.5zM440 269v-75q0 -60 2 -100q2 -33 11 -47t35 -25l-3 -23q-53 3 -80 3t-80 -3l-3 23q26 11 35 25t11 47q2 40 2 100v22
q-2 105 -6 120q-6 20 -33 28q-5 1 -13 3v21q62 28 106 70l21 -8q-5 -95 -5 -181z" />
    <glyph glyph-name="longsij" unicode="&#x17f;&#x133;" horiz-adv-x="781" 
d="M165 508v-317q0 -17 2 -97q1 -31 12 -46t43 -26l-3 -23q-53 3 -90 3q-27 0 -80 -3l-3 23q26 11 35 25t11 47q2 40 2 97v148q0 29 -8.5 40t-38.5 18l-4 21q34 10 43 45q3 8 8 40q3 17 8 41q50 204 206 204q55 0 92 -25t37 -62q0 -21 -12 -33.5t-33 -12.5q-36 0 -59 42
q-19 39 -57 39q-111 0 -111 -188zM440 269v-75q0 -60 2 -100q2 -33 11 -47t35 -25l-3 -23q-53 3 -80 3t-80 -3l-3 23q26 11 35 25t11 47q2 40 2 100v22q-2 105 -6 120q-6 20 -33 28q-5 1 -13 3v21q62 28 106 70l21 -8q-5 -95 -5 -181zM696 269v-253q0 -79 1 -100
q-6 -54 -37 -102t-79 -78l-17 18q35 45 49 93q13 45 13 122v247q0 62 -3 94q-2 30 -11.5 41t-37.5 16v21q65 32 106 70l21 -8q-5 -95 -5 -181zM621 638q-16 16 -16 40t16 40t40 16t40 -16t16 -40t-16 -40t-40 -16t-40 16z" />
    <glyph glyph-name="longsjcircumflex" unicode="&#x17f;&#x135;" horiz-adv-x="556" 
d="M164 508v-321q0 -39 2 -93q2 -31 13 -46t43 -26l-3 -23q-35 3 -90 3q-45 0 -80 -3l-3 23q26 11 34.5 25t10.5 47q3 32 3 97v148q0 29 -8.5 40t-38.5 18l-4 21q35 12 45 47q6 19 7 23q2 6 5.5 28t4.5 28q41 204 165 204q34 0 59 -20t25 -50q0 -19 -11 -31t-28 -12
q-28 0 -41 34q-10 27 -35 27q-34 0 -54.5 -46.5t-20.5 -141.5zM471 269v-253q0 -80 1 -100q-6 -54 -37 -102t-79 -78l-17 18q35 45 49 93q13 45 13 122v247q-2 105 -6 120q-6 20 -33 28q-5 1 -13 3v21q62 28 106 70l21 -8q-5 -95 -5 -181zM332 505l-21 13l97 205
q10 24 29 24t29 -24l97 -205l-21 -13l-105 134z" />
    <glyph glyph-name="longsldot" unicode="&#x17f;&#x140;" horiz-adv-x="646" 
d="M94 191v148q0 29 -8.5 40t-38.5 18l-4 21q34 10 43 45q3 8 8 40q3 17 8 41q46 204 206 204q48 0 80 -23q26 18 36 27l21 -8q-5 -95 -5 -181v-369q0 -60 2 -100q0 -31 9.5 -46t36.5 -26l-3 -23q-53 3 -80 3t-80 -3l-3 23q26 11 35 25t11 47q2 40 2 100v316q0 53 -2 93
q-6 93 -92 93q-111 0 -111 -188v-317q0 -17 2 -97q1 -31 12 -46t43 -26l-3 -23q-53 3 -90 3q-27 0 -80 -3l-3 23q26 11 35 25t11 47q2 40 2 97zM550 194q-16 16 -16 40t16 40t40 16t40 -16t16 -40t-16 -40t-40 -16t-40 16z" />
    <glyph glyph-name="longsnapostrophe" unicode="&#x17f;&#x149;" horiz-adv-x="807" 
d="M717 306v-115q0 -55 2 -97q2 -33 11 -47t35 -25l-3 -23q-80 7 -160 0l-3 23q26 11 34.5 25t10.5 47q3 32 3 97v106q0 42 -23.5 68t-63.5 26q-51 0 -81.5 -31t-30.5 -80v-89q0 -55 2 -97q2 -33 11 -47t35 -25l-3 -23q-80 7 -160 0l-3 23q26 11 34.5 25t10.5 47q3 32 3 97
v25q0 62 -3 94q-2 30 -11.5 41t-37.5 16v21q65 32 106 70l21 -8q-5 -50 -6 -84l1 -1q48 91 134 91q76 0 114 -62q21 -38 21 -88zM164 508v-321q0 -39 2 -93q2 -31 13 -46t43 -26l-3 -23q-35 3 -90 3q-45 0 -80 -3l-3 23q26 11 34.5 25t10.5 47q3 32 3 97v148q0 29 -8.5 40
t-38.5 18l-4 21q35 12 45 47q6 19 7 23q2 6 5.5 28t4.5 28q41 204 165 204q34 0 59 -20t25 -50q0 -19 -11 -31t-28 -12q-28 0 -41 34q-10 27 -35 27q-34 0 -54.5 -46.5t-20.5 -141.5zM502 661q0 -49 -27.5 -78.5t-86.5 -45.5l-8 25q75 28 75 67q0 26 -28 41q-35 20 -35 46
q0 15 11 25.5t28 10.5q28 0 49.5 -26.5t21.5 -64.5z" />
    <glyph glyph-name="longsobreve" unicode="&#x17f;&#x14f;" horiz-adv-x="799" 
d="M315 220q0 96 65 166q64 70 157 70q96 0 159 -68q64 -67 64 -168q0 -99 -64 -167q-63 -69 -154 -69q-98 0 -163 68q-64 67 -64 168zM534 410q-61 0 -99 -48t-38 -133q0 -91 40.5 -144t107.5 -53q60 0 96.5 48.5t36.5 133.5q0 87 -41 142q-41 54 -103 54zM410 740l24 2
q17 -78 41 -112.5t61 -34.5t61 34.5t41 112.5l24 -2q-3 -106 -36.5 -160.5t-89.5 -54.5t-89.5 54.5t-36.5 160.5zM164 508v-321q0 -39 2 -93q2 -31 13 -46t43 -26l-3 -23q-35 3 -90 3q-45 0 -80 -3l-3 23q26 11 34.5 25t10.5 47q3 32 3 97v148q0 29 -8.5 40t-38.5 18l-4 21
q35 12 45 47q6 19 7 23q2 6 5.5 28t4.5 28q41 204 165 204q34 0 59 -20t25 -50q0 -19 -11 -31t-28 -12q-28 0 -41 34q-10 27 -35 27q-34 0 -54.5 -46.5t-20.5 -141.5z" />
    <glyph glyph-name="longsubreve" unicode="&#x17f;&#x16d;" horiz-adv-x="798" 
d="M700 257v-43q0 -58 3 -90q2 -30 11.5 -41t37.5 -16v-21q-47 -21 -94 -62l-21 5l-3 92l-1 1q-19 -44 -55.5 -71t-79.5 -27q-77 0 -113 59q-20 35 -20 91v109q0 63 -3 94q-3 30 -13.5 46t-34.5 27l3 22q70 1 125 5q-7 -148 -7 -180v-114q0 -46 21 -70t58 -24
q53 0 84.5 34.5t31.5 89.5v70q0 63 -3 94q-2 30 -12.5 45.5t-35.5 27.5l3 22q70 1 125 5q-7 -148 -7 -180zM405 740l24 2q17 -78 41 -112.5t61 -34.5t61 34.5t41 112.5l24 -2q-3 -106 -36.5 -160.5t-89.5 -54.5t-89.5 54.5t-36.5 160.5zM164 508v-321q0 -39 2 -93
q2 -31 13 -46t43 -26l-3 -23q-35 3 -90 3q-45 0 -80 -3l-3 23q26 11 34.5 25t10.5 47q3 32 3 97v148q0 29 -8.5 40t-38.5 18l-4 21q35 12 45 47q6 19 7 23q2 6 5.5 28t4.5 28q41 204 165 204q34 0 59 -20t25 -50q0 -19 -11 -31t-28 -12q-28 0 -41 34q-10 27 -35 27
q-34 0 -54.5 -46.5t-20.5 -141.5z" />
    <glyph glyph-name="longsccaron" unicode="&#x17f;&#x10d;" horiz-adv-x="725" 
d="M601 339q-13 72 -79 72q-59 0 -94.5 -49.5t-35.5 -133.5q0 -77 39 -125t98 -48q48 0 79.5 18t62.5 63l24 -15q-25 -64 -70 -100.5t-106 -36.5q-90 0 -147 67t-57 161q0 104 64 174t159 70q66 0 113 -41q36 -31 36 -74q0 -19 -11 -31.5t-31 -12.5q-37 0 -44 42zM500 529
l-97 205l21 13l105 -134l105 134l21 -13l-97 -205q-10 -24 -29 -24t-29 24zM164 508v-321q0 -39 2 -93q2 -31 13 -46t43 -26l-3 -23q-35 3 -90 3q-45 0 -80 -3l-3 23q26 11 34.5 25t10.5 47q3 32 3 97v148q0 29 -8.5 40t-38.5 18l-4 21q35 12 45 47q6 19 7 23q2 6 5.5 28
t4.5 28q41 204 165 204q34 0 59 -20t25 -50q0 -19 -11 -31t-28 -12q-28 0 -41 34q-10 27 -35 27q-34 0 -54.5 -46.5t-20.5 -141.5z" />
    <glyph glyph-name="fi.trk" unicode="fi" horiz-adv-x="571" 
d="M94 191v148q0 29 -8.5 40t-38.5 18l-4 21q35 12 45 47q6 19 7 23q2 6 5.5 28t4.5 28q41 204 165 204q34 0 59 -20t25 -50q0 -19 -11 -31t-28 -12q-28 0 -41 34q-10 27 -35 27q-34 0 -54 -46.5t-20 -141.5v-75q25 1 64.5 2.5t43.5 1.5l8 -17l-8 -37h-109v-196q0 -39 2 -93
q2 -31 13 -46t43 -26l-3 -23q-35 3 -90 3q-45 0 -80 -3l-3 23q26 11 34.5 25t10.5 47q3 32 3 97zM478 269v-75q0 -58 2 -100q2 -33 11 -47t35 -25l-3 -23q-80 7 -160 0l-3 23q27 11 35 24t10 47q3 31 3 101v22q0 62 -3 94q-2 30 -11.5 41t-37.5 16v21q65 32 106 70l21 -8
q-1 -47 -2.5 -93t-2 -65.5t-0.5 -22.5zM403 638q-16 16 -16 40t16 40t40 16t40 -16t16 -40t-16 -40t-40 -16t-40 16z" />
    <glyph glyph-name="ffi.trk" unicode="ffi" horiz-adv-x="843" 
d="M366 191v107q0 58 -10 71q-9 14 -49 14h-143v-196q0 -39 2 -93q2 -31 13 -46t43 -26l-3 -23q-35 3 -90 3q-45 0 -80 -3l-3 23q26 11 34.5 25t10.5 47q3 32 3 97v148q0 29 -8.5 40t-38.5 18l-4 21q29 7 40 34q7 17 8 25q2 9 6.5 36t5.5 31q19 94 67.5 149t115.5 55
q41 0 66.5 -18.5t25.5 -46.5q0 -17 -10 -27.5t-25 -10.5q-23 0 -44 27q-19 24 -44 24q-91 0 -91 -188v-75h142q37 0 51 26q7 13 10 34q2 5 5.5 25.5t4.5 25.5q41 204 165 204q34 0 59 -20t25 -50q0 -19 -11 -31t-28 -12q-28 0 -41 34q-10 27 -35 27q-34 0 -54.5 -46.5
t-20.5 -141.5v-75q20 0 40 1l40 2t29 1l8 -17l-8 -37h-109v-196q0 -39 2 -93q2 -31 13 -46t43 -26l-3 -23q-35 3 -90 3q-45 0 -80 -3l-3 23q26 11 34.5 25t10.5 47q3 32 3 97zM750 269v-75q0 -58 2 -100q2 -33 11 -47t35 -25l-3 -23q-80 7 -160 0l-3 23q27 11 35 24t10 47
q3 31 3 101v22q0 62 -3 94q-2 30 -11.5 41t-37.5 16v21q65 32 106 70l21 -8q-1 -47 -2.5 -93t-2 -65.5t-0.5 -22.5zM675 638q-16 16 -16 40t16 40t40 16t40 -16t16 -40t-16 -40t-40 -16t-40 16z" />
    <glyph glyph-name="faringacute" unicode="f&#x1fb;" horiz-adv-x="681" 
d="M350 350l-19 32q16 30 51.5 51t76.5 21q75 0 111 -52q30 -45 30 -108v-96q0 -49 2 -91q3 -50 50 -73l-13 -40q-90 4 -104 78h-2q-38 -86 -116 -86q-47 0 -75.5 26.5t-28.5 68.5q0 59 63 100q55 35 154 61v49q0 45 -21 72q-21 28 -63 28q-43 0 -96 -41zM530 152v55
q-12 -3 -58 -23q-88 -37 -88 -86q0 -23 13 -37t37 -14q36 0 65 28q31 28 31 77zM94 191v148q0 29 -8.5 40t-38.5 18l-4 21q35 12 45 47q6 19 7 23q2 6 5.5 28t4.5 28q41 204 165 204q34 0 59 -20t25 -50q0 -19 -11 -31t-28 -12q-28 0 -41 34q-10 27 -35 27q-34 0 -54 -46.5
t-20 -141.5v-75q25 1 64.5 2.5t43.5 1.5l8 -17l-8 -37h-109v-196q0 -39 2 -93q2 -31 13 -46t43 -26l-3 -23q-35 3 -90 3q-45 0 -80 -3l-3 23q26 11 34.5 25t10.5 47q3 32 3 97zM411 540q-30 30 -30 73t30 73q30 31 73 31t73 -31q31 -30 31 -73t-31 -73q-30 -30 -73 -30
t-73 30zM483 551q26 0 43.5 17.5t17.5 43.5t-17.5 44.5t-43.5 18.5q-25 0 -42 -18.5t-17 -44.5t17 -43.5t42 -17.5zM366 737l-9 24l167 102q24 15 43 15q18 0 29 -11.5t11 -29.5t-12.5 -29t-42.5 -19z" />
    <glyph glyph-name="ffaringacute" unicode="ff&#x1fb;" horiz-adv-x="952" 
d="M366 191v107q0 58 -10 71q-9 14 -49 14h-143v-196q0 -39 2 -93q2 -31 13 -46t43 -26l-3 -23q-35 3 -90 3q-45 0 -80 -3l-3 23q26 11 34.5 25t10.5 47q3 32 3 97v148q0 29 -8.5 40t-38.5 18l-4 21q29 7 40 34q7 17 8 25q2 9 6.5 36t5.5 31q19 94 67.5 149t115.5 55
q41 0 66.5 -18.5t25.5 -46.5q0 -17 -10 -27.5t-25 -10.5q-23 0 -44 27q-19 24 -44 24q-91 0 -91 -188v-75h142q37 0 51 26q7 13 10 34q2 5 5.5 25.5t4.5 25.5q41 204 165 204q34 0 59 -20t25 -50q0 -19 -11 -31t-28 -12q-28 0 -41 34q-10 27 -35 27q-34 0 -54.5 -46.5
t-20.5 -141.5v-75q20 0 40 1l40 2t29 1l8 -17l-8 -37h-109v-196q0 -39 2 -93q2 -31 13 -46t43 -26l-3 -23q-35 3 -90 3q-45 0 -80 -3l-3 23q26 11 34.5 25t10.5 47q3 32 3 97zM621 350l-19 32q16 30 51.5 51t76.5 21q75 0 111 -52q30 -45 30 -108v-96q0 -49 2 -91
q3 -50 50 -73l-13 -40q-90 4 -104 78h-2q-38 -86 -116 -86q-47 0 -75.5 26.5t-28.5 68.5q0 59 63 100q55 35 154 61v49q0 45 -21 72q-21 28 -63 28q-43 0 -96 -41zM801 152v55q-12 -3 -58 -23q-88 -37 -88 -86q0 -23 13 -37t37 -14q36 0 65 28q31 28 31 77zM682 540
q-30 30 -30 73t30 73q30 31 73 31t73 -31q31 -30 31 -73t-31 -73q-30 -30 -73 -30t-73 30zM754 551q26 0 43.5 17.5t17.5 43.5t-17.5 44.5t-43.5 18.5q-25 0 -42 -18.5t-17 -44.5t17 -43.5t42 -17.5zM637 737l-9 24l167 102q24 15 43 15q18 0 29 -11.5t11 -29.5t-12.5 -29
t-42.5 -19z" />
    <glyph glyph-name="longsaringacute" unicode="&#x17f;&#x1fb;" horiz-adv-x="674" 
d="M343 350l-19 32q16 30 51.5 51t76.5 21q75 0 111 -52q30 -45 30 -108v-96q0 -49 2 -91q3 -50 50 -73l-13 -40q-90 4 -104 78h-2q-38 -86 -116 -86q-47 0 -75.5 26.5t-28.5 68.5q0 59 63 100q55 35 154 61v49q0 45 -21 72q-21 28 -63 28q-43 0 -96 -41zM523 152v55
q-12 -3 -58 -23q-88 -37 -88 -86q0 -23 13 -37t37 -14q36 0 65 28q31 28 31 77zM164 508v-321q0 -39 2 -93q2 -31 13 -46t43 -26l-3 -23q-35 3 -90 3q-45 0 -80 -3l-3 23q26 11 34.5 25t10.5 47q3 32 3 97v148q0 29 -8.5 40t-38.5 18l-4 21q35 12 45 47q6 19 7 23
q2 6 5.5 28t4.5 28q41 204 165 204q34 0 59 -20t25 -50q0 -19 -11 -31t-28 -12q-28 0 -41 34q-10 27 -35 27q-34 0 -54.5 -46.5t-20.5 -141.5zM404 540q-30 30 -30 73t30 73q30 31 73 31t73 -31q31 -30 31 -73t-31 -73q-30 -30 -73 -30t-73 30zM476 551q26 0 43.5 17.5
t17.5 43.5t-17.5 44.5t-43.5 18.5q-25 0 -42 -18.5t-17 -44.5t17 -43.5t42 -17.5zM359 737l-9 24l167 102q24 15 43 15q18 0 29 -11.5t11 -29.5t-12.5 -29t-42.5 -19z" />
    <glyph glyph-name="fadblgrave" unicode="f&#x201;" horiz-adv-x="701" 
d="M370 350l-19 32q16 30 51.5 51t76.5 21q75 0 111 -52q30 -45 30 -108v-96q0 -49 2 -91q3 -50 50 -73l-13 -40q-90 4 -104 78h-2q-38 -86 -116 -86q-47 0 -75.5 26.5t-28.5 68.5q0 59 63 100q55 35 154 61v49q0 45 -21 72q-21 28 -63 28q-43 0 -96 -41zM550 152v55
q-12 -3 -58 -23q-88 -37 -88 -86q0 -23 13 -37t37 -14q36 0 65 28q31 28 31 77zM94 191v148q0 29 -8.5 40t-38.5 18l-4 21q35 12 45 47q6 19 7 23q2 6 5.5 28t4.5 28q41 204 165 204q34 0 59 -20t25 -50q0 -19 -11 -31t-28 -12q-28 0 -41 34q-10 27 -35 27q-34 0 -54 -46.5
t-20 -141.5v-75q25 1 64.5 2.5t43.5 1.5l8 -17l-8 -37h-109v-196q0 -39 2 -93q2 -31 13 -46t43 -26l-3 -23q-35 3 -90 3q-45 0 -80 -3l-3 23q26 11 34.5 25t10.5 47q3 32 3 97zM565 699l35 -148l-21 -9l-75 130q-13 22 -13 38t8.5 26.5t22.5 10.5q31 0 43 -48zM443 699
l35 -148l-21 -9l-75 130q-13 22 -13 38t8.5 26.5t22.5 10.5q31 0 43 -48z" />
    <glyph glyph-name="ffadblgrave" unicode="ff&#x201;" horiz-adv-x="973" 
d="M366 191v107q0 58 -10 71q-9 14 -49 14h-143v-196q0 -39 2 -93q2 -31 13 -46t43 -26l-3 -23q-35 3 -90 3q-45 0 -80 -3l-3 23q26 11 34.5 25t10.5 47q3 32 3 97v148q0 29 -8.5 40t-38.5 18l-4 21q29 7 40 34q7 17 8 25q2 9 6.5 36t5.5 31q19 94 67.5 149t115.5 55
q41 0 66.5 -18.5t25.5 -46.5q0 -17 -10 -27.5t-25 -10.5q-23 0 -44 27q-19 24 -44 24q-91 0 -91 -188v-75h142q37 0 51 26q7 13 10 34q2 5 5.5 25.5t4.5 25.5q41 204 165 204q34 0 59 -20t25 -50q0 -19 -11 -31t-28 -12q-28 0 -41 34q-10 27 -35 27q-34 0 -54.5 -46.5
t-20.5 -141.5v-75q20 0 40 1l40 2t29 1l8 -17l-8 -37h-109v-196q0 -39 2 -93q2 -31 13 -46t43 -26l-3 -23q-35 3 -90 3q-45 0 -80 -3l-3 23q26 11 34.5 25t10.5 47q3 32 3 97zM642 350l-19 32q16 30 51.5 51t76.5 21q75 0 111 -52q30 -45 30 -108v-96q0 -49 2 -91
q3 -50 50 -73l-13 -40q-90 4 -104 78h-2q-38 -86 -116 -86q-47 0 -75.5 26.5t-28.5 68.5q0 59 63 100q55 35 154 61v49q0 45 -21 72q-21 28 -63 28q-43 0 -96 -41zM822 152v55q-12 -3 -58 -23q-88 -37 -88 -86q0 -23 13 -37t37 -14q36 0 65 28q31 28 31 77zM837 699l35 -148
l-21 -9l-75 130q-13 22 -13 38t8.5 26.5t22.5 10.5q31 0 43 -48zM715 699l35 -148l-21 -9l-75 130q-13 22 -13 38t8.5 26.5t22.5 10.5q31 0 43 -48z" />
    <glyph glyph-name="longsadblgrave" unicode="&#x17f;&#x201;" horiz-adv-x="704" 
d="M373 350l-19 32q16 30 51.5 51t76.5 21q75 0 111 -52q30 -45 30 -108v-96q0 -49 2 -91q3 -50 50 -73l-13 -40q-90 4 -104 78h-2q-38 -86 -116 -86q-47 0 -75.5 26.5t-28.5 68.5q0 59 63 100q55 35 154 61v49q0 45 -21 72q-21 28 -63 28q-43 0 -96 -41zM553 152v55
q-12 -3 -58 -23q-88 -37 -88 -86q0 -23 13 -37t37 -14q36 0 65 28q31 28 31 77zM164 508v-321q0 -39 2 -93q2 -31 13 -46t43 -26l-3 -23q-35 3 -90 3q-45 0 -80 -3l-3 23q26 11 34.5 25t10.5 47q3 32 3 97v148q0 29 -8.5 40t-38.5 18l-4 21q35 12 45 47q6 19 7 23
q2 6 5.5 28t4.5 28q41 204 165 204q34 0 59 -20t25 -50q0 -19 -11 -31t-28 -12q-28 0 -41 34q-10 27 -35 27q-34 0 -54.5 -46.5t-20.5 -141.5zM568 699l35 -148l-21 -9l-75 130q-13 22 -13 38t8.5 26.5t22.5 10.5q31 0 43 -48zM446 699l35 -148l-21 -9l-75 130
q-13 22 -13 38t8.5 26.5t22.5 10.5q31 0 43 -48z" />
    <glyph glyph-name="fainvbreve" unicode="f&#x203;" horiz-adv-x="681" 
d="M350 350l-19 32q16 30 51.5 51t76.5 21q75 0 111 -52q30 -45 30 -108v-96q0 -49 2 -91q3 -50 50 -73l-13 -40q-90 4 -104 78h-2q-38 -86 -116 -86q-47 0 -75.5 26.5t-28.5 68.5q0 59 63 100q55 35 154 61v49q0 45 -21 72q-21 28 -63 28q-43 0 -96 -41zM530 152v55
q-12 -3 -58 -23q-88 -37 -88 -86q0 -23 13 -37t37 -14q36 0 65 28q31 28 31 77zM94 191v148q0 29 -8.5 40t-38.5 18l-4 21q35 12 45 47q6 19 7 23q2 6 5.5 28t4.5 28q41 204 165 204q34 0 59 -20t25 -50q0 -19 -11 -31t-28 -12q-28 0 -41 34q-10 27 -35 27q-34 0 -54 -46.5
t-20 -141.5v-75q25 1 64.5 2.5t43.5 1.5l8 -17l-8 -37h-109v-196q0 -39 2 -93q2 -31 13 -46t43 -26l-3 -23q-35 3 -90 3q-45 0 -80 -3l-3 23q26 11 34.5 25t10.5 47q3 32 3 97zM368 740l24 2q19 -62 38.5 -86.5t53.5 -24.5t53.5 24.5t38.5 86.5l24 -2q-12 -175 -116 -175
t-116 175z" />
    <glyph glyph-name="ffainvbreve" unicode="ff&#x203;" horiz-adv-x="963" 
d="M366 191v107q0 58 -10 71q-9 14 -49 14h-143v-196q0 -39 2 -93q2 -31 13 -46t43 -26l-3 -23q-35 3 -90 3q-45 0 -80 -3l-3 23q26 11 34.5 25t10.5 47q3 32 3 97v148q0 29 -8.5 40t-38.5 18l-4 21q29 7 40 34q7 17 8 25q2 9 6.5 36t5.5 31q19 94 67.5 149t115.5 55
q41 0 66.5 -18.5t25.5 -46.5q0 -17 -10 -27.5t-25 -10.5q-23 0 -44 27q-19 24 -44 24q-91 0 -91 -188v-75h142q37 0 51 26q7 13 10 34q2 5 5.5 25.5t4.5 25.5q41 204 165 204q34 0 59 -20t25 -50q0 -19 -11 -31t-28 -12q-28 0 -41 34q-10 27 -35 27q-34 0 -54.5 -46.5
t-20.5 -141.5v-75q20 0 40 1l40 2t29 1l8 -17l-8 -37h-109v-196q0 -39 2 -93q2 -31 13 -46t43 -26l-3 -23q-35 3 -90 3q-45 0 -80 -3l-3 23q26 11 34.5 25t10.5 47q3 32 3 97zM632 350l-19 32q16 30 51.5 51t76.5 21q75 0 111 -52q30 -45 30 -108v-96q0 -49 2 -91
q3 -50 50 -73l-13 -40q-90 4 -104 78h-2q-38 -86 -116 -86q-47 0 -75.5 26.5t-28.5 68.5q0 59 63 100q55 35 154 61v49q0 45 -21 72q-21 28 -63 28q-43 0 -96 -41zM812 152v55q-12 -3 -58 -23q-88 -37 -88 -86q0 -23 13 -37t37 -14q36 0 65 28q31 28 31 77zM650 740l24 2
q19 -62 38.5 -86.5t53.5 -24.5t53.5 24.5t38.5 86.5l24 -2q-12 -175 -116 -175t-116 175z" />
    <glyph glyph-name="longsainvbreve" unicode="&#x17f;&#x203;" horiz-adv-x="684" 
d="M353 350l-19 32q16 30 51.5 51t76.5 21q75 0 111 -52q30 -45 30 -108v-96q0 -49 2 -91q3 -50 50 -73l-13 -40q-90 4 -104 78h-2q-38 -86 -116 -86q-47 0 -75.5 26.5t-28.5 68.5q0 59 63 100q55 35 154 61v49q0 45 -21 72q-21 28 -63 28q-43 0 -96 -41zM533 152v55
q-12 -3 -58 -23q-88 -37 -88 -86q0 -23 13 -37t37 -14q36 0 65 28q31 28 31 77zM164 508v-321q0 -39 2 -93q2 -31 13 -46t43 -26l-3 -23q-35 3 -90 3q-45 0 -80 -3l-3 23q26 11 34.5 25t10.5 47q3 32 3 97v148q0 29 -8.5 40t-38.5 18l-4 21q35 12 45 47q6 19 7 23
q2 6 5.5 28t4.5 28q41 204 165 204q34 0 59 -20t25 -50q0 -19 -11 -31t-28 -12q-28 0 -41 34q-10 27 -35 27q-34 0 -54.5 -46.5t-20.5 -141.5zM371 740l24 2q19 -62 38.5 -86.5t53.5 -24.5t53.5 24.5t38.5 86.5l24 -2q-12 -175 -116 -175t-116 175z" />
    <glyph glyph-name="fetilde" unicode="f&#x1ebd;" horiz-adv-x="746" 
d="M315 212q0 104 63 174t156 70q72 0 120 -48q49 -46 49 -119q0 -13 -2 -23h-308q-2 -16 -2 -38q0 -76 40 -125q41 -48 102 -48q48 0 80.5 18.5t63.5 62.5l24 -15q-25 -63 -71 -100t-107 -37q-92 0 -150 67t-58 161zM400 306h215q-1 48 -29.5 76.5t-73.5 28.5
q-43 0 -73 -29t-39 -76zM532 678q42 -19 60 -19q32 0 63 25l17 -18q-44 -68 -98 -68q-27 0 -60 15q-42 19 -60 19q-32 0 -63 -25l-18 18q44 68 99 68q27 0 60 -15zM94 191v148q0 29 -8.5 40t-38.5 18l-4 21q35 12 45 47q6 19 7 23q2 6 5.5 28t4.5 28q41 204 165 204
q34 0 59 -20t25 -50q0 -19 -11 -31t-28 -12q-28 0 -41 34q-10 27 -35 27q-34 0 -54 -46.5t-20 -141.5v-75q25 1 64.5 2.5t43.5 1.5l8 -17l-8 -37h-109v-196q0 -39 2 -93q2 -31 13 -46t43 -26l-3 -23q-35 3 -90 3q-45 0 -80 -3l-3 23q26 11 34.5 25t10.5 47q3 32 3 97z" />
    <glyph glyph-name="ffetilde" unicode="ff&#x1ebd;" horiz-adv-x="1018" 
d="M587 212q0 104 63 174t156 70q72 0 120 -48q49 -46 49 -119q0 -13 -2 -23h-308q-2 -16 -2 -38q0 -76 40 -125q41 -48 102 -48q48 0 80.5 18.5t63.5 62.5l24 -15q-25 -63 -71 -100t-107 -37q-92 0 -150 67t-58 161zM672 306h215q-1 48 -29.5 76.5t-73.5 28.5
q-43 0 -73 -29t-39 -76zM804 678q42 -19 60 -19q32 0 63 25l17 -18q-44 -68 -98 -68q-27 0 -60 15q-42 19 -60 19q-32 0 -63 -25l-18 18q44 68 99 68q27 0 60 -15zM366 191v107q0 58 -10 71q-9 14 -49 14h-143v-196q0 -39 2 -93q2 -31 13 -46t43 -26l-3 -23q-35 3 -90 3
q-45 0 -80 -3l-3 23q26 11 34.5 25t10.5 47q3 32 3 97v148q0 29 -8.5 40t-38.5 18l-4 21q29 7 40 34q7 17 8 25q2 9 6.5 36t5.5 31q19 94 67.5 149t115.5 55q41 0 66.5 -18.5t25.5 -46.5q0 -17 -10 -27.5t-25 -10.5q-23 0 -44 27q-19 24 -44 24q-91 0 -91 -188v-75h142
q37 0 51 26q7 13 10 34q2 5 5.5 25.5t4.5 25.5q41 204 165 204q34 0 59 -20t25 -50q0 -19 -11 -31t-28 -12q-28 0 -41 34q-10 27 -35 27q-34 0 -54.5 -46.5t-20.5 -141.5v-75q20 0 40 1l40 2t29 1l8 -17l-8 -37h-109v-196q0 -39 2 -93q2 -31 13 -46t43 -26l-3 -23
q-35 3 -90 3q-45 0 -80 -3l-3 23q26 11 34.5 25t10.5 47q3 32 3 97z" />
    <glyph glyph-name="longsetilde" unicode="&#x17f;&#x1ebd;" horiz-adv-x="739" 
d="M308 212q0 104 63 174t156 70q72 0 120 -48q49 -46 49 -119q0 -13 -2 -23h-308q-2 -16 -2 -38q0 -76 40 -125q40 -48 102 -48q48 0 80.5 18.5t63.5 62.5l24 -15q-25 -63 -71 -100t-107 -37q-92 0 -150 67t-58 161zM393 306h215q-1 48 -29.5 76.5t-73.5 28.5
q-43 0 -73 -29t-39 -76zM525 678q42 -19 60 -19q32 0 63 25l17 -18q-44 -68 -98 -68q-27 0 -60 15q-42 19 -60 19q-32 0 -63 -25l-18 18q44 68 99 68q27 0 60 -15zM164 508v-321q0 -39 2 -93q2 -31 13 -46t43 -26l-3 -23q-35 3 -90 3q-45 0 -80 -3l-3 23q26 11 34.5 25
t10.5 47q3 32 3 97v148q0 29 -8.5 40t-38.5 18l-4 21q35 12 45 47q6 19 7 23q2 6 5.5 28t4.5 28q41 204 165 204q34 0 59 -20t25 -50q0 -19 -11 -31t-28 -12q-28 0 -41 34q-10 27 -35 27q-34 0 -54.5 -46.5t-20.5 -141.5z" />
    <glyph glyph-name="fedblgrave" unicode="f&#x205;" horiz-adv-x="746" 
d="M315 212q0 104 63 174t156 70q72 0 120 -48q49 -46 49 -119q0 -13 -2 -23h-308q-2 -16 -2 -38q0 -76 40 -125q41 -48 102 -48q48 0 80.5 18.5t63.5 62.5l24 -15q-25 -63 -71 -100t-107 -37q-92 0 -150 67t-58 161zM400 306h215q-1 48 -29.5 76.5t-73.5 28.5
q-43 0 -73 -29t-39 -76zM579 699l49 -188l-21 -9l-94 168q-13 22 -13 40q0 16 9.5 26.5t24.5 10.5q33 0 45 -48zM458 699l48 -188l-20 -9l-94 168q-14 26 -14 40q0 16 9.5 26.5t25.5 10.5q33 0 45 -48zM94 191v148q0 29 -8.5 40t-38.5 18l-4 21q35 12 45 47q6 19 7 23
q2 6 5.5 28t4.5 28q41 204 165 204q34 0 59 -20t25 -50q0 -19 -11 -31t-28 -12q-28 0 -41 34q-10 27 -35 27q-34 0 -54 -46.5t-20 -141.5v-75q25 1 64.5 2.5t43.5 1.5l8 -17l-8 -37h-109v-196q0 -39 2 -93q2 -31 13 -46t43 -26l-3 -23q-35 3 -90 3q-45 0 -80 -3l-3 23
q26 11 34.5 25t10.5 47q3 32 3 97z" />
    <glyph glyph-name="ffedblgrave" unicode="ff&#x205;" horiz-adv-x="1018" 
d="M587 212q0 104 63 174t156 70q72 0 120 -48q49 -46 49 -119q0 -13 -2 -23h-308q-2 -16 -2 -38q0 -76 40 -125q41 -48 102 -48q48 0 80.5 18.5t63.5 62.5l24 -15q-25 -63 -71 -100t-107 -37q-92 0 -150 67t-58 161zM672 306h215q-1 48 -29.5 76.5t-73.5 28.5
q-43 0 -73 -29t-39 -76zM851 699l49 -188l-21 -9l-94 168q-13 22 -13 40q0 16 9.5 26.5t24.5 10.5q33 0 45 -48zM730 699l48 -188l-20 -9l-94 168q-14 26 -14 40q0 16 9.5 26.5t25.5 10.5q33 0 45 -48zM366 191v107q0 58 -10 71q-9 14 -49 14h-143v-196q0 -39 2 -93
q2 -31 13 -46t43 -26l-3 -23q-35 3 -90 3q-45 0 -80 -3l-3 23q26 11 34.5 25t10.5 47q3 32 3 97v148q0 29 -8.5 40t-38.5 18l-4 21q29 7 40 34q7 17 8 25q2 9 6.5 36t5.5 31q19 94 67.5 149t115.5 55q41 0 66.5 -18.5t25.5 -46.5q0 -17 -10 -27.5t-25 -10.5q-23 0 -44 27
q-19 24 -44 24q-91 0 -91 -188v-75h142q37 0 51 26q7 13 10 34q2 5 5.5 25.5t4.5 25.5q41 204 165 204q34 0 59 -20t25 -50q0 -19 -11 -31t-28 -12q-28 0 -41 34q-10 27 -35 27q-34 0 -54.5 -46.5t-20.5 -141.5v-75q20 0 40 1l40 2t29 1l8 -17l-8 -37h-109v-196q0 -39 2 -93
q2 -31 13 -46t43 -26l-3 -23q-35 3 -90 3q-45 0 -80 -3l-3 23q26 11 34.5 25t10.5 47q3 32 3 97z" />
    <glyph glyph-name="longsedblgrave" unicode="&#x17f;&#x205;" horiz-adv-x="739" 
d="M308 212q0 104 63 174t156 70q72 0 120 -48q49 -46 49 -119q0 -13 -2 -23h-308q-2 -16 -2 -38q0 -76 40 -125q40 -48 102 -48q48 0 80.5 18.5t63.5 62.5l24 -15q-25 -63 -71 -100t-107 -37q-92 0 -150 67t-58 161zM393 306h215q-1 48 -29.5 76.5t-73.5 28.5
q-43 0 -73 -29t-39 -76zM572 699l49 -188l-21 -9l-94 168q-13 22 -13 40q0 16 9.5 26.5t24.5 10.5q33 0 45 -48zM451 699l48 -188l-20 -9l-94 168q-14 26 -14 40q0 16 9.5 26.5t25.5 10.5q33 0 45 -48zM164 508v-321q0 -39 2 -93q2 -31 13 -46t43 -26l-3 -23q-35 3 -90 3
q-45 0 -80 -3l-3 23q26 11 34.5 25t10.5 47q3 32 3 97v148q0 29 -8.5 40t-38.5 18l-4 21q35 12 45 47q6 19 7 23q2 6 5.5 28t4.5 28q41 204 165 204q34 0 59 -20t25 -50q0 -19 -11 -31t-28 -12q-28 0 -41 34q-10 27 -35 27q-34 0 -54.5 -46.5t-20.5 -141.5z" />
    <glyph glyph-name="feinvbreve" unicode="f&#x207;" horiz-adv-x="746" 
d="M315 212q0 104 63 174t156 70q72 0 120 -48q49 -46 49 -119q0 -13 -2 -23h-308q-2 -16 -2 -38q0 -76 40 -125q41 -48 102 -48q48 0 80.5 18.5t63.5 62.5l24 -15q-25 -63 -71 -100t-107 -37q-92 0 -150 67t-58 161zM400 306h215q-1 48 -29.5 76.5t-73.5 28.5
q-43 0 -73 -29t-39 -76zM649 527l-24 -2q-17 78 -41 112.5t-61 34.5t-61 -34.5t-41 -112.5l-24 2q3 106 36.5 160.5t89.5 54.5t89.5 -54.5t36.5 -160.5zM94 191v148q0 29 -8.5 40t-38.5 18l-4 21q35 12 45 47q6 19 7 23q2 6 5.5 28t4.5 28q41 204 165 204q34 0 59 -20
t25 -50q0 -19 -11 -31t-28 -12q-28 0 -41 34q-10 27 -35 27q-34 0 -54 -46.5t-20 -141.5v-75q25 1 64.5 2.5t43.5 1.5l8 -17l-8 -37h-109v-196q0 -39 2 -93q2 -31 13 -46t43 -26l-3 -23q-35 3 -90 3q-45 0 -80 -3l-3 23q26 11 34.5 25t10.5 47q3 32 3 97z" />
    <glyph glyph-name="ffeinvbreve" unicode="ff&#x207;" horiz-adv-x="1018" 
d="M587 212q0 104 63 174t156 70q72 0 120 -48q49 -46 49 -119q0 -13 -2 -23h-308q-2 -16 -2 -38q0 -76 40 -125q41 -48 102 -48q48 0 80.5 18.5t63.5 62.5l24 -15q-25 -63 -71 -100t-107 -37q-92 0 -150 67t-58 161zM672 306h215q-1 48 -29.5 76.5t-73.5 28.5
q-43 0 -73 -29t-39 -76zM921 527l-24 -2q-17 78 -41 112.5t-61 34.5t-61 -34.5t-41 -112.5l-24 2q3 106 36.5 160.5t89.5 54.5t89.5 -54.5t36.5 -160.5zM366 191v107q0 58 -10 71q-9 14 -49 14h-143v-196q0 -39 2 -93q2 -31 13 -46t43 -26l-3 -23q-35 3 -90 3q-45 0 -80 -3
l-3 23q26 11 34.5 25t10.5 47q3 32 3 97v148q0 29 -8.5 40t-38.5 18l-4 21q29 7 40 34q7 17 8 25q2 9 6.5 36t5.5 31q19 94 67.5 149t115.5 55q41 0 66.5 -18.5t25.5 -46.5q0 -17 -10 -27.5t-25 -10.5q-23 0 -44 27q-19 24 -44 24q-91 0 -91 -188v-75h142q37 0 51 26
q7 13 10 34q2 5 5.5 25.5t4.5 25.5q41 204 165 204q34 0 59 -20t25 -50q0 -19 -11 -31t-28 -12q-28 0 -41 34q-10 27 -35 27q-34 0 -54.5 -46.5t-20.5 -141.5v-75q20 0 40 1l40 2t29 1l8 -17l-8 -37h-109v-196q0 -39 2 -93q2 -31 13 -46t43 -26l-3 -23q-35 3 -90 3
q-45 0 -80 -3l-3 23q26 11 34.5 25t10.5 47q3 32 3 97z" />
    <glyph glyph-name="longseinvbreve" unicode="&#x17f;&#x207;" horiz-adv-x="739" 
d="M308 212q0 104 63 174t156 70q72 0 120 -48q49 -46 49 -119q0 -13 -2 -23h-308q-2 -16 -2 -38q0 -76 40 -125q40 -48 102 -48q48 0 80.5 18.5t63.5 62.5l24 -15q-25 -63 -71 -100t-107 -37q-92 0 -150 67t-58 161zM393 306h215q-1 48 -29.5 76.5t-73.5 28.5
q-43 0 -73 -29t-39 -76zM642 527l-24 -2q-17 78 -41 112.5t-61 34.5t-61 -34.5t-41 -112.5l-24 2q3 106 36.5 160.5t89.5 54.5t89.5 -54.5t36.5 -160.5zM164 508v-321q0 -39 2 -93q2 -31 13 -46t43 -26l-3 -23q-35 3 -90 3q-45 0 -80 -3l-3 23q26 11 34.5 25t10.5 47
q3 32 3 97v148q0 29 -8.5 40t-38.5 18l-4 21q35 12 45 47q6 19 7 23q2 6 5.5 28t4.5 28q41 204 165 204q34 0 59 -20t25 -50q0 -19 -11 -31t-28 -12q-28 0 -41 34q-10 27 -35 27q-34 0 -54.5 -46.5t-20.5 -141.5z" />
    <glyph glyph-name="fhdotbelow" unicode="f&#x1e25;" horiz-adv-x="799" 
d="M94 191v148q0 29 -8.5 40t-38.5 18l-4 21q34 10 43 45q3 8 8 40q3 17 8 41q46 204 206 204q48 0 80 -23q26 18 36 27l21 -8q-5 -95 -5 -181l-1 -197l1 -1q22 41 57.5 66t76.5 25q76 0 114 -62q21 -36 21 -88v-115q0 -57 2 -97q0 -31 9.5 -46t36.5 -26l-3 -23q-52 3 -80 3
t-80 -3l-3 23q26 11 35 25t11 47q2 40 2 97v106q0 42 -23.5 68t-63.5 26q-51 0 -81.5 -31t-30.5 -80v-89q0 -57 2 -97q0 -31 9.5 -46t36.5 -26l-3 -23q-53 3 -80 3t-80 -3l-3 23q26 11 35 25t11 47q2 40 2 97v319q0 53 -2 93q-6 93 -92 93q-111 0 -111 -188v-75
q25 1 64.5 2.5t43.5 1.5l8 -17l-8 -37h-109v-196q0 -39 2 -93q2 -31 13 -46t43 -26l-3 -23q-35 3 -90 3q-45 0 -80 -3l-3 23q26 11 34.5 25t10.5 47q3 32 3 97zM497 -169q-16 16 -16 40t16 40t40 16t40 -16t16 -40t-16 -40t-40 -16t-40 16z" />
    <glyph glyph-name="ffhdotbelow" unicode="ff&#x1e25;" horiz-adv-x="1071" 
d="M545 383h-109v-196q0 -39 2 -93q2 -31 13 -46t43 -26l-3 -23q-35 3 -90 3q-45 0 -80 -3l-3 23q26 11 34.5 25t10.5 47q3 32 3 97v107q0 58 -10 71q-9 14 -49 14h-143v-196q0 -39 2 -93q2 -31 13 -46t43 -26l-3 -23q-35 3 -90 3q-45 0 -80 -3l-3 23q26 11 34.5 25t10.5 47
q3 32 3 97v148q0 29 -8.5 40t-38.5 18l-4 21q29 7 40 34q7 17 8 25q2 9 6.5 36t5.5 31q19 94 67.5 149t115.5 55q41 0 66.5 -18.5t25.5 -46.5q0 -17 -10 -27.5t-25 -10.5q-23 0 -44 27q-19 24 -44 24q-91 0 -91 -188v-75h142q17 2 24.5 3.5t14.5 7t11 16.5q1 3 3.5 10
t3.5 10q1 5 5.5 30.5t6.5 33.5q43 204 205 204q48 0 80 -23q26 18 36 27l21 -8q-5 -95 -5 -181l-1 -197l1 -1q22 41 57.5 66t76.5 25q76 0 114 -62q21 -36 21 -88v-115q0 -57 2 -97q2 -33 11 -47t35 -25l-3 -23q-52 3 -80 3t-80 -3l-3 23q26 11 35 25t11 47q2 40 2 97v106
q0 42 -23.5 68t-63.5 26q-51 0 -81.5 -31t-30.5 -80v-89q0 -57 2 -97q2 -33 11 -47t35 -25l-3 -23q-53 3 -80 3t-80 -3l-3 23q26 11 35 25t11 47q2 40 2 97v319q0 53 -2 93q-6 93 -92 93q-112 0 -112 -188v-75q20 0 40 1l40 2t29 1l8 -17zM770 -169q-16 16 -16 40t16 40
t40 16t40 -16t16 -40t-16 -40t-40 -16t-40 16z" />
    <glyph glyph-name="longshdotbelow" unicode="&#x17f;&#x1e25;" horiz-adv-x="799" 
d="M164 508v-321q0 -39 2 -93q2 -31 13 -46t43 -26l-3 -23q-35 3 -90 3q-45 0 -80 -3l-3 23q26 11 34.5 25t10.5 47q3 32 3 97v148q0 29 -8.5 40t-38.5 18l-4 21q34 10 43 45q3 8 8 40q3 17 8 41q46 204 206 204q48 0 80 -23q26 18 36 27l21 -8q-5 -95 -5 -181v-197l1 -1
q22 41 57 66t76 25q76 0 114 -62q21 -36 21 -88v-115q0 -57 2 -97q2 -33 11 -47t35 -25l-3 -23q-52 3 -80 3t-80 -3l-3 23q26 11 35 25t11 47q2 40 2 97v106q0 42 -23.5 68t-63.5 26q-51 0 -81.5 -31t-30.5 -80v-89q0 -57 2 -97q2 -33 11 -47t35 -25l-3 -23q-53 3 -80 3
t-80 -3l-3 23q26 11 35 25t11 47q2 40 2 97v319q0 53 -2 93q-6 93 -92 93q-112 0 -112 -188zM497 -169q-16 16 -16 40t16 40t40 16t40 -16t16 -40t-16 -40t-40 -16t-40 16z" />
    <glyph glyph-name="fidotbelow" unicode="f&#x1ecb;" horiz-adv-x="533" 
d="M94 191v148q0 29 -8.5 40t-38.5 18l-4 21q34 10 43 45q3 8 8 40q3 17 8 41q50 204 206 204q55 0 92 -25t37 -62q0 -21 -12 -33.5t-33 -12.5q-36 0 -59 42q-19 39 -57 39q-112 0 -112 -188v-75h154q63 0 106 25l21 -8q-5 -95 -5 -181v-75q0 -20 2 -100q1 -32 10 -46.5
t36 -25.5l-3 -23q-53 3 -80 3t-80 -3l-3 23q26 11 35 25t11 47q2 40 2 100v38q0 54 -2 94q-2 34 -17.5 45.5t-60.5 11.5h-126v-196q0 -39 2 -93q2 -31 13 -46t43 -26l-3 -23q-35 3 -90 3q-45 0 -80 -3l-3 23q26 11 34.5 25t10.5 47q3 32 3 97zM364 -169q-16 16 -16 40t16 40
t40 16t40 -16t16 -40t-16 -40t-40 -16t-40 16z" />
    <glyph glyph-name="ffidotbelow" unicode="ff&#x1ecb;" horiz-adv-x="805" 
d="M375 546q46 202 205 202q55 0 92 -25t37 -62q0 -21 -12 -33.5t-33 -12.5q-36 0 -59 42q-19 39 -57 39q-112 0 -112 -188v-75q18 0 154 2q70 2 106 23l21 -8q-5 -95 -5 -181v-75q0 -60 2 -100q2 -33 11 -47t35 -25l-3 -23q-53 3 -80 3t-80 -3l-3 23q26 11 35 25t11 47
q2 40 2 100v38q0 54 -2 94q-2 34 -17.5 45.5t-60.5 11.5h-126v-192q0 -25 2 -97q2 -31 13 -46t43 -26l-3 -23q-53 3 -90 3q-27 0 -80 -3l-3 23q26 11 35 25t11 47q2 40 2 97v107q0 58 -10 71q-9 14 -49 14h-143v-192q0 -49 2 -97q2 -31 13 -46t43 -26l-3 -23q-53 3 -90 3
q-27 0 -80 -3l-3 23q26 11 35 25t11 47q2 40 2 97v148q0 29 -8.5 40t-38.5 18l-4 21q29 7 40 34q7 17 8 25q2 9 6.5 36t5.5 31q19 94 67.5 149t115.5 55q41 0 66.5 -18.5t25.5 -46.5q0 -17 -10 -27.5t-25 -10.5q-23 0 -44 27q-19 24 -44 24q-91 0 -91 -188v-75h142
q40 0 50 28q4 12 6 21q2 7 7 32.5t6 31.5zM636 -169q-16 16 -16 40t16 40t40 16t40 -16t16 -40t-16 -40t-40 -16t-40 16z" />
    <glyph glyph-name="longsidotbelow" unicode="&#x17f;&#x1ecb;" horiz-adv-x="533" 
d="M165 508v-317q0 -17 2 -97q1 -31 12 -46t43 -26l-3 -23q-53 3 -90 3q-27 0 -80 -3l-3 23q26 11 35 25t11 47q2 40 2 97v148q0 29 -8.5 40t-38.5 18l-4 21q34 10 43 45q3 8 8 40q3 17 8 41q50 204 206 204q55 0 92 -25t37 -62q0 -21 -12 -33.5t-33 -12.5q-36 0 -59 42
q-19 39 -57 39q-111 0 -111 -188zM440 269v-75q0 -60 2 -100q2 -33 11 -47t35 -25l-3 -23q-53 3 -80 3t-80 -3l-3 23q26 11 35 25t11 47q2 40 2 100v22q-2 105 -6 120q-6 20 -33 28q-5 1 -13 3v21q62 28 106 70l21 -8q-5 -95 -5 -181zM365 -169q-16 16 -16 40t16 40t40 16
t40 -16t16 -40t-16 -40t-40 -16t-40 16z" />
    <glyph glyph-name="fidblgrave" unicode="f&#x209;" horiz-adv-x="533" 
d="M222 22l-3 -23q-35 3 -90 3q-45 0 -80 -3l-3 23q26 11 34.5 25t10.5 47q3 32 3 97v148q0 29 -8.5 40t-38.5 18l-4 21q35 12 45 47q6 19 7 23q2 6 5.5 28t4.5 28q41 204 165 204q66 0 83 -63l45 -174l-20 -9l-85 150q-13 25 -24.5 34.5t-29.5 9.5q-34 0 -54.5 -46.5
t-20.5 -141.5v-75l154 2q70 2 106 23l21 -8q-5 -95 -5 -181v-75q0 -60 2 -100q0 -31 9.5 -46t36.5 -26l-3 -23q-53 3 -80 3t-80 -3l-3 23q26 11 35 25t11 47q2 40 2 100v38q0 54 -2 94q-2 34 -17.5 45.5t-60.5 11.5h-126v-196q0 -39 2 -93q2 -31 13 -46t43 -26zM471 699
l49 -188l-21 -9l-94 168q-13 22 -13 40q0 16 9.5 26.5t24.5 10.5q33 0 45 -48z" />
    <glyph glyph-name="ffidblgrave" unicode="ff&#x209;" horiz-adv-x="805" 
d="M436 508v-75q18 0 154 2q70 2 106 23l21 -8q-5 -95 -5 -181v-75q0 -60 2 -100q0 -31 9.5 -46t36.5 -26l-3 -23q-53 3 -80 3t-80 -3l-3 23q26 11 35 25t11 47q2 40 2 100v38q0 54 -2 94q-2 34 -17.5 45.5t-60.5 11.5h-126v-192q0 -25 2 -97q2 -31 13 -46t43 -26l-3 -23
q-53 3 -90 3q-27 0 -80 -3l-3 23q26 11 35 25t11 47q2 40 2 97v107q0 58 -10 71q-9 14 -49 14h-143v-192q0 -49 2 -97q2 -31 13 -46t43 -26l-3 -23q-53 3 -90 3q-27 0 -80 -3l-3 23q26 11 35 25t11 47q2 40 2 97v148q0 29 -8.5 40t-38.5 18l-4 21q29 7 40 34q7 17 8 25
q2 9 6.5 36t5.5 31q19 94 67.5 149t115.5 55q41 0 66.5 -18.5t25.5 -46.5q0 -17 -10 -27.5t-25 -10.5q-23 0 -44 27q-19 24 -44 24q-91 0 -91 -188v-75h142q28 0 47 19q1 2 13 36q1 4 3 14t4.5 23.5t3.5 18.5q43 204 165 204q66 0 83 -63l45 -174l-20 -9l-85 150
q-13 25 -24.5 34.5t-29.5 9.5q-34 0 -54.5 -46.5t-20.5 -141.5zM743 699l49 -188l-21 -9l-94 168q-13 22 -13 40q0 16 9.5 26.5t24.5 10.5q33 0 45 -48z" />
    <glyph glyph-name="longsidblgrave" unicode="&#x17f;&#x209;" horiz-adv-x="534" 
d="M96 503l8 41q44 204 167 204q67 0 83 -63l45 -174l-20 -9l-85 150q-13 25 -24.5 34.5t-29.5 9.5q-34 0 -54.5 -46.5t-20.5 -141.5v-317q0 -17 2 -97q1 -31 12 -46t43 -26l-3 -23q-53 3 -90 3q-27 0 -80 -3l-3 23q26 11 35 25t11 47q2 40 2 97v148q0 29 -8.5 40t-38.5 18
l-4 21q16 5 28 18.5t16 25.5q5 11 9 41zM440 269v-75q0 -60 2 -100q2 -33 11 -47t35 -25l-3 -23q-53 3 -80 3t-80 -3l-3 23q26 11 35 25t11 47q2 40 2 100v22q-2 105 -6 120q-6 20 -33 28q-5 1 -13 3v21q62 28 106 70l21 -8q-5 -95 -5 -181zM472 699l49 -188l-21 -9l-94 168
q-13 22 -13 40q0 16 9.5 26.5t24.5 10.5q33 0 45 -48z" />
    <glyph glyph-name="fiinvbreve" unicode="f&#x20b;" horiz-adv-x="601" 
d="M94 191v148q0 29 -8.5 40t-38.5 18l-4 21q35 12 45 47q6 19 7 23q2 6 5.5 28t4.5 28q41 204 165 204q34 0 59 -20t25 -50q0 -19 -11 -31t-28 -12q-28 0 -41 34q-10 27 -35 27q-34 0 -54 -46.5t-20 -141.5v-75q25 1 64.5 2.5t43.5 1.5l8 -17l-8 -37h-109v-196q0 -39 2 -93
q2 -31 13 -46t43 -26l-3 -23q-35 3 -90 3q-45 0 -80 -3l-3 23q26 11 34.5 25t10.5 47q3 32 3 97zM508 269v-75q0 -20 2 -100q1 -32 10 -46.5t36 -25.5l-3 -23q-53 3 -80 3t-80 -3l-3 23q26 11 35 25t11 47q2 40 2 100v22q-2 105 -6 120q-6 20 -33 28q-5 1 -13 3v21
q62 28 106 70l21 -8q-5 -95 -5 -181zM603 527l-24 -2q-17 78 -41 112.5t-61 34.5t-61 -34.5t-41 -112.5l-24 2q3 106 36.5 160.5t89.5 54.5t89.5 -54.5t36.5 -160.5z" />
    <glyph glyph-name="ffiinvbreve" unicode="ff&#x20b;" horiz-adv-x="881" 
d="M366 191v107q0 58 -10 71q-9 14 -49 14h-143v-196q0 -39 2 -93q2 -31 13 -46t43 -26l-3 -23q-35 3 -90 3q-45 0 -80 -3l-3 23q26 11 34.5 25t10.5 47q3 32 3 97v148q0 29 -8.5 40t-38.5 18l-4 21q29 7 40 34q7 17 8 25q2 9 6.5 36t5.5 31q19 94 67.5 149t115.5 55
q41 0 66.5 -18.5t25.5 -46.5q0 -17 -10 -27.5t-25 -10.5q-23 0 -44 27q-19 24 -44 24q-91 0 -91 -188v-75h142q37 0 51 26q7 13 10 34q2 5 5.5 25.5t4.5 25.5q41 204 165 204q34 0 59 -20t25 -50q0 -19 -11 -31t-28 -12q-28 0 -41 34q-10 27 -35 27q-34 0 -54.5 -46.5
t-20.5 -141.5v-75q20 0 40 1l40 2t29 1l8 -17l-8 -37h-109v-196q0 -39 2 -93q2 -31 13 -46t43 -26l-3 -23q-35 3 -90 3q-45 0 -80 -3l-3 23q26 11 34.5 25t10.5 47q3 32 3 97zM883 527l-24 -2q-17 78 -41 112.5t-61 34.5t-61 -34.5t-41 -112.5l-24 2q3 106 36.5 160.5
t89.5 54.5t89.5 -54.5t36.5 -160.5zM788 269v-75q0 -20 2 -100q1 -32 10 -46.5t36 -25.5l-3 -23q-53 3 -80 3t-80 -3l-3 23q26 11 35 25t11 47q2 40 2 100v22q-2 105 -6 120q-6 20 -33 28q-5 1 -13 3v21q62 28 106 70l21 -8q-5 -95 -5 -181z" />
    <glyph glyph-name="longsiinvbreve" unicode="&#x17f;&#x20b;" horiz-adv-x="601" 
d="M164 508v-321q0 -39 2 -93q2 -31 13 -46t43 -26l-3 -23q-35 3 -90 3q-45 0 -80 -3l-3 23q26 11 34.5 25t10.5 47q3 32 3 97v148q0 29 -8.5 40t-38.5 18l-4 21q35 12 45 47q6 19 7 23q2 6 5.5 28t4.5 28q41 204 165 204q34 0 59 -20t25 -50q0 -19 -11 -31t-28 -12
q-28 0 -41 34q-10 27 -35 27q-34 0 -54.5 -46.5t-20.5 -141.5zM603 527l-24 -2q-17 78 -41 112.5t-61 34.5t-61 -34.5t-41 -112.5l-24 2q3 106 36.5 160.5t89.5 54.5t89.5 -54.5t36.5 -160.5zM508 269v-75q0 -20 2 -100q1 -32 10 -46.5t36 -25.5l-3 -23q-53 3 -80 3t-80 -3
l-3 23q26 11 35 25t11 47q2 40 2 100v22q-2 105 -6 120q-6 20 -33 28q-5 1 -13 3v21q62 28 106 70l21 -8q-5 -95 -5 -181z" />
    <glyph glyph-name="fodblgrave" unicode="f&#x20d;" horiz-adv-x="799" 
d="M315 220q0 96 65 166q64 70 157 70q96 0 159 -68q64 -67 64 -168q0 -99 -64 -167q-63 -69 -154 -69q-98 0 -163 68q-64 67 -64 168zM534 410q-61 0 -99 -48t-38 -133q0 -91 40.5 -144t107.5 -53q60 0 96.5 48.5t36.5 133.5q0 87 -41 142q-41 54 -103 54zM592 699l49 -188
l-21 -9l-94 168q-13 22 -13 40q0 16 9.5 26.5t24.5 10.5q33 0 45 -48zM471 699l48 -188l-20 -9l-94 168q-14 26 -14 40q0 16 9.5 26.5t25.5 10.5q33 0 45 -48zM94 191v148q0 29 -8.5 40t-38.5 18l-4 21q35 12 45 47q6 19 7 23q2 6 5.5 28t4.5 28q41 204 165 204q34 0 59 -20
t25 -50q0 -19 -11 -31t-28 -12q-28 0 -41 34q-10 27 -35 27q-34 0 -54 -46.5t-20 -141.5v-75q25 1 64.5 2.5t43.5 1.5l8 -17l-8 -37h-109v-196q0 -39 2 -93q2 -31 13 -46t43 -26l-3 -23q-35 3 -90 3q-45 0 -80 -3l-3 23q26 11 34.5 25t10.5 47q3 32 3 97z" />
    <glyph glyph-name="ffodblgrave" unicode="ff&#x20d;" horiz-adv-x="1071" 
d="M587 220q0 96 65 166q64 70 157 70q96 0 159 -68q64 -67 64 -168q0 -99 -64 -167q-63 -69 -154 -69q-98 0 -163 68q-64 67 -64 168zM806 410q-61 0 -99 -48t-38 -133q0 -91 40.5 -144t107.5 -53q60 0 96.5 48.5t36.5 133.5q0 87 -41 142q-41 54 -103 54zM864 699l49 -188
l-21 -9l-94 168q-13 22 -13 40q0 16 9.5 26.5t24.5 10.5q33 0 45 -48zM743 699l48 -188l-20 -9l-94 168q-14 26 -14 40q0 16 9.5 26.5t25.5 10.5q33 0 45 -48zM366 191v107q0 58 -10 71q-9 14 -49 14h-143v-196q0 -39 2 -93q2 -31 13 -46t43 -26l-3 -23q-35 3 -90 3
q-45 0 -80 -3l-3 23q26 11 34.5 25t10.5 47q3 32 3 97v148q0 29 -8.5 40t-38.5 18l-4 21q29 7 40 34q7 17 8 25q2 9 6.5 36t5.5 31q19 94 67.5 149t115.5 55q41 0 66.5 -18.5t25.5 -46.5q0 -17 -10 -27.5t-25 -10.5q-23 0 -44 27q-19 24 -44 24q-91 0 -91 -188v-75h142
q37 0 51 26q7 13 10 34q2 5 5.5 25.5t4.5 25.5q41 204 165 204q34 0 59 -20t25 -50q0 -19 -11 -31t-28 -12q-28 0 -41 34q-10 27 -35 27q-34 0 -54.5 -46.5t-20.5 -141.5v-75q20 0 40 1l40 2t29 1l8 -17l-8 -37h-109v-196q0 -39 2 -93q2 -31 13 -46t43 -26l-3 -23
q-35 3 -90 3q-45 0 -80 -3l-3 23q26 11 34.5 25t10.5 47q3 32 3 97z" />
    <glyph glyph-name="longsodblgrave" unicode="&#x17f;&#x20d;" horiz-adv-x="792" 
d="M308 220q0 96 65 166q64 70 157 70q96 0 159 -68q64 -67 64 -168q0 -99 -64 -167q-63 -69 -154 -69q-98 0 -163 68q-64 67 -64 168zM527 410q-61 0 -99 -48t-38 -133q0 -91 40.5 -144t107.5 -53q60 0 96.5 48.5t36.5 133.5q0 87 -41 142q-40 54 -103 54zM585 699l49 -188
l-21 -9l-94 168q-13 22 -13 40q0 16 9.5 26.5t24.5 10.5q33 0 45 -48zM464 699l48 -188l-20 -9l-94 168q-14 26 -14 40q0 16 9.5 26.5t25.5 10.5q33 0 45 -48zM164 508v-321q0 -39 2 -93q2 -31 13 -46t43 -26l-3 -23q-35 3 -90 3q-45 0 -80 -3l-3 23q26 11 34.5 25t10.5 47
q3 32 3 97v148q0 29 -8.5 40t-38.5 18l-4 21q35 12 45 47q6 19 7 23q2 6 5.5 28t4.5 28q41 204 165 204q34 0 59 -20t25 -50q0 -19 -11 -31t-28 -12q-28 0 -41 34q-10 27 -35 27q-34 0 -54.5 -46.5t-20.5 -141.5z" />
    <glyph glyph-name="frdblgrave" unicode="f&#x211;" horiz-adv-x="646" 
d="M616 371q-9 0 -31.5 9t-30.5 9q-37 0 -61.5 -41t-24.5 -110v-47q0 -55 2 -97q2 -33 13.5 -48t42.5 -24l-3 -23q-35 3 -90 3q-45 0 -80 -3l-3 23q26 11 34.5 25t10.5 47q3 32 3 97v25q0 62 -3 94q-2 30 -11.5 41t-37.5 16v21q65 32 106 70l21 -8q-5 -39 -6 -97l1 -1
q20 49 52 76.5t68 27.5q29 0 46.5 -14t17.5 -36q0 -35 -36 -35zM575 699l49 -188l-21 -9l-94 168q-13 22 -13 40q0 16 9.5 26.5t24.5 10.5q33 0 45 -48zM454 699l48 -188l-20 -9l-94 168q-14 26 -14 40q0 16 9.5 26.5t25.5 10.5q33 0 45 -48zM94 191v148q0 29 -8.5 40
t-38.5 18l-4 21q35 12 45 47q6 19 7 23q2 6 5.5 28t4.5 28q41 204 165 204q34 0 59 -20t25 -50q0 -19 -11 -31t-28 -12q-28 0 -41 34q-10 27 -35 27q-34 0 -54 -46.5t-20 -141.5v-75q25 1 64.5 2.5t43.5 1.5l8 -17l-8 -37h-109v-196q0 -39 2 -93q2 -31 13 -46t43 -26l-3 -23
q-35 3 -90 3q-45 0 -80 -3l-3 23q26 11 34.5 25t10.5 47q3 32 3 97z" />
    <glyph glyph-name="ffrdblgrave" unicode="ff&#x211;" horiz-adv-x="918" 
d="M888 371q-9 0 -31.5 9t-30.5 9q-37 0 -61.5 -41t-24.5 -110v-47q0 -55 2 -97q2 -33 13.5 -48t42.5 -24l-3 -23q-35 3 -90 3q-45 0 -80 -3l-3 23q26 11 34.5 25t10.5 47q3 32 3 97v25q0 62 -3 94q-2 30 -11.5 41t-37.5 16v21q65 32 106 70l21 -8q-5 -39 -6 -97l1 -1
q20 49 52 76.5t68 27.5q29 0 46.5 -14t17.5 -36q0 -35 -36 -35zM847 699l49 -188l-21 -9l-94 168q-13 22 -13 40q0 16 9.5 26.5t24.5 10.5q33 0 45 -48zM726 699l48 -188l-20 -9l-94 168q-14 26 -14 40q0 16 9.5 26.5t25.5 10.5q33 0 45 -48zM366 191v107q0 58 -10 71
q-9 14 -49 14h-143v-196q0 -39 2 -93q2 -31 13 -46t43 -26l-3 -23q-35 3 -90 3q-45 0 -80 -3l-3 23q26 11 34.5 25t10.5 47q3 32 3 97v148q0 29 -8.5 40t-38.5 18l-4 21q29 7 40 34q7 17 8 25q2 9 6.5 36t5.5 31q19 94 67.5 149t115.5 55q41 0 66.5 -18.5t25.5 -46.5
q0 -17 -10 -27.5t-25 -10.5q-23 0 -44 27q-19 24 -44 24q-91 0 -91 -188v-75h142q37 0 51 26q7 13 10 34q2 5 5.5 25.5t4.5 25.5q41 204 165 204q34 0 59 -20t25 -50q0 -19 -11 -31t-28 -12q-28 0 -41 34q-10 27 -35 27q-34 0 -54.5 -46.5t-20.5 -141.5v-75q20 0 40 1l40 2
t29 1l8 -17l-8 -37h-109v-196q0 -39 2 -93q2 -31 13 -46t43 -26l-3 -23q-35 3 -90 3q-45 0 -80 -3l-3 23q26 11 34.5 25t10.5 47q3 32 3 97z" />
    <glyph glyph-name="longsrdblgrave" unicode="&#x17f;&#x211;" horiz-adv-x="639" 
d="M609 371q-9 0 -31.5 9t-30.5 9q-37 0 -61.5 -41t-24.5 -110v-47q0 -55 2 -97q2 -33 13.5 -48t42.5 -24l-3 -23q-34 3 -90 3q-46 0 -80 -3l-3 23q26 11 34.5 25t10.5 47q3 32 3 97v25q0 62 -3 94q-2 30 -11.5 41t-37.5 16v21q65 32 106 70l21 -8q-5 -39 -6 -97l1 -1
q20 49 52 76.5t68 27.5q29 0 46.5 -14t17.5 -36q0 -35 -36 -35zM568 699l49 -188l-21 -9l-94 168q-13 22 -13 40q0 16 9.5 26.5t24.5 10.5q33 0 45 -48zM447 699l48 -188l-20 -9l-94 168q-14 26 -14 40q0 16 9.5 26.5t25.5 10.5q33 0 45 -48zM164 508v-321q0 -39 2 -93
q2 -31 13 -46t43 -26l-3 -23q-35 3 -90 3q-45 0 -80 -3l-3 23q26 11 34.5 25t10.5 47q3 32 3 97v148q0 29 -8.5 40t-38.5 18l-4 21q35 12 45 47q6 19 7 23q2 6 5.5 28t4.5 28q41 204 165 204q34 0 59 -20t25 -50q0 -19 -11 -31t-28 -12q-28 0 -41 34q-10 27 -35 27
q-34 0 -54.5 -46.5t-20.5 -141.5z" />
    <glyph glyph-name="frinvbreve" unicode="f&#x213;" horiz-adv-x="626" 
d="M94 191v148q0 29 -8.5 40t-38.5 18l-4 21q35 12 45 47q6 19 7 23q2 6 5.5 28t4.5 28q41 204 165 204q34 0 59 -20t25 -50q0 -19 -11 -31t-28 -12q-28 0 -41 34q-10 27 -35 27q-34 0 -54 -46.5t-20 -141.5v-75q25 1 64.5 2.5t43.5 1.5l8 -17l-8 -37h-109v-196q0 -39 2 -93
q2 -31 13 -46t43 -26l-3 -23q-35 3 -90 3q-45 0 -80 -3l-3 23q26 11 34.5 25t10.5 47q3 32 3 97zM596 371q-9 0 -31.5 9t-30.5 9q-37 0 -61.5 -41t-24.5 -110v-47q0 -55 2 -97q2 -33 13.5 -48t42.5 -24l-3 -23q-35 3 -90 3q-45 0 -80 -3l-3 23q26 11 34.5 25t10.5 47
q3 32 3 97v25q0 62 -3 94q-2 30 -11.5 41t-37.5 16v21q65 32 106 70l21 -8q-5 -39 -6 -97l1 -1q20 49 52 76.5t68 27.5q29 0 46.5 -14t17.5 -36q0 -35 -36 -35zM615 527l-24 -2q-17 78 -41 112.5t-61 34.5t-61 -34.5t-41 -112.5l-24 2q3 106 36.5 160.5t89.5 54.5
t89.5 -54.5t36.5 -160.5z" />
    <glyph glyph-name="ffrinvbreve" unicode="ff&#x213;" horiz-adv-x="898" 
d="M366 191v107q0 58 -10 71q-9 14 -49 14h-143v-196q0 -39 2 -93q2 -31 13 -46t43 -26l-3 -23q-35 3 -90 3q-45 0 -80 -3l-3 23q26 11 34.5 25t10.5 47q3 32 3 97v148q0 29 -8.5 40t-38.5 18l-4 21q29 7 40 34q7 17 8 25q2 9 6.5 36t5.5 31q19 94 67.5 149t115.5 55
q41 0 66.5 -18.5t25.5 -46.5q0 -17 -10 -27.5t-25 -10.5q-23 0 -44 27q-19 24 -44 24q-91 0 -91 -188v-75h142q37 0 51 26q7 13 10 34q2 5 5.5 25.5t4.5 25.5q41 204 165 204q34 0 59 -20t25 -50q0 -19 -11 -31t-28 -12q-28 0 -41 34q-10 27 -35 27q-34 0 -54.5 -46.5
t-20.5 -141.5v-75q20 0 40 1l40 2t29 1l8 -17l-8 -37h-109v-196q0 -39 2 -93q2 -31 13 -46t43 -26l-3 -23q-35 3 -90 3q-45 0 -80 -3l-3 23q26 11 34.5 25t10.5 47q3 32 3 97zM868 371q-9 0 -31.5 9t-30.5 9q-37 0 -61.5 -41t-24.5 -110v-47q0 -55 2 -97q2 -33 13.5 -48
t42.5 -24l-3 -23q-35 3 -90 3q-45 0 -80 -3l-3 23q26 11 34.5 25t10.5 47q3 32 3 97v25q0 62 -3 94q-2 30 -11.5 41t-37.5 16v21q65 32 106 70l21 -8q-5 -39 -6 -97l1 -1q20 49 52 76.5t68 27.5q29 0 46.5 -14t17.5 -36q0 -35 -36 -35zM887 527l-24 -2q-17 78 -41 112.5
t-61 34.5t-61 -34.5t-41 -112.5l-24 2q3 106 36.5 160.5t89.5 54.5t89.5 -54.5t36.5 -160.5z" />
    <glyph glyph-name="longsrinvbreve" unicode="&#x17f;&#x213;" horiz-adv-x="619" 
d="M589 371q-9 0 -31.5 9t-30.5 9q-37 0 -61.5 -41t-24.5 -110v-47q0 -55 2 -97q2 -33 13.5 -48t42.5 -24l-3 -23q-34 3 -90 3q-46 0 -80 -3l-3 23q26 11 34.5 25t10.5 47q3 32 3 97v25q0 62 -3 94q-2 30 -11.5 41t-37.5 16v21q65 32 106 70l21 -8q-5 -39 -6 -97l1 -1
q20 49 52 76.5t68 27.5q29 0 46.5 -14t17.5 -36q0 -35 -36 -35zM164 508v-321q0 -39 2 -93q2 -31 13 -46t43 -26l-3 -23q-35 3 -90 3q-45 0 -80 -3l-3 23q26 11 34.5 25t10.5 47q3 32 3 97v148q0 29 -8.5 40t-38.5 18l-4 21q35 12 45 47q6 19 7 23q2 6 5.5 28t4.5 28
q41 204 165 204q34 0 59 -20t25 -50q0 -19 -11 -31t-28 -12q-28 0 -41 34q-10 27 -35 27q-34 0 -54.5 -46.5t-20.5 -141.5zM608 527l-24 -2q-17 78 -41 112.5t-61 34.5t-61 -34.5t-41 -112.5l-24 2q3 106 36.5 160.5t89.5 54.5t89.5 -54.5t36.5 -160.5z" />
    <glyph glyph-name="fudblgrave" unicode="f&#x215;" horiz-adv-x="798" 
d="M700 257v-43q0 -58 3 -90q2 -30 11.5 -41t37.5 -16v-21q-47 -21 -94 -62l-21 5l-3 92l-1 1q-19 -44 -55.5 -71t-79.5 -27q-77 0 -113 59q-20 35 -20 91v109q0 63 -3 94q-3 30 -13.5 46t-34.5 27l3 22q70 1 125 5q-7 -148 -7 -180v-114q0 -46 21 -70t58 -24
q53 0 84.5 34.5t31.5 89.5v70q0 63 -3 94q-2 30 -12.5 45.5t-35.5 27.5l3 22q70 1 125 5q-7 -148 -7 -180zM592 699l35 -148l-21 -9l-75 130q-13 22 -13 38t8.5 26.5t22.5 10.5q31 0 43 -48zM470 699l35 -148l-21 -9l-75 130q-13 22 -13 38t8.5 26.5t22.5 10.5q31 0 43 -48z
M94 191v148q0 29 -8.5 40t-38.5 18l-4 21q35 12 45 47q6 19 7 23q2 6 5.5 28t4.5 28q41 204 165 204q34 0 59 -20t25 -50q0 -19 -11 -31t-28 -12q-28 0 -41 34q-10 27 -35 27q-34 0 -54 -46.5t-20 -141.5v-75q25 1 64.5 2.5t43.5 1.5l8 -17l-8 -37h-109v-196q0 -39 2 -93
q2 -31 13 -46t43 -26l-3 -23q-35 3 -90 3q-45 0 -80 -3l-3 23q26 11 34.5 25t10.5 47q3 32 3 97z" />
    <glyph glyph-name="ffudblgrave" unicode="ff&#x215;" horiz-adv-x="1070" 
d="M972 257v-43q0 -58 3 -90q2 -30 11.5 -41t37.5 -16v-21q-47 -21 -94 -62l-21 5l-3 92l-1 1q-19 -44 -55.5 -71t-79.5 -27q-77 0 -113 59q-20 35 -20 91v109q0 63 -3 94q-3 30 -13.5 46t-34.5 27l3 22q70 1 125 5q-7 -148 -7 -180v-114q0 -46 21 -70t58 -24
q53 0 84.5 34.5t31.5 89.5v70q0 63 -3 94q-2 30 -12.5 45.5t-35.5 27.5l3 22q70 1 125 5q-7 -148 -7 -180zM864 699l35 -148l-21 -9l-75 130q-13 22 -13 38t8.5 26.5t22.5 10.5q31 0 43 -48zM742 699l35 -148l-21 -9l-75 130q-13 22 -13 38t8.5 26.5t22.5 10.5q31 0 43 -48z
M366 191v107q0 58 -10 71q-9 14 -49 14h-143v-196q0 -39 2 -93q2 -31 13 -46t43 -26l-3 -23q-35 3 -90 3q-45 0 -80 -3l-3 23q26 11 34.5 25t10.5 47q3 32 3 97v148q0 29 -8.5 40t-38.5 18l-4 21q29 7 40 34q7 17 8 25q2 9 6.5 36t5.5 31q19 94 67.5 149t115.5 55
q41 0 66.5 -18.5t25.5 -46.5q0 -17 -10 -27.5t-25 -10.5q-23 0 -44 27q-19 24 -44 24q-91 0 -91 -188v-75h142q37 0 51 26q7 13 10 34q2 5 5.5 25.5t4.5 25.5q41 204 165 204q34 0 59 -20t25 -50q0 -19 -11 -31t-28 -12q-28 0 -41 34q-10 27 -35 27q-34 0 -54.5 -46.5
t-20.5 -141.5v-75q20 0 40 1l40 2t29 1l8 -17l-8 -37h-109v-196q0 -39 2 -93q2 -31 13 -46t43 -26l-3 -23q-35 3 -90 3q-45 0 -80 -3l-3 23q26 11 34.5 25t10.5 47q3 32 3 97z" />
    <glyph glyph-name="longsudblgrave" unicode="&#x17f;&#x215;" horiz-adv-x="791" 
d="M693 257v-43q0 -58 3 -90q2 -30 11.5 -41t37.5 -16v-21q-47 -21 -94 -62l-21 5l-3 92l-1 1q-19 -44 -55.5 -71t-79.5 -27q-77 0 -113 59q-20 35 -20 91v109q0 63 -3 94q-3 30 -13.5 46t-34.5 27l3 22q70 1 125 5q-7 -148 -7 -180v-114q0 -46 21 -70t58 -24
q53 0 84.5 34.5t31.5 89.5v70q0 63 -3 94q-2 30 -12.5 45.5t-35.5 27.5l3 22q70 1 125 5q-7 -148 -7 -180zM585 699l35 -148l-21 -9l-75 130q-13 22 -13 38t8.5 26.5t22.5 10.5q31 0 43 -48zM463 699l35 -148l-21 -9l-75 130q-13 22 -13 38t8.5 26.5t22.5 10.5q31 0 43 -48z
M164 508v-321q0 -39 2 -93q2 -31 13 -46t43 -26l-3 -23q-35 3 -90 3q-45 0 -80 -3l-3 23q26 11 34.5 25t10.5 47q3 32 3 97v148q0 29 -8.5 40t-38.5 18l-4 21q35 12 45 47q6 19 7 23q2 6 5.5 28t4.5 28q41 204 165 204q34 0 59 -20t25 -50q0 -19 -11 -31t-28 -12
q-28 0 -41 34q-10 27 -35 27q-34 0 -54.5 -46.5t-20.5 -141.5z" />
    <glyph glyph-name="fytilde" unicode="f&#x1ef9;" horiz-adv-x="715" 
d="M448 253l62 -156l66 155q31 71 31 105q0 33 -35 53l4 23q28 -3 68 -3q36 0 65 3l3 -23q-22 -20 -48 -72l-39 -87l-177 -400q-28 -64 -58 -95q-32 -32 -76 -32q-20 0 -33.5 12t-13.5 30t10.5 29.5t27.5 11.5q7 0 22.5 -2.5t21.5 -2.5q29 0 51 48l72 156l-99 245l-40 101
q-11 25 -19.5 35.5t-26.5 22.5l4 23q43 -3 81 -3q26 0 69 3l3 -23q-30 -14 -30 -40q0 -33 34 -117zM527 678q42 -19 60 -19q32 0 63 25l17 -18q-44 -68 -98 -68q-27 0 -60 15q-42 19 -60 19q-32 0 -63 -25l-18 18q44 68 99 68q27 0 60 -15zM94 191v148q0 29 -8.5 40
t-38.5 18l-4 21q35 12 45 47q6 19 7 23q2 6 5.5 28t4.5 28q41 204 165 204q34 0 59 -20t25 -50q0 -19 -11 -31t-28 -12q-28 0 -41 34q-10 27 -35 27q-34 0 -54 -46.5t-20 -141.5v-75q25 1 64.5 2.5t43.5 1.5l8 -17l-8 -37h-109v-196q0 -39 2 -93q2 -31 13 -46t43 -26l-3 -23
q-35 3 -90 3q-45 0 -80 -3l-3 23q26 11 34.5 25t10.5 47q3 32 3 97z" />
    <glyph glyph-name="ffytilde" unicode="ff&#x1ef9;" horiz-adv-x="987" 
d="M720 253l62 -156l66 155q31 71 31 105q0 33 -35 53l4 23q28 -3 68 -3q36 0 65 3l3 -23q-22 -20 -48 -72l-39 -87l-177 -400q-28 -64 -58 -95q-32 -32 -76 -32q-20 0 -33.5 12t-13.5 30t10.5 29.5t27.5 11.5q7 0 22.5 -2.5t21.5 -2.5q29 0 51 48l72 156l-99 245l-40 101
q-11 25 -19.5 35.5t-26.5 22.5l4 23q43 -3 81 -3q26 0 69 3l3 -23q-30 -14 -30 -40q0 -33 34 -117zM799 678q42 -19 60 -19q32 0 63 25l17 -18q-44 -68 -98 -68q-27 0 -60 15q-42 19 -60 19q-32 0 -63 -25l-18 18q44 68 99 68q27 0 60 -15zM366 191v107q0 58 -10 71
q-9 14 -49 14h-143v-196q0 -39 2 -93q2 -31 13 -46t43 -26l-3 -23q-35 3 -90 3q-45 0 -80 -3l-3 23q26 11 34.5 25t10.5 47q3 32 3 97v148q0 29 -8.5 40t-38.5 18l-4 21q29 7 40 34q7 17 8 25q2 9 6.5 36t5.5 31q19 94 67.5 149t115.5 55q41 0 66.5 -18.5t25.5 -46.5
q0 -17 -10 -27.5t-25 -10.5q-23 0 -44 27q-19 24 -44 24q-91 0 -91 -188v-75h142q37 0 51 26q7 13 10 34q2 5 5.5 25.5t4.5 25.5q41 204 165 204q34 0 59 -20t25 -50q0 -19 -11 -31t-28 -12q-28 0 -41 34q-10 27 -35 27q-34 0 -54.5 -46.5t-20.5 -141.5v-75q20 0 40 1l40 2
t29 1l8 -17l-8 -37h-109v-196q0 -39 2 -93q2 -31 13 -46t43 -26l-3 -23q-35 3 -90 3q-45 0 -80 -3l-3 23q26 11 34.5 25t10.5 47q3 32 3 97z" />
    <glyph glyph-name="longsytilde" unicode="&#x17f;&#x1ef9;" horiz-adv-x="708" 
d="M441 253l62 -156l66 155q31 71 31 105q0 33 -35 53l4 23q29 -3 68 -3q37 0 65 3l3 -23q-23 -20 -48 -72l-39 -87l-177 -400q-28 -64 -58 -95q-32 -32 -76 -32q-20 0 -33.5 12t-13.5 30t10.5 29.5t27.5 11.5q7 0 22.5 -2.5t21.5 -2.5q28 0 51 48l72 156l-99 245l-40 101
q-11 25 -19.5 35.5t-26.5 22.5l4 23q44 -3 81 -3q25 0 69 3l3 -23q-30 -14 -30 -40q0 -33 34 -117zM520 678q42 -19 60 -19q32 0 63 25l17 -18q-44 -68 -98 -68q-27 0 -60 15q-42 19 -60 19q-32 0 -63 -25l-18 18q44 68 99 68q27 0 60 -15zM164 508v-321q0 -39 2 -93
q2 -31 13 -46t43 -26l-3 -23q-35 3 -90 3q-45 0 -80 -3l-3 23q26 11 34.5 25t10.5 47q3 32 3 97v148q0 29 -8.5 40t-38.5 18l-4 21q35 12 45 47q6 19 7 23q2 6 5.5 28t4.5 28q41 204 165 204q34 0 59 -20t25 -50q0 -19 -11 -31t-28 -12q-28 0 -41 34q-10 27 -35 27
q-34 0 -54.5 -46.5t-20.5 -141.5z" />
    <glyph glyph-name=".notdef" horiz-adv-x="300" 
 />
    <glyph glyph-name=".null" horiz-adv-x="0" 
 />
    <glyph glyph-name="nonmarkingreturn" horiz-adv-x="333" 
 />
    <glyph glyph-name="space" unicode=" " 
 />
    <glyph glyph-name="exclam" unicode="!" 
d="M83 5q-17 17 -17 42t17 42t42 17t42 -17t17 -42t-17 -42t-42 -17t-42 17zM139 182h-28q-10 180 -31 400q-7 62 -7 79q0 22 16 38.5t36 16.5q21 0 36.5 -16t15.5 -39q0 -17 -7 -79q-21 -220 -31 -400z" />
    <glyph glyph-name="quotedbl" unicode="&#x22;" horiz-adv-x="430" 
d="M152 478h-24q-9 74 -24 157q-10 50 -10 65q0 23 13.5 38.5t33.5 15.5q19 0 32 -15.5t13 -38.5q0 -15 -10 -65q-15 -83 -24 -157zM302 478h-24q-9 74 -24 157q-10 50 -10 65q0 23 13.5 38.5t33.5 15.5q19 0 32 -15.5t13 -38.5q0 -15 -10 -65q-15 -83 -24 -157z" />
    <glyph glyph-name="numbersign" unicode="#" horiz-adv-x="500" 
d="M335 276h104v-46h-116l-61 -230h-50l61 230h-120l-61 -230h-49l61 230h-97v46h109l41 153h-96v46h108l60 225h49l-60 -225h120l60 225h50l-60 -225h105v-46h-117zM326 429h-120l-41 -153h120z" />
    <glyph glyph-name="dollar" unicode="$" horiz-adv-x="486" 
d="M275 -12v-101h-45v97h-5q-95 0 -164 33q-11 64 -20 162l31 7q18 -54 35 -83q24 -41 50 -57.5t73 -16.5v293q-55 38 -87 64q-23 20 -45 47q-36 47 -36 108q0 66 47 115q46 47 121 58v97h45v-95q76 -3 151 -41q0 -13 0.5 -29.5t1 -25.5t0.5 -14q0 -1 -2 -71l-28 -2
q-15 60 -42 91q-34 40 -81 45v-278q93 -66 121 -97q48 -52 48 -126q0 -72 -45.5 -120t-123.5 -60zM133 558q0 -48 35 -85q20 -21 62 -51v246q-44 -7 -70.5 -36.5t-26.5 -73.5zM367 149q0 55 -38 93q-26 26 -54 47v-255q42 11 67 42t25 73z" />
    <glyph glyph-name="percent" unicode="%" horiz-adv-x="785" 
d="M40 584q0 67 46 113t114 46q69 0 115 -46q47 -47 47 -113q0 -67 -47 -114q-46 -46 -112 -46q-71 0 -117 45q-46 46 -46 115zM92 584q0 -51 31 -82.5t80 -31.5q45 0 75 32t30 82q0 49 -30.5 81t-77.5 32q-46 0 -77 -32t-31 -81zM613 769l41 -28l-502 -793l-41 28zM423 144
q0 67 46 113t114 46q69 0 115 -46q47 -47 47 -113q0 -67 -47 -114q-46 -46 -112 -46q-70 0 -117 45q-46 46 -46 115zM475 144q0 -51 31 -82.5t80 -31.5q45 0 75 32t30 82q0 49 -30.5 81t-77.5 32q-46 0 -77 -32t-31 -81z" />
    <glyph glyph-name="ampersand" unicode="&#x26;" horiz-adv-x="772" 
d="M622 327l-56 -96l-31 -50l36 -40q47 -53 73.5 -73t48.5 -20q24 0 49 16l14 -25q-13 -22 -38 -37.5t-51 -15.5q-37 0 -67 21q-30 23 -90 90l-16 18q-89 -128 -224 -128q-101 0 -168 64t-67 156q0 73 48 135t132 90q-63 74 -63 139q0 60 45 102q46 43 112 43q69 0 112 -40
q44 -41 44 -101q0 -101 -146 -148l186 -211l25 40q17 27 30 59q14 36 14 54q0 12 -9.5 20t-31.5 17l3 27q90 -7 158 0l3 -27q-24 -12 -38.5 -27.5t-36.5 -51.5zM295 54q97 0 167 96l-223 251q-59 -28 -92 -73.5t-33 -104.5q0 -76 49 -122.5t132 -46.5zM225 587
q0 -31 14 -58.5t53 -71.5q101 44 101 119q0 42 -24 67.5t-62 25.5q-35 0 -58.5 -24t-23.5 -58z" />
    <glyph glyph-name="quotesingle" unicode="'" 
d="M137 478h-24q-9 74 -24 157q-10 50 -10 65q0 23 13.5 38.5t33.5 15.5q19 0 32 -15.5t13 -38.5q0 -15 -10 -65q-15 -83 -24 -157z" />
    <glyph glyph-name="parenleft" unicode="(" horiz-adv-x="400" 
d="M130 264q0 -279 221 -449l-27 -36q-117 80 -182 204.5t-65 280.5q0 157 65.5 281.5t182.5 204.5l27 -36q-222 -170 -222 -450z" />
    <glyph glyph-name="parenright" unicode=")" horiz-adv-x="400" 
d="M270 264q0 280 -222 450l27 36q117 -80 182.5 -204.5t65.5 -281.5q0 -156 -65 -280.5t-182 -204.5l-27 36q221 170 221 449z" />
    <glyph glyph-name="asterisk" unicode="*" horiz-adv-x="440" 
d="M238 563q47 -47 61 -60q40 -34 40 -55q0 -13 -8.5 -22.5t-20.5 -9.5q-21 0 -33 19q-6 10 -25 49q-11 26 -32 65q-3 -6 -31 -64q-17 -39 -24 -50q-12 -19 -33 -19q-12 0 -20.5 9t-8.5 21q0 21 40 57q23 19 60 60q-27 5 -83 11l-45 6q-27 8 -27 35q0 12 10 21.5t25 9.5
q12 0 30 -9t46.5 -26t49.5 -27q0 4 -15 83q-7 32 -7 43q0 16 9.5 28t24.5 12t24 -12t9 -28q0 -10 -7 -42q-7 -36 -15 -84q51 25 75 41q31 21 51 21q15 0 25 -9.5t10 -21.5q0 -25 -29 -34q-7 -2 -44 -7q-2 0 -15.5 -2t-33 -4.5t-33.5 -4.5z" />
    <glyph glyph-name="plus" unicode="+" horiz-adv-x="500" 
d="M228 257v177h45v-177h177v-45h-177v-178h-45v178h-178v45h178z" />
    <glyph glyph-name="comma" unicode="," 
d="M200 3q0 -63 -37 -104t-105 -54l-7 26q93 35 93 92q0 26 -31 39q-45 20 -45 55q0 21 14.5 35t38.5 14q31 0 55 -30.5t24 -72.5z" />
    <glyph glyph-name="hyphen" unicode="-" 
d="M250 207h-250v55h250v-55z" />
    <glyph glyph-name="period" unicode="." 
d="M83 5q-17 17 -17 42t17 42t42 17t42 -17t17 -42t-17 -42t-42 -17t-42 17z" />
    <glyph glyph-name="slash" unicode="/" horiz-adv-x="355" 
d="M277 753l47 -15l-246 -833l-47 15z" />
    <glyph glyph-name="zero" unicode="0" horiz-adv-x="602" 
d="M48 236q0 107 73 179t179 72q110 0 182 -73q72 -72 72 -178t-73 -179q-72 -73 -175 -73q-112 0 -186 71q-72 71 -72 181zM119 235q0 -86 52 -138q53 -53 134 -53q74 0 126 55t52 136q0 83 -52 136q-52 55 -131 55q-77 0 -129 -55q-52 -53 -52 -136z" />
    <glyph glyph-name="one" unicode="1" horiz-adv-x="313" 
d="M192 269v-64q0 -59 3 -105q2 -37 12.5 -51.5t45.5 -25.5l-3 -24q-52 3 -94 3q-40 0 -93 -3l-3 24q33 11 44.5 26t13.5 51q3 46 3 105v64q0 59 -3 105q-2 37 -12.5 51.5t-45.5 25.5l3 24q95 -5 187 0l3 -24q-33 -11 -44.5 -26t-13.5 -51q-3 -46 -3 -105z" />
    <glyph glyph-name="two" unicode="2" horiz-adv-x="435" 
d="M196 486q72 0 113 -48q38 -44 38 -108q0 -136 -195 -261h140q29 0 46.5 9.5t39.5 34.5l21 -12q-21 -66 -40 -104q-41 3 -107 3h-88q-66 0 -118 -4l-8 41q129 83 179 150t50 135q0 42 -24 68t-60 26q-55 0 -114 -62l-23 36q20 41 61 68.5t89 27.5z" />
    <glyph glyph-name="three" unicode="3" horiz-adv-x="405" 
d="M78 -239l-10 38q209 50 209 193q0 62 -43 102.5t-114 40.5l-6 32q71 41 101 78.5t30 83.5q0 38 -23.5 62.5t-58.5 24.5q-56 0 -111 -52l-21 36q20 37 58.5 61.5t84.5 24.5q74 0 111 -42q38 -41 38 -97q0 -84 -109 -156q62 -10 103 -60t41 -114q0 -99 -76 -169
q-75 -70 -204 -87z" />
    <glyph glyph-name="four" unicode="4" horiz-adv-x="557" 
d="M520 111l21 -12q-18 -55 -40 -102q-41 3 -106 3q0 -51 1 -78l2 -92l3 -79l-59 -12l-20 10v251h-114q-112 0 -178 -3l-8 30q155 243 316 462l60 -13q-3 -60 -3 -149v-258h40q30 0 47 8.5t38 33.5zM110 69h212v316q-167 -237 -212 -316z" />
    <glyph glyph-name="five" unicode="5" horiz-adv-x="405" 
d="M64 218l45 254h144q24 0 99 5l12 -15l-31 -65h-189l-19 -114q87 -19 140 -84t53 -147q0 -107 -71.5 -183t-199.5 -107l-14 37q204 72 204 230q0 150 -173 189z" />
    <glyph glyph-name="six" unicode="6" horiz-adv-x="540" 
d="M198 369l-3 34q38 32 102 32q71 0 120 -44q65 -59 65 -172q0 -101 -60 -163t-144 -62q-98 0 -162 76q-63 76 -63 210q0 156 111 281t309 189l17 -35q-351 -161 -351 -433q0 -116 39 -179t100 -63q58 0 90 43.5t32 124.5q0 79 -36.5 126t-94.5 47q-37 0 -71 -12z" />
    <glyph glyph-name="seven" unicode="7" horiz-adv-x="488" 
d="M395 397h-249q-41 0 -61 -13q-22 -14 -48 -50l-21 12q29 91 49 129q41 -3 106 -3h143q82 0 148 3l12 -30q-178 -325 -338 -692h-74l-11 22q146 280 344 622z" />
    <glyph glyph-name="eight" unicode="8" horiz-adv-x="494" 
d="M427 545q0 -108 -124 -169q78 -50 109 -99t31 -112q0 -73 -54 -122q-53 -49 -136 -49q-87 0 -143 48q-55 49 -55 126q0 109 137 184q-107 83 -107 177q0 71 53 121t125 50q71 0 117 -46q47 -47 47 -109zM137 169q0 -58 32 -93.5t87 -35.5q50 0 79.5 32.5t29.5 82.5
q0 47 -30 86q-28 38 -110 90q-88 -67 -88 -162zM352 538q0 51 -27 83.5t-71 32.5q-43 0 -70.5 -30.5t-27.5 -77.5q0 -39 26 -73t88 -75q82 58 82 140z" />
    <glyph glyph-name="nine" unicode="9" horiz-adv-x="540" 
d="M340 108l3 -31q-38 -32 -97 -32q-87 0 -139 61q-51 62 -51 155q0 101 61 162q61 63 143 63q103 0 164 -76t61 -210q0 -156 -111 -281t-309 -189l-17 35q351 161 351 433q0 118 -38 180t-101 62q-55 0 -89 -46t-34 -128q0 -77 37 -123.5t95 -46.5q37 0 71 12z" />
    <glyph glyph-name="colon" unicode=":" 
d="M83 339q-17 17 -17 42t17 42t42 17t42 -17t17 -42t-17 -42t-42 -17t-42 17zM83 5q-17 17 -17 42t17 42t42 17t42 -17t17 -42t-17 -42t-42 -17t-42 17z" />
    <glyph glyph-name="semicolon" unicode=";" 
d="M200 3q0 -63 -37 -104t-105 -54l-7 26q93 35 93 92q0 26 -31 39q-45 20 -45 55q0 21 14.5 35t38.5 14q31 0 55 -30.5t24 -72.5zM83 339q-17 17 -17 42t17 42t42 17t42 -17t17 -42t-17 -42t-42 -17t-42 17z" />
    <glyph glyph-name="less" unicode="&#x3c;" horiz-adv-x="500" 
d="M450 110v-53l-400 156v39l400 167v-49l-324 -136z" />
    <glyph glyph-name="equal" unicode="=" horiz-adv-x="500" 
d="M50 287v45h400v-45h-400zM50 137v45h400v-45h-400z" />
    <glyph glyph-name="greater" unicode="&#x3e;" horiz-adv-x="500" 
d="M450 252v-39l-400 -156v53l324 124l-324 136v49z" />
    <glyph glyph-name="question" unicode="?" horiz-adv-x="360" 
d="M318 471q0 -150 -168 -152q-7 -94 -9 -137h-26q-11 123 -22 191l13 19q97 0 135 20t38 68q0 62 -43 99t-87 37q-7 0 -24 -2t-20 -2q-26 0 -41.5 13t-15.5 36t18.5 37t44.5 14q77 0 142 -72q65 -73 65 -169zM83 5q-16 17 -16 42t16 42q17 17 43 17t42 -17q17 -17 17 -42
t-17 -42q-16 -17 -42 -17t-43 17z" />
    <glyph glyph-name="at" unicode="@" horiz-adv-x="765" 
d="M431 163v44q-38 -14 -47 -19q-69 -32 -69 -71q0 -18 11 -30t30 -12q29 0 52 25t23 63zM441 90l-5 1q-34 -70 -95 -70q-40 0 -65 23.5t-25 58.5q0 53 51 86q35 23 129 52v28q0 50 -16 72q-17 23 -50 23q-37 0 -77 -33l-17 30q13 25 42 42t63 17q66 0 95 -44q23 -35 23 -93
v-82q0 -53 3 -79q4 -40 50 -40q48 0 80.5 47.5t32.5 131.5q0 111 -74 190q-73 79 -190 79q-130 0 -211 -89q-80 -89 -80 -229q0 -139 83 -222q82 -82 222 -82q82 0 172 38l15 -33q-79 -51 -212 -51q-141 0 -238 97t-97 255q0 154 99 261q99 106 247 106q143 0 228 -94
q87 -93 87 -226q0 -103 -50 -167q-50 -62 -124 -62t-96 58z" />
    <glyph glyph-name="A" unicode="A" horiz-adv-x="629" 
d="M116 218l193 500h19l185 -500q32 -82 45 -112q14 -33 29 -51t40 -31l-3 -25q-39 3 -82 3q-62 0 -101 -3l-3 25q22 9 30 17.5t8 22.5q0 20 -48 154l-8 20h-244l-7 -20q-41 -109 -41 -153q0 -27 38 -41l-3 -25q-39 3 -84 3q-39 0 -74 -3l-3 25q25 13 40 31t29 51
q13 30 45 112zM405 281l-103 283l-109 -283h212z" />
    <glyph glyph-name="B" unicode="B" horiz-adv-x="574" 
d="M278 399q143 11 143 129q0 64 -38 99.5t-104 35.5q-52 0 -72.5 -12t-22.5 -41q-3 -32 -3 -103v-112q65 0 97 4zM372 380q74 -12 118 -59.5t44 -119.5q0 -92 -68.5 -148t-189.5 -56q-8 0 -54 3q-62 2 -85 2q-47 0 -86 -3l-3 25q28 11 38.5 28t12.5 54q2 44 2 112v266
q0 79 -3 112q-2 37 -12.5 54t-37.5 28l3 25q39 -3 91 -3q13 0 75 2q47 3 71 3q97 0 153.5 -44.5t56.5 -122.5q0 -118 -126 -158zM278 353q-18 1 -97 1v-142q0 -79 3 -109q4 -38 23 -50.5t74 -12.5q84 0 128.5 40.5t44.5 118.5q0 148 -176 154z" />
    <glyph glyph-name="C" unicode="C" horiz-adv-x="721" 
d="M446 29q60 0 96.5 21.5t63.5 70.5q13 22 35 89l30 -5q-7 -99 -21 -168q-91 -53 -217 -53q-100 0 -187 40.5t-144.5 126t-57.5 201.5q0 161 113 262q113 102 275 102q118 0 221 -50q2 -72 2 -73t-2 -75l-30 -2q-15 65 -43 96q-51 58 -147 58q-132 0 -214 -88
q-81 -88 -81 -229q0 -146 92 -235q94 -89 216 -89z" />
    <glyph glyph-name="D" unicode="D" horiz-adv-x="746" 
d="M324 -6q-54 0 -107 4t-76 4q-51 0 -90 -3l-3 25q27 11 37.5 28t12.5 54q3 33 3 112v266q0 79 -3 112q-2 37 -12.5 54t-37.5 28l3 25q39 -3 91 -3q11 0 85 2q55 3 90 3q104 0 189.5 -39t140 -121.5t54.5 -196.5q0 -159 -104 -257q-103 -97 -273 -97zM317 41
q139 0 215.5 80t76.5 226q0 144 -85 228q-84 85 -215 85q-76 0 -100 -9q-23 -8 -25 -38q-3 -31 -3 -103v-302q0 -79 3 -109q5 -38 29 -48t104 -10z" />
    <glyph glyph-name="E" unicode="E" horiz-adv-x="530" 
d="M166 2q-76 0 -115 -3l-3 25q27 11 37.5 28t12.5 54q3 33 3 112v266q0 79 -3 112q-2 37 -12.5 54t-37.5 28l3 25q39 -3 91 -3h184q72 0 111 3q9 -61 14 -143l-29 -5q-17 51 -39 74q-19 21 -57 27q-35 5 -86 5q-35 0 -44.5 -8.5t-11.5 -39.5q-3 -31 -3 -103v-128
q78 0 136 5q33 4 47.5 17.5t26.5 49.5l24 -5q-3 -39 -3 -86q0 -48 3 -87l-24 -5q-11 36 -26 49.5t-48 17.5q-45 5 -136 5v-135q0 -49 3 -109q1 -35 14.5 -46.5t49.5 -11.5q68 0 106 5q42 6 66 40q20 31 35 77l27 -5q-8 -79 -24 -161q-102 5 -292 5z" />
    <glyph glyph-name="F" unicode="F" horiz-adv-x="483" 
d="M181 343v-125q0 -68 2 -112q2 -39 14 -54.5t48 -25.5l-3 -27q-39 3 -100 3q-52 0 -91 -3l-3 25q27 11 37.5 28t12.5 54q3 33 3 112v266q0 79 -3 112q-2 37 -12.5 54t-37.5 28l3 25q39 -3 91 -3h184q72 0 111 3q9 -61 14 -143l-29 -5q-17 51 -39 74q-19 21 -57 27
q-35 5 -86 5q-35 0 -45 -8.5t-12 -39.5q-2 -44 -2 -108v-123q73 0 118 5q33 4 47.5 17.5t26.5 49.5l25 -5q-3 -39 -3 -86q0 -48 3 -87l-25 -5q-12 36 -26.5 49.5t-47.5 17.5q-45 5 -118 5z" />
    <glyph glyph-name="G" unicode="G" horiz-adv-x="740" 
d="M577 119q0 47 -2 91q-2 35 -16 51.5t-55 30.5l3 25q39 -3 108 -3q49 0 88 3l3 -25q-30 -13 -40.5 -29.5t-11.5 -52.5q-2 -88 -2 -94q0 -37 5 -80q-95 -52 -220 -52q-154 0 -270 88q-57 45 -90 118t-33 162q0 162 112 262q112 102 275 102q122 0 221 -41q3 -41 3 -73
q0 -1 -2 -75l-30 -2q-13 61 -45 96q-43 49 -146 49q-132 0 -213 -88t-81 -229q0 -146 92 -235q92 -88 222 -88q66 0 95.5 21t29.5 68z" />
    <glyph glyph-name="H" unicode="H" horiz-adv-x="739" 
d="M637 484v-266q0 -24 2 -112q1 -36 11.5 -52.5t40.5 -29.5l-3 -25q-39 3 -90 3q-52 0 -91 -3l-3 25q27 11 37 28t13 54q3 33 3 112v129h-376v-129q0 -24 2 -112q1 -36 11.5 -52.5t40.5 -29.5l-3 -25q-39 3 -90 3q-52 0 -91 -3l-3 25q27 11 37.5 28t12.5 54q3 33 3 112v266
q0 79 -3 112q-2 37 -12.5 54t-37.5 28l3 25q39 -3 91 -3q51 0 90 3l3 -25q-31 -13 -41.5 -30t-10.5 -52q0 -29 -1 -55t-1 -57v-92h376v92q0 79 -3 112q-2 37 -12.5 54t-37.5 28l3 25q39 -3 91 -3q51 0 90 3l3 -25q-30 -13 -40.5 -29.5t-11.5 -52.5q-2 -88 -2 -112z" />
    <glyph glyph-name="I" unicode="I" horiz-adv-x="283" 
d="M181 484v-266q0 -79 3 -112q0 -36 10.5 -52.5t40.5 -29.5l-3 -25q-39 3 -90 3q-52 0 -91 -3l-3 25q27 11 37.5 28t12.5 54q3 33 3 112v266q0 79 -3 112q-2 37 -12.5 54t-37.5 28l3 25q39 -3 91 -3q51 0 90 3l3 -25q-30 -13 -40.5 -29.5t-10.5 -52.5q-3 -33 -3 -112z" />
    <glyph glyph-name="J" unicode="J" horiz-adv-x="401" 
d="M227 203v281q0 79 -3 112q-2 37 -12.5 54t-37.5 28l3 25q39 -3 91 -3q51 0 90 3l3 -25q-30 -13 -40.5 -29.5t-11.5 -52.5q-2 -88 -2 -112v-177q0 -112 1 -142q-3 -87 -46 -134t-116 -47q-86 0 -133 62l22 25q42 -39 92 -39q63 0 86 54q14 33 14 117z" />
    <glyph glyph-name="K" unicode="K" horiz-adv-x="623" 
d="M181 484v-266q0 -24 2 -112q1 -36 11.5 -52.5t40.5 -29.5l-3 -25q-39 3 -90 3q-52 0 -91 -3l-3 25q27 11 37.5 28t12.5 53q3 33 3 113v266q0 79 -3 112q-2 37 -12.5 54t-37.5 28l3 25q39 -3 91 -3q51 0 90 3l3 -25q-30 -13 -40.5 -29.5t-11.5 -52.5q-2 -88 -2 -112z
M379 484l-95 -95q122 -171 244 -304q52 -59 93 -72v-21q-19 -8 -51 -8q-60 0 -131 83q-106 123 -234 305l112 113l52 52l38 41q39 42 39 59q0 15 -7 24t-28 17l3 25q39 -3 87 -3q46 0 79 3l3 -25q-35 -22 -93 -81l-56 -57q-14 -14 -55 -56z" />
    <glyph glyph-name="L" unicode="L" horiz-adv-x="504" 
d="M181 484v-276q0 -79 3 -109q4 -36 16.5 -47t47.5 -11q70 0 102 5q46 9 70 46q21 31 37 81l29 -5q-6 -78 -25 -171q-110 5 -295 5q-76 0 -115 -3l-3 25q27 11 37.5 28t12.5 54q3 33 3 112v266q0 79 -3 112q-2 37 -12.5 54t-37.5 28l3 25q39 -3 89 -3q52 0 91 3l3 -25
q-27 -11 -37.5 -28t-12.5 -54q-3 -33 -3 -112z" />
    <glyph glyph-name="M" unicode="M" horiz-adv-x="905" 
d="M728 217l-9 397l-267 -630h-21l-268 608l-13 -375q-2 -62 -2 -79q0 -44 8 -71q10 -32 48 -44l-3 -25q-47 3 -82 3q-47 0 -79 -3l-3 25q29 12 40 28.5t14 53.5l3 59l2 53l12 267q1 15 1 57q0 48 -8 81q-10 42 -54 56l3 25q56 -3 156 -3l252 -580l237 580q117 0 156 3
l3 -25q-29 -11 -39.5 -28t-12.5 -54q-2 -64 -2 -83v-17q3 -57 7 -279q3 -105 4 -112q0 -35 10.5 -52t41.5 -30l-3 -25q-39 3 -89 3q-52 0 -91 -3l-3 25q38 11 45 44q7 24 7 69q0 64 -1 81z" />
    <glyph glyph-name="N" unicode="N" horiz-adv-x="768" 
d="M673 -8l-24 -8l-493 595v-362q0 -79 3 -112q3 -37 14 -53.5t40 -28.5l-3 -25q-46 3 -81 3q-47 0 -79 -3l-3 25q29 12 39.5 28t13.5 54q3 33 3 112v267q0 73 -3 106q-3 37 -15.5 56.5t-42.5 31.5l3 25q47 -3 117 -3l454 -545v329q0 79 -3 112q-3 37 -14 53.5t-40 28.5
l3 25q46 -3 81 -3q47 0 79 3l3 -25q-29 -12 -39.5 -28t-13.5 -54q-3 -33 -3 -112v-328q0 -103 4 -164z" />
    <glyph glyph-name="O" unicode="O" horiz-adv-x="819" 
d="M46 350q0 158 105 262q106 104 257 104q158 0 261 -105q104 -104 104 -261q0 -156 -104 -262q-104 -104 -252 -104q-163 0 -267 102t-104 264zM393 666q-109 0 -181 -81t-72 -222q0 -147 84 -239q85 -91 206 -91q109 0 179 85t70 220q0 143 -83 235q-82 93 -203 93z" />
    <glyph glyph-name="P" unicode="P" horiz-adv-x="519" 
d="M240 663q-33 0 -43.5 -9.5t-12.5 -40.5q-3 -31 -3 -103v-292q0 -68 2 -112q2 -37 12 -53.5t40 -28.5l-3 -25q-39 3 -90 3q-52 0 -91 -3l-3 25q27 11 37.5 28t12.5 54q3 33 3 112v266q0 79 -3 112q-2 37 -12.5 54t-37.5 28l3 25q39 -3 91 -3q31 0 60 1t76 1q95 0 156 -52
q63 -51 63 -134q0 -89 -64 -143q-63 -54 -163 -54q-19 0 -41 5l2 31q89 0 135.5 41t46.5 116q0 74 -45.5 112.5t-127.5 38.5z" />
    <glyph glyph-name="Q" unicode="Q" horiz-adv-x="819" 
d="M46 350q0 158 105 262q106 104 257 104q158 0 261 -105q104 -104 104 -261q0 -129 -74 -227q-73 -95 -189 -127q258 -216 560 -216q128 0 244 38l12 -35q-126 -59 -297 -59q-164 0 -329 64q-170 66 -307 197q-153 7 -251 108q-96 101 -96 257zM393 666q-109 0 -181 -81
t-72 -222q0 -147 84 -239q85 -91 206 -91q109 0 179 85t70 220q0 143 -83 235q-82 93 -203 93z" />
    <glyph glyph-name="R" unicode="R" horiz-adv-x="627" 
d="M240 329q-44 0 -59 4v-115q0 -68 2 -112q2 -37 12 -53.5t40 -28.5l-3 -25q-39 3 -90 3q-52 0 -91 -3l-3 25q27 11 37.5 28t12.5 54q3 33 3 112v266q0 79 -3 112q-2 37 -12.5 54t-37.5 28l3 25q39 -3 91 -3q31 0 57 1q27 1 66 1q99 0 155 -52q57 -52 57 -126
q0 -123 -113 -173q89 -165 169 -266q50 -60 92 -72v-21q-19 -8 -51 -8q-67 0 -126 83q-79 107 -153 266q-17 -4 -55 -4zM240 663q-33 0 -43.5 -9.5t-12.5 -40.5q-3 -31 -3 -103v-140q5 -1 46 -1q80 0 122.5 38t42.5 107q0 70 -39 109.5t-113 39.5z" />
    <glyph glyph-name="S" unicode="S" horiz-adv-x="486" 
d="M232 29q59 0 96 34t37 86q0 55 -38 93q-37 36 -98 80q-57 39 -88 65q-23 19 -44 46q-35 46 -35 108q0 75 56 125q58 50 144 50q87 0 164 -41q0 -14 0.5 -30.5t1 -25.5t0.5 -13q0 -5 -0.5 -14t-1 -26t-0.5 -31l-28 -2q-15 59 -42 91q-40 46 -102 46q-53 0 -86 -30.5
t-33 -81.5q0 -48 35 -85q26 -25 96 -75q64 -45 87 -63q24 -18 44 -41q47 -56 47 -126q0 -84 -60 -134t-159 -50q-95 0 -164 33q-7 37 -20 162l31 7q18 -54 35 -83q24 -41 51 -57.5t74 -16.5z" />
    <glyph glyph-name="T" unicode="T" horiz-adv-x="612" 
d="M129 700h361q74 0 113 3q3 -72 3 -146l-29 -2q-15 51 -36 74q-19 21 -57 27q-35 5 -79 5q-35 0 -44.5 -8.5t-11.5 -39.5q-3 -31 -3 -103v-292q0 -13 3 -112q2 -39 13.5 -54.5t47.5 -25.5l-3 -27q-39 3 -100 3q-63 0 -102 -3l-3 27q36 10 47.5 25.5t13.5 54.5q3 99 3 112
v292q0 72 -3 103q-2 31 -11.5 39.5t-44.5 8.5q-43 0 -78 -5q-37 -6 -57 -27q-22 -22 -37 -74l-29 2q7 113 10 146q39 -3 113 -3z" />
    <glyph glyph-name="U" unicode="U" horiz-adv-x="685" 
d="M601 484v-230q0 -118 -72 -194t-188 -76q-120 0 -187.5 67t-67.5 188v245q0 79 -3 112q-2 37 -12.5 54t-37.5 28l3 25q39 -3 91 -3q51 0 90 3l3 -25q-30 -13 -40 -29.5t-11 -52.5q-3 -99 -3 -112v-243q0 -96 48 -149t133 -53q93 0 147 60t54 168v217q0 79 -3 112
q-3 37 -14 53.5t-40 28.5l3 25q46 -3 81 -3q47 0 79 3l3 -25q-29 -12 -39.5 -28t-13.5 -54q-3 -33 -3 -112z" />
    <glyph glyph-name="V" unicode="V" horiz-adv-x="619" 
d="M503 484l-188 -500h-20l-181 500q-25 65 -44 112q-27 62 -68 82l3 25q39 -3 82 -3q62 0 101 3l3 -25q-37 -16 -37 -40q0 -25 45 -154l122 -346l128 346q41 112 41 153q0 27 -38 41l3 25q39 -3 85 -3q41 0 74 3l3 -25q-25 -13 -40 -31t-29 -51q-13 -30 -45 -112z" />
    <glyph glyph-name="W" unicode="W" horiz-adv-x="997" 
d="M884 484l-181 -500h-21l-185 527l-190 -527h-21l-175 500q-36 102 -41 112q-16 35 -30.5 52.5t-37.5 29.5l3 25q39 -3 82 -3q62 0 101 3l3 -25q-22 -9 -30 -17.5t-8 -22.5q0 -28 43 -154l116 -346l122 346q24 66 24 112q0 54 -61 82l3 25q39 -3 82 -3q67 0 106 3l3 -25
q-22 -10 -31 -20t-9 -25q0 -26 41 -149l116 -346l122 346q38 111 38 153q0 27 -38 41l3 25q39 -3 85 -3q40 0 74 3l3 -25q-25 -13 -40 -31t-29 -51z" />
    <glyph glyph-name="X" unicode="X" horiz-adv-x="632" 
d="M286 484l47 -70l47 71l22 32q9 15 20 31t16 24q31 48 31 65q0 15 -7 24t-28 17l3 25q39 -3 87 -3q41 0 74 3l3 -25q-41 -26 -83 -81l-82 -113l-76 -110l105 -156l39 -60q30 -46 35 -52q35 -54 77 -82l-3 -25q-39 3 -82 3q-63 0 -102 -3l-3 25q38 15 38 40q0 24 -79 137
l-76 112l-67 -95q-86 -124 -86 -153q0 -28 37 -41l-3 -25q-58 3 -97 3q-41 0 -74 -3l-3 25q30 18 81 81q84 110 86 113l99 135l-88 131l-73 112q-34 55 -76 82l3 25q39 -3 82 -3q63 0 102 3l3 -25q-38 -15 -38 -40q0 -24 89 -154z" />
    <glyph glyph-name="Y" unicode="Y" horiz-adv-x="561" 
d="M240 106q3 33 3 112v113l-94 153l-69 112q-24 37 -40 53.5t-38 28.5l3 25q59 -3 94 -3q52 0 91 3l3 -25q-40 -15 -40 -36q0 -22 84 -158l63 -102l59 102q73 124 73 153q0 27 -38 41l3 25q39 -3 85 -3q40 0 74 3l3 -25q-20 -11 -35 -28t-41 -54l-71 -112l-89 -152v-114
q0 -62 3 -112q2 -38 12 -54t39 -28l-3 -25q-39 3 -90 3q-52 0 -91 -3l-3 25q27 11 37 28t13 54z" />
    <glyph glyph-name="Z" unicode="Z" horiz-adv-x="613" 
d="M265 40h95q62 0 103 6q42 6 66 40q20 31 35 77l27 -5q-8 -79 -24 -161q-39 3 -144 3h-263q-85 0 -130 -3l-6 23l442 637q-61 4 -136 4h-75q-51 0 -86 -5q-37 -6 -57 -27q-22 -23 -39 -74l-29 5q5 82 14 143q39 -3 111 -3h266q85 0 130 3l6 -24l-434 -634q70 -5 128 -5z
" />
    <glyph glyph-name="bracketleft" unicode="[" horiz-adv-x="400" 
d="M325 -175v-48h-192v972h192v-48h-142v-876h142z" />
    <glyph glyph-name="backslash" unicode="\" horiz-adv-x="355" 
d="M324 -80l-47 -15l-246 833l47 15z" />
    <glyph glyph-name="bracketright" unicode="]" horiz-adv-x="400" 
d="M267 749v-972h-192v48h142v876h-142v48h192z" />
    <glyph glyph-name="asciicircum" unicode="^" horiz-adv-x="500" 
d="M122 312h-53l156 400h39l167 -400h-49l-136 324z" />
    <glyph glyph-name="underscore" unicode="_" horiz-adv-x="500" 
d="M500 -102h-500v45h500v-45z" />
    <glyph glyph-name="grave" unicode="`" 
d="M146 694l46 -191l-23 -10l-96 169q-15 26 -15 44t10.5 29.5t27.5 11.5q36 0 50 -53z" />
    <glyph glyph-name="a" unicode="a" horiz-adv-x="402" 
d="M71 350l-19 32q16 30 51.5 51t76.5 21q75 0 111 -52q30 -45 30 -108v-96q0 -49 2 -91q3 -50 50 -73l-13 -40q-90 4 -104 78h-2q-38 -86 -116 -86q-47 0 -75.5 26.5t-28.5 68.5q0 59 63 100q55 35 154 61v49q0 45 -21 72q-21 28 -63 28q-43 0 -96 -41zM251 152v55
q-12 -3 -58 -23q-88 -37 -88 -86q0 -23 13 -37t37 -14q36 0 65 28q31 28 31 77z" />
    <glyph glyph-name="b" unicode="b" horiz-adv-x="521" 
d="M262 30q65 0 103.5 50t38.5 132t-34.5 130t-92.5 48q-56 0 -87 -34t-31 -91v-128q0 -107 103 -107zM89 24v480q0 66 -3 98q-2 30 -12 41.5t-37 16.5v22q55 29 106 70l21 -8q-5 -95 -5 -181v-201l1 -1q22 44 58 69.5t81 25.5q77 0 128 -61q52 -61 52 -156q0 -111 -66 -183
q-65 -72 -158 -72q-108 0 -166 40z" />
    <glyph glyph-name="c" unicode="c" horiz-adv-x="446" 
d="M322 339q-14 72 -79 72q-59 0 -94.5 -49.5t-35.5 -133.5q0 -77 39 -125t98 -48q48 0 79.5 18t62.5 63l24 -15q-25 -64 -70 -100.5t-106 -36.5q-90 0 -147 67t-57 161q0 104 64 174t159 70q66 0 113 -41q36 -31 36 -74q0 -19 -11 -31.5t-31 -12.5q-36 0 -44 42z" />
    <glyph glyph-name="d" unicode="d" horiz-adv-x="532" 
d="M242 411q-54 0 -90.5 -46.5t-36.5 -125.5q0 -88 39.5 -139.5t101.5 -51.5q50 0 79 32t29 86v104q0 69 -34.5 105t-87.5 36zM434 563v-349q0 -58 3 -90q2 -30 11.5 -41t37.5 -16v-21q-47 -21 -94 -62l-21 5l-4 85l-1 1q-21 -40 -57.5 -65.5t-72.5 -25.5q-80 0 -137 62
t-57 168t62 174t146 68q69 0 114 -33v87q0 62 -3 93q-2 30 -11.5 41t-37.5 16v22q55 29 106 70l21 -8q-1 -47 -2.5 -93t-2 -65.5t-0.5 -22.5z" />
    <glyph glyph-name="e" unicode="e" horiz-adv-x="467" 
d="M36 212q0 104 63 174t156 70q72 0 120 -48q49 -46 49 -119q0 -13 -2 -23h-308q-2 -16 -2 -38q0 -76 40 -125q40 -48 102 -48q48 0 80.5 18.5t63.5 62.5l24 -15q-25 -63 -71 -100t-107 -37q-92 0 -150 67t-58 161zM121 306h215q-1 48 -29.5 76.5t-73.5 28.5q-43 0 -73 -29
t-39 -76z" />
    <glyph glyph-name="f" unicode="f" horiz-adv-x="279" 
d="M290 748q45 0 76 -22.5t31 -56.5q0 -18 -10.5 -29.5t-27.5 -11.5q-29 0 -52 39q-17 29 -48 29q-95 0 -95 -188v-75q66 1 109 4l8 -17l-8 -37h-109v-196q0 -39 2 -93q2 -31 13 -46t43 -26l-3 -23q-35 3 -90 3q-45 0 -80 -3l-3 23q26 11 34.5 25t10.5 47q3 32 3 97v148
q0 30 -8.5 41t-38.5 17l-4 21q29 10 39 34q4 10 7 24.5t6.5 35t5.5 32.5q47 204 189 204z" />
    <glyph glyph-name="g" unicode="g" horiz-adv-x="457" 
d="M463 420l-8 -37h-94q33 -37 33 -98q0 -72 -47 -121q-47 -47 -113 -47q-63 0 -107 37q-38 -29 -38 -70q0 -47 68 -50l121 -4q69 -2 106.5 -39t37.5 -97q0 -70 -64 -119q-64 -50 -164 -50q-81 0 -125.5 32t-44.5 86q0 67 80 123q-72 26 -72 95q0 65 69 118q-34 46 -34 106
q0 69 48 119q48 49 115 49q31 0 65 -10q36 -10 65 -10q54 0 95 4zM367 -123q0 77 -107 77q-82 0 -122 3q-49 -46 -49 -97q0 -36 31 -57.5t90 -21.5q77 0 117 27t40 69zM228 413q-39 0 -61.5 -31t-22.5 -91q0 -65 23.5 -99.5t66.5 -34.5q84 0 84 123q0 62 -24.5 97.5
t-65.5 35.5z" />
    <glyph glyph-name="h" unicode="h" horiz-adv-x="526" 
d="M167 563l-1 -197l1 -1q48 91 134 91q76 0 114 -62q21 -38 21 -88v-115q0 -55 2 -97q2 -33 11 -47t35 -25l-3 -23q-80 7 -160 0l-3 23q26 11 34.5 25t10.5 47q3 32 3 97v106q0 42 -23.5 68t-63.5 26q-51 0 -81.5 -31t-30.5 -80v-89q0 -55 2 -97q2 -33 11 -47t35 -25
l-3 -23q-80 7 -160 0l-3 23q26 11 34.5 25t10.5 47q3 32 3 97v319q0 62 -3 93q-2 30 -11.5 41t-37.5 16v22q55 29 106 70l21 -8q-5 -95 -5 -181z" />
    <glyph glyph-name="i" unicode="i" horiz-adv-x="262" 
d="M169 269v-75q0 -58 2 -100q2 -33 11 -47t35 -25l-3 -23q-80 7 -160 0l-3 23q27 11 35 24t10 47q3 31 3 101v22q0 62 -3 94q-2 30 -11.5 41t-37.5 16v21q65 32 106 70l21 -8q-1 -47 -2.5 -93t-2 -65.5t-0.5 -22.5zM94 638q-16 16 -16 40t16 40t40 16t40 -16t16 -40
t-16 -40t-40 -16t-40 16z" />
    <glyph glyph-name="j" unicode="j" horiz-adv-x="248" 
d="M163 269v-253q0 -79 1 -100q-6 -54 -37 -102t-79 -78l-17 18q35 45 49 93q13 45 13 122v247q0 62 -3 94q-2 30 -11.5 41t-37.5 16v21q65 32 106 70l21 -8q-5 -95 -5 -181zM88 638q-16 16 -16 40t16 40t40 16t40 -16t16 -40t-16 -40t-40 -16t-40 16z" />
    <glyph glyph-name="k" unicode="k" horiz-adv-x="458" 
d="M167 563v-369q0 -58 2 -100q2 -33 11 -47t35 -25l-3 -23q-80 7 -160 0l-3 23q26 11 34.5 25t10.5 47q3 32 3 100v316q0 62 -3 93q-2 30 -11.5 41t-37.5 16v22q55 29 106 70l21 -8q-5 -95 -5 -181zM203 207l-23 35l31 28q59 54 78 75q20 23 20 36q0 16 -28 29l4 23
q29 -3 69 -3q30 0 74 3l3 -23q-28 -16 -86 -71l-93 -86q63 -92 128 -172q37 -43 80 -62v-21q-20 -7 -34 -7q-56 0 -106 57q-39 46 -60 75l-19 27q-8 13 -17 25z" />
    <glyph glyph-name="l" unicode="l" horiz-adv-x="260" 
d="M167 563v-369q0 -58 2 -100q2 -33 11 -47t35 -25l-3 -23q-80 7 -160 0l-3 23q26 11 34.5 25t10.5 47q3 32 3 100v316q0 62 -3 93q-2 30 -11.5 41t-37.5 16v22q55 29 106 70l21 -8q-1 -47 -2.5 -93t-2 -65.5t-0.5 -22.5z" />
    <glyph glyph-name="m" unicode="m" horiz-adv-x="737" 
d="M408 290v-99q0 -55 2 -97q2 -33 11 -47t35 -25l-3 -23q-80 7 -160 0l-3 23q26 11 34.5 25t10.5 47q3 32 3 97v115q0 38 -20 62t-54 24q-44 0 -69.5 -28t-25.5 -74v-99q0 -55 2 -97q2 -33 11 -47t35 -25l-3 -23q-80 7 -160 0l-3 23q26 11 34.5 25t10.5 47q3 32 3 97v25
q0 62 -3 94q-3 30 -12.5 41t-36.5 16v21q65 32 106 70l21 -8q-7 -69 -7 -76l2 -1q47 83 120 83q65 0 100 -57q10 -17 13 -31h2q49 88 124 88q66 0 100 -57q19 -31 19 -81v-127q0 -55 2 -97q2 -33 11 -47t35 -25l-3 -23q-80 7 -160 0l-3 23q26 11 34.5 25t10.5 47q3 32 3 97
v115q0 38 -20 62t-54 24q-44 0 -69.5 -28t-25.5 -74z" />
    <glyph glyph-name="n" unicode="n" horiz-adv-x="528" 
d="M438 306v-115q0 -55 2 -97q2 -33 11 -47t35 -25l-3 -23q-80 7 -160 0l-3 23q26 11 34.5 25t10.5 47q3 32 3 97v106q0 42 -23.5 68t-63.5 26q-51 0 -81.5 -31t-30.5 -80v-89q0 -55 2 -97q2 -33 11 -47t35 -25l-3 -23q-80 7 -160 0l-3 23q26 11 34.5 25t10.5 47q3 32 3 97
v25q0 62 -3 94q-2 30 -11.5 41t-37.5 16v21q65 32 106 70l21 -8q-4 -50 -6 -84l1 -1q48 91 134 91q76 0 114 -62q21 -38 21 -88z" />
    <glyph glyph-name="o" unicode="o" horiz-adv-x="520" 
d="M36 220q0 96 65 166q64 70 157 70q96 0 159 -68q64 -67 64 -168q0 -99 -64 -167q-63 -69 -154 -69q-98 0 -163 68q-64 67 -64 168zM255 410q-61 0 -99 -48t-38 -133q0 -91 40.5 -144t107.5 -53q60 0 96.5 48.5t36.5 133.5q0 87 -41 142q-40 54 -103 54z" />
    <glyph glyph-name="p" unicode="p" horiz-adv-x="527" 
d="M282 -16q-76 0 -120 36q0 -34 0.5 -79.5t1.5 -77.5v-32q0 -31 12 -46t44 -26l-3 -23q-35 3 -90 3q-45 0 -80 -3l-3 23q26 11 34.5 25t10.5 47q3 31 3 97v288q0 62 -3 94q-2 30 -11.5 41t-37.5 16v21q65 32 106 70l21 -8q-5 -50 -6 -84l1 -1q21 41 58 66t77 25
q77 0 132 -64q56 -65 56 -168q0 -106 -60 -173t-143 -67zM285 28q58 0 92.5 43t34.5 122q0 91 -38 144t-99 53q-53 0 -83 -30t-30 -80v-118q0 -63 33 -98.5t90 -35.5z" />
    <glyph glyph-name="q" unicode="q" horiz-adv-x="509" 
d="M256 408q-63 0 -102.5 -52t-39.5 -136q0 -81 34.5 -126.5t92.5 -45.5q57 0 87.5 37t30.5 104v81q0 65 -28 101.5t-75 36.5zM359 20v55l-1 1q-21 -42 -56.5 -67t-76.5 -25q-79 0 -133 60q-53 62 -53 153q0 115 64 186q64 73 157 73q67 0 116 -31l36 36l18 -5
q-1 -51 -1 -232v-294q0 -68 3 -99q2 -33 10.5 -47t34.5 -25l-3 -23q-34 3 -80 3q-56 0 -90 -3l-3 23q32 11 44 26t12 46l1 32q0 32 0.5 77.5t0.5 79.5z" />
    <glyph glyph-name="r" unicode="r" horiz-adv-x="347" 
d="M317 371q-9 0 -31.5 9t-30.5 9q-37 0 -61.5 -41t-24.5 -110v-47q0 -55 2 -97q2 -33 13.5 -48t42.5 -24l-3 -23q-34 3 -90 3q-46 0 -80 -3l-3 23q26 11 34.5 25t10.5 47q3 32 3 97v25q0 62 -3 94q-2 30 -11.5 41t-37.5 16v21q65 32 106 70l21 -8q-5 -39 -6 -97l1 -1
q20 49 52 76.5t68 27.5q29 0 46.5 -14t17.5 -36q0 -35 -36 -35z" />
    <glyph glyph-name="s" unicode="s" horiz-adv-x="335" 
d="M26 73q0 18 10 29t27 11q33 0 43 -39q14 -48 60 -48q72 0 72 67q0 31 -19.5 53t-68.5 47q-110 56 -110 136q0 53 38 89q38 37 93 37q52 0 90 -29q26 -21 26 -49q0 -16 -9.5 -26t-25.5 -10q-27 0 -42 34q-17 38 -54 38q-25 0 -41.5 -16t-16.5 -41q0 -30 21 -53.5t73 -49.5
q58 -28 83.5 -60.5t25.5 -80.5q0 -57 -39.5 -92.5t-99.5 -35.5q-68 0 -106 32q-30 26 -30 57z" />
    <glyph glyph-name="t" unicode="t" horiz-adv-x="273" 
d="M23 397l-3 21q35 26 57.5 52t46.5 67l25 -6q-2 -24 -8 -98q58 1 105 4l8 -17l-8 -37h-107v-235q0 -65 16 -87q13 -16 38 -16q27 0 52 25l17 -29q-9 -23 -33.5 -39t-54.5 -16q-48 0 -77 35q-27 33 -27 115v203q0 30 -8.5 41t-38.5 17z" />
    <glyph glyph-name="u" unicode="u" horiz-adv-x="519" 
d="M421 257v-43q0 -58 3 -90q2 -30 11.5 -41t37.5 -16v-21q-47 -21 -94 -62l-21 5l-3 92l-1 1q-19 -44 -55.5 -71t-79.5 -27q-77 0 -113 59q-20 35 -20 91v109q0 63 -3 94q-3 30 -13.5 46t-34.5 27l3 22q70 1 125 5q-7 -148 -7 -180v-114q0 -46 21 -70t58 -24
q53 0 84.5 34.5t31.5 89.5v70q0 63 -3 94q-2 30 -12.5 45.5t-35.5 27.5l3 22q70 1 125 5q-7 -148 -7 -180z" />
    <glyph glyph-name="v" unicode="v" horiz-adv-x="424" 
d="M165 253l56 -153l64 152q31 71 31 105q0 35 -35 53l4 23q29 -3 64 -3q41 0 69 3l3 -23q-23 -18 -48 -72q-5 -8 -39 -87l-118 -269h-26l-100 269l-41 101q-11 25 -19.5 35.5t-26.5 22.5l4 23q29 -3 81 -3q40 0 69 3l3 -23q-30 -14 -30 -40q0 -18 35 -117z" />
    <glyph glyph-name="w" unicode="w" horiz-adv-x="673" 
d="M422 253l53 -153l59 152q31 78 31 105q0 35 -35 53l4 23q28 -3 64 -3q40 0 69 3l3 -23q-22 -18 -48 -72q-22 -46 -39 -87l-111 -269h-28l-108 299l-123 -299h-28l-97 269l-39 101q-11 25 -19.5 35.5t-26.5 22.5l4 23q29 -3 81 -3q40 0 69 3l3 -23q-30 -14 -30 -40
q0 -22 33 -117l53 -153l60 152q28 72 28 102t-42 56l4 23q28 -3 81 -3q41 0 69 3l3 -23q-30 -14 -30 -40q0 -21 33 -117z" />
    <glyph glyph-name="x" unicode="x" horiz-adv-x="427" 
d="M158 384q0 -9 11 -31q22 -36 58 -88q68 92 68 117q0 16 -24 29l3 22q38 -2 59 -2q29 0 67 2l4 -23q-28 -22 -58 -58l-76 -101l-17 -23l32 -47q59 -88 70 -102q32 -42 59 -57l-4 -23q-44 3 -73 3q-35 0 -79 -3l-3 22q28 12 28 27q0 18 -54 98l-25 37l-14 -17
q-69 -84 -69 -115q0 -16 22 -29l-3 -22q-38 2 -59 2q-29 0 -67 -2l-4 23q28 21 57 57l81 102l30 39l-20 30q-55 82 -71 102q-25 34 -59 57l4 23q38 -2 77 -2q37 0 75 2l3 -22q-29 -12 -29 -27z" />
    <glyph glyph-name="y" unicode="y" horiz-adv-x="436" 
d="M170 253l62 -156l66 155q31 71 31 105q0 33 -35 53l4 23q28 -3 68 -3q36 0 65 3l3 -23q-22 -20 -48 -72l-39 -87l-177 -400q-28 -64 -58 -95q-32 -32 -76 -32q-20 0 -33.5 12t-13.5 30t10.5 29.5t27.5 11.5q7 0 22.5 -2.5t21.5 -2.5q29 0 51 48l72 156l-99 245l-40 101
q-11 25 -19.5 35.5t-26.5 22.5l4 23q43 -3 81 -3q26 0 69 3l3 -23q-30 -14 -30 -40q0 -33 34 -117z" />
    <glyph glyph-name="z" unicode="z" horiz-adv-x="404" 
d="M176 430h86q4 0 100 3l6 -26l-75 -105l-182 -259h77q40 0 78 5q33 5 46 30q10 15 27 60l27 -5q-6 -90 -14 -138q-35 1 -65.5 2.5t-43.5 2t-14 0.5h-65q-21 0 -127 -2l-12 40l70 95l178 254h-62q-48 0 -72 -4q-26 -4 -40.5 -18t-28.5 -50l-26 5q6 75 15 115q75 -5 117 -5z
" />
    <glyph glyph-name="braceleft" unicode="{" horiz-adv-x="400" 
d="M166 264q58 -27 58 -113q0 -45 -9 -121t-9 -112q0 -87 116 -92v-48q-80 0 -124.5 36.5t-44.5 107.5q0 40 9 116t9 110q0 46 -23 68.5t-78 26.5v41q55 4 78 27t23 69q0 34 -9 110t-9 116q0 71 44.5 107.5t124.5 36.5v-48q-116 -5 -116 -92q0 -36 9 -113t9 -120
q0 -86 -58 -113z" />
    <glyph glyph-name="bar" unicode="|" 
d="M102 -261v1013h46v-1013h-46z" />
    <glyph glyph-name="braceright" unicode="}" horiz-adv-x="400" 
d="M234 264q-58 27 -58 113q0 43 9 120t9 113q0 87 -116 92v48q80 0 124.5 -36.5t44.5 -107.5q0 -40 -9 -116t-9 -110q0 -46 23 -69t78 -27v-41q-55 -4 -78 -26.5t-23 -68.5q0 -34 9 -110t9 -116q0 -71 -44.5 -107.5t-124.5 -36.5v48q116 5 116 92q0 36 -9 112t-9 121
q0 86 58 113z" />
    <glyph glyph-name="asciitilde" unicode="~" horiz-adv-x="500" 
d="M242 212q-63 29 -83 29q-47 0 -81 -63l-35 21q42 88 116 88q37 0 99 -31q63 -29 83 -29q45 0 80 62l37 -19q-44 -89 -117 -89q-37 0 -99 31z" />
    <glyph glyph-name="uni00A0" unicode="&#xa0;" 
 />
    <glyph glyph-name="exclamdown" unicode="&#xa1;" 
d="M83 615q-17 17 -17 42t17 42t42 17t42 -17t17 -42t-17 -42t-42 -17t-42 17zM111 522h28q10 -180 31 -400q7 -63 7 -79q0 -23 -15.5 -39t-36.5 -16q-20 0 -36 16.5t-16 38.5q0 16 7 79q21 220 31 400z" />
    <glyph glyph-name="cent" unicode="&#xa2;" horiz-adv-x="446" 
d="M323 339q-5 24 -15 40l-106 -317q22 -9 49 -9q47 0 79 19t63 64l24 -15q-24 -63 -69.5 -100t-106.5 -37q-32 0 -62 10l-58 -171l-43 14l59 175q-48 29 -75 83t-27 117q0 102 65 173q66 71 160 71l26 -2l55 167l43 -14l-54 -165q25 -12 43 -27q36 -31 36 -74
q0 -19 -11.5 -31.5t-30.5 -12.5q-37 0 -44 42zM114 228q0 -91 49 -140l107 319q-9 4 -26 4q-58 0 -94 -49.5t-36 -133.5z" />
    </font>
</defs>
</svg>
